<?xml version="1.0" encoding="iso-8859-1"?>
<!-- Generator: Adobe Illustrator 19.0.0, SVG Export Plug-In . SVG Version: 6.00 Build 0)  -->
<svg version="1.1" id="Capa_1" xmlns="http://www.w3.org/2000/svg" xmlns:xlink="http://www.w3.org/1999/xlink" x="0px" y="0px"
	 viewBox="0 0 512.015 512.015" style="enable-background:new 0 0 512.015 512.015;" xml:space="preserve">
<linearGradient id="SVGID_1_" gradientUnits="userSpaceOnUse" x1="-302.5152" y1="15.9028" x2="-302.5152" y2="16.8728" gradientTransform="matrix(512.0151 0 0 512.006 155148.3438 -8125.0771)">
	<stop  offset="0" style="stop-color:#C544FC"/>
	<stop  offset="1" style="stop-color:#5B56D7"/>
</linearGradient>
<path style="fill:url(#SVGID_1_);" d="M298.594,256.011L503.183,51.422c11.776-11.776,11.776-30.81,0-42.586
	c-11.776-11.776-30.81-11.776-42.586,0L256.008,213.425L51.418,8.836C39.642-2.94,20.608-2.94,8.832,8.836s-11.776,30.81,0,42.586
	l204.589,204.589L8.832,460.6c-11.776,11.776-11.776,30.81,0,42.586c5.873,5.873,13.583,8.824,21.293,8.824
	s15.42-2.952,21.293-8.824l204.589-204.589l204.589,204.589c5.873,5.873,13.583,8.824,21.293,8.824c7.71,0,15.42-2.952,21.293-8.824
	c11.776-11.776,11.776-30.81,0-42.586L298.594,256.011z"/>
<g>
</g>
<g>
</g>
<g>
</g>
<g>
</g>
<g>
</g>
<g>
</g>
<g>
</g>
<g>
</g>
<g>
</g>
<g>
</g>
<g>
</g>
<g>
</g>
<g>
</g>
<g>
</g>
<g>
</g>
</svg>
