<?xml version="1.0" encoding="iso-8859-1"?>
<!-- Generator: Adobe Illustrator 19.0.0, SVG Export Plug-In . SVG Version: 6.00 Build 0)  -->
<svg version="1.1" id="Capa_1" xmlns="http://www.w3.org/2000/svg" xmlns:xlink="http://www.w3.org/1999/xlink" x="0px" y="0px"
	 viewBox="0 0 511.998 511.998" style="enable-background:new 0 0 511.998 511.998;" xml:space="preserve">
<linearGradient id="SVGID_1_" gradientUnits="userSpaceOnUse" x1="-329.689" y1="260.6575" x2="-329.689" y2="261.6375" gradientTransform="matrix(511.998 0 0 511.9939 169056.0781 -133442.6563)">
	<stop  offset="0" style="stop-color:#C544FC"/>
	<stop  offset="1" style="stop-color:#5B56D7"/>
</linearGradient>
<path style="fill:url(#SVGID_1_);" d="M122.94,419.799c0-16.944-13.789-30.732-30.732-30.732s-30.732,13.789-30.732,30.732
	c0,16.944,13.789,30.732,30.732,30.732S122.94,436.743,122.94,419.799 M467.224,262.101
	c-49.561,49.581-108.444,63.472-162.82,38.887L143.346,484.193c-14.444,16.411-34.42,26.245-56.24,27.639
	c-1.782,0.102-3.585,0.164-5.368,0.164c-19.874,0-38.846-7.13-53.925-20.386c-16.411-14.424-26.245-34.4-27.639-56.22
	c-1.414-21.82,5.778-42.882,20.222-59.293c2.213-2.541,4.917-5.204,7.376-7.396l183.246-161.099
	c-24.586-54.335-10.674-113.238,38.866-162.82c41.652-41.653,104.49-55.728,160.156-35.957c3.319,1.168,5.798,3.975,6.556,7.396
	c0.779,3.442-0.266,7.027-2.745,9.507l-50.544,50.524c-9.67,9.67-14.997,22.537-14.997,36.223c0,13.666,5.327,26.532,14.997,36.223
	c19.341,19.361,53.105,19.361,72.446,0l50.524-50.544c2.5-2.5,6.044-3.585,9.507-2.745c3.422,0.758,6.228,3.237,7.396,6.556
	C522.952,157.612,508.835,220.469,467.224,262.101 M102.452,419.799c0,5.634-4.61,10.244-10.244,10.244s-10.244-4.61-10.244-10.244
	s4.61-10.244,10.244-10.244S102.452,414.165,102.452,419.799"/>
<g>
</g>
<g>
</g>
<g>
</g>
<g>
</g>
<g>
</g>
<g>
</g>
<g>
</g>
<g>
</g>
<g>
</g>
<g>
</g>
<g>
</g>
<g>
</g>
<g>
</g>
<g>
</g>
<g>
</g>
</svg>
