<?xml version="1.0" encoding="iso-8859-1"?>
<!-- Generator: Adobe Illustrator 19.0.0, SVG Export Plug-In . SVG Version: 6.00 Build 0)  -->
<svg version="1.1" id="Capa_1" xmlns="http://www.w3.org/2000/svg" xmlns:xlink="http://www.w3.org/1999/xlink" x="0px" y="0px"
	 viewBox="0 0 512 512" style="enable-background:new 0 0 512 512;" xml:space="preserve">
<linearGradient id="SVGID_1_" gradientUnits="userSpaceOnUse" x1="-330.6444" y1="271.3825" x2="-330.6444" y2="272.3825" gradientTransform="matrix(512.002 0 0 307.2 169546.5781 -83267.3203)">
	<stop  offset="0" style="stop-color:#1AD6FD"/>
	<stop  offset="1" style="stop-color:#1D67F0"/>
</linearGradient>
<path style="fill:url(#SVGID_1_);" d="M506.798,124.211c3.215,1.823,5.202,5.222,5.202,8.909v245.76
	c0,3.686-1.987,7.086-5.202,8.909c-1.556,0.901-3.297,1.331-5.038,1.331c-1.823,0-3.645-0.492-5.284-1.454l-122.88-73.728
	c-3.072-1.864-4.956-5.181-4.956-8.786v-98.304c0-3.604,1.884-6.922,4.956-8.786l122.88-73.728
	C499.651,122.45,503.603,122.388,506.798,124.211z M317.44,102.4c16.937,0,30.72,13.783,30.72,30.72v245.76
	c0,16.937-13.783,30.72-30.72,30.72H30.72C13.783,409.6,0,395.817,0,378.88V133.12c0-16.937,13.783-30.72,30.72-30.72H317.44z
	 M266.24,204.8c11.284,0,20.48-9.196,20.48-20.48s-9.196-20.48-20.48-20.48c-11.284,0-20.48,9.196-20.48,20.48
	S254.956,204.8,266.24,204.8z"/>
<g>
</g>
<g>
</g>
<g>
</g>
<g>
</g>
<g>
</g>
<g>
</g>
<g>
</g>
<g>
</g>
<g>
</g>
<g>
</g>
<g>
</g>
<g>
</g>
<g>
</g>
<g>
</g>
<g>
</g>
</svg>
