<?xml version="1.0" encoding="iso-8859-1"?>
<!-- Generator: Adobe Illustrator 19.0.0, SVG Export Plug-In . SVG Version: 6.00 Build 0)  -->
<svg version="1.1" id="Capa_1" xmlns="http://www.w3.org/2000/svg" xmlns:xlink="http://www.w3.org/1999/xlink" x="0px" y="0px"
	 viewBox="0 0 512 512" style="enable-background:new 0 0 512 512;" xml:space="preserve">
<linearGradient id="SVGID_1_" gradientUnits="userSpaceOnUse" x1="-34.1074" y1="646.2129" x2="-34.1074" y2="621.2129" gradientTransform="matrix(20.48 0 0 -20.48 954.52 13234.4395)">
	<stop  offset="0" style="stop-color:#1AD6FD"/>
	<stop  offset="1" style="stop-color:#1D67F0"/>
</linearGradient>
<path style="fill:url(#SVGID_1_);" d="M366.1,180.818l-143.36,163.84c-1.864,2.13-4.526,3.4-7.352,3.502h-0.348
	c-2.724,0-5.325-1.085-7.229-3.011l-61.44-61.44c-4.014-3.994-4.014-10.465,0-14.479c3.994-3.994,10.465-3.994,14.479,0
	l53.699,53.699L350.7,167.342c3.727-4.26,10.199-4.669,14.438-0.963C369.398,170.107,369.848,176.558,366.1,180.818 M512,256
	c0-19.62-11.325-36.844-27.75-45.404c11.919-14.193,15.77-34.447,8.274-52.552c-7.496-18.125-24.535-29.716-43.028-31.334
	c5.591-17.674,1.413-37.847-12.472-51.732c-13.885-13.865-34.038-18.104-51.733-12.472c-1.618-18.493-13.21-35.533-31.334-43.028
	c-18.125-7.475-38.359-3.645-52.552,8.274C292.844,11.325,275.62,0,256,0s-36.844,11.325-45.404,27.75
	c-14.193-11.919-34.427-15.77-52.552-8.274s-29.716,24.535-31.314,43.028c-17.736-5.632-37.888-1.393-51.753,12.472
	c-13.885,13.885-18.063,34.058-12.472,51.732c-18.493,1.618-35.533,13.21-43.028,31.334c-7.496,18.104-3.645,38.359,8.274,52.552
	C11.325,219.156,0,236.38,0,256s11.325,36.844,27.75,45.404c-11.919,14.193-15.77,34.427-8.274,52.552
	c7.496,18.125,24.535,29.696,43.049,31.314c-5.612,17.695-1.434,37.868,12.452,51.753c13.865,13.865,34.017,18.084,51.753,12.472
	c1.597,18.473,13.189,35.533,31.314,43.028c18.166,7.496,38.38,3.645,52.552-8.294C219.156,500.675,236.38,512,256,512
	s36.844-11.325,45.404-27.771c14.172,11.919,34.406,15.749,52.552,8.294c18.125-7.496,29.716-24.555,31.334-43.028
	c17.695,5.612,37.847,1.393,51.732-12.472c13.885-13.885,18.063-34.058,12.452-51.753c18.514-1.618,35.553-13.189,43.049-31.314
	c7.496-18.125,3.645-38.359-8.274-52.552C500.675,292.844,512,275.62,512,256"/>
<g>
</g>
<g>
</g>
<g>
</g>
<g>
</g>
<g>
</g>
<g>
</g>
<g>
</g>
<g>
</g>
<g>
</g>
<g>
</g>
<g>
</g>
<g>
</g>
<g>
</g>
<g>
</g>
<g>
</g>
</svg>
