<?xml version="1.0" encoding="iso-8859-1"?>
<!-- Generator: Adobe Illustrator 19.0.0, SVG Export Plug-In . SVG Version: 6.00 Build 0)  -->
<svg version="1.1" id="Capa_1" xmlns="http://www.w3.org/2000/svg" xmlns:xlink="http://www.w3.org/1999/xlink" x="0px" y="0px"
	 viewBox="0 0 512 512" style="enable-background:new 0 0 512 512;" xml:space="preserve">
<linearGradient id="SVGID_1_" gradientUnits="userSpaceOnUse" x1="-329.6843" y1="261.0047" x2="-329.6843" y2="261.9947" gradientTransform="matrix(512 0 0 471.0994 169054.3594 -122935.9219)">
	<stop  offset="0" style="stop-color:#FFDB4A"/>
	<stop  offset="1" style="stop-color:#FFBB01"/>
</linearGradient>
<path style="fill:url(#SVGID_1_);" d="M440.381,355.87c-31.621-10.834-49.5-18.493-49.5-49.684c0-15.524,8.847-29.471,17.408-42.967
	c7.741-12.206,15.032-23.736,15.032-35.983c0-8.847-1.536-14.746-2.765-19.476c-1.741-6.676-2.54-9.708,3.072-20.541
	c9.564-18.575,8.97-60.969-6.144-85.791c-7.967-13.066-17.674-17.674-25.682-18.924c-16.753-18.534-36.7-24.637-60.867-18.596
	c-2.765,0.696-5.161,2.54-6.513,5.059c-1.372,2.519-1.618,5.53-0.676,8.253c11.878,34.263,11.653,78.438-0.512,102.707
	c-1.126,2.294-1.864,3.932-2.294,5.018c-0.778,2.007-0.512,5.652,0,7.701c1.618,6.41,3.809,15.155,3.809,28.18
	c0,20.029-10.404,36.987-20.5,53.391c-8.847,14.357-18.002,29.204-18.002,43.11c0,24.678,8.806,30.29,46.51,43.602
	c31.007,10.936,77.844,27.484,92.529,82.084c1.188,4.485,5.243,7.578,9.871,7.578h66.601c5.652,0,10.24-4.588,10.24-10.24
	C512,380.426,472.31,366.806,440.381,355.87 M409.6,481.31c0,5.652-4.588,10.24-10.24,10.24H10.24C4.588,491.55,0,486.963,0,481.31
	c0-71.537,46.387-87.921,83.661-101.089c33.628-11.858,60.191-21.238,60.191-62.894c0-19.702-10.711-37.048-21.053-53.842
	c-8.991-14.623-17.49-28.406-17.49-42.66c0-10.465,1.782-17.51,3.215-23.183c2.15-8.52,3.236-12.8-3.85-26.87
	c-16.835-33.649,4.28-100.188,52.961-129.925c47.104-28.795,82.289-27.156,110.264,5.263c8.97,1.27,20.009,6.349,29.164,21.176
	c17.736,28.733,19.169,80.916,7.864,103.465c-7.086,14.09-6.001,18.371-3.85,26.89c1.454,5.673,3.215,12.718,3.215,23.183
	c0,14.254-8.499,28.037-17.49,42.66c-10.342,16.794-21.033,34.14-21.033,53.842c0,41.656,26.563,51.036,60.17,62.894
	C363.213,393.389,409.6,409.773,409.6,481.31"/>
<g>
</g>
<g>
</g>
<g>
</g>
<g>
</g>
<g>
</g>
<g>
</g>
<g>
</g>
<g>
</g>
<g>
</g>
<g>
</g>
<g>
</g>
<g>
</g>
<g>
</g>
<g>
</g>
<g>
</g>
</svg>
