<?xml version="1.0" encoding="iso-8859-1"?>
<!-- Generator: Adobe Illustrator 19.0.0, SVG Export Plug-In . SVG Version: 6.00 Build 0)  -->
<svg version="1.1" id="Capa_1" xmlns="http://www.w3.org/2000/svg" xmlns:xlink="http://www.w3.org/1999/xlink" x="0px" y="0px"
	 viewBox="0 0 512 512" style="enable-background:new 0 0 512 512;" xml:space="preserve">
<linearGradient id="SVGID_1_" gradientUnits="userSpaceOnUse" x1="-34.1074" y1="646.2129" x2="-34.1074" y2="621.2129" gradientTransform="matrix(20.48 0 0 -20.48 954.52 13234.4395)">
	<stop  offset="0" style="stop-color:#85FC6D"/>
	<stop  offset="1" style="stop-color:#0AD31A"/>
</linearGradient>
<path style="fill:url(#SVGID_1_);" d="M256,491.52c-58.532,0-112.067-21.627-153.293-57.098
	c10.486-5.222,21.422-9.441,32.215-13.271c33.546-11.837,60.047-21.197,60.047-62.935c0-19.702-10.691-37.048-21.033-53.842
	c-8.991-14.602-17.469-28.365-17.469-42.619c0-10.486,1.802-17.531,3.256-23.204c2.171-8.479,3.256-12.759-3.83-26.89
	c-16.855-33.485,4.26-99.983,52.961-129.843c47.084-28.836,82.227-27.218,110.223,5.202c8.97,1.29,20.009,6.39,29.164,21.238
	c17.756,28.815,19.149,80.957,7.844,103.424c-7.066,14.111-5.98,18.391-3.809,26.87c1.454,5.673,3.256,12.718,3.256,23.204
	c0,14.254-8.479,28.017-17.469,42.619c-10.342,16.794-21.033,34.14-21.033,53.842c0,41.738,26.501,51.098,60.047,62.935
	c10.793,3.83,21.729,8.049,32.215,13.271C368.067,469.893,314.532,491.52,256,491.52 M256,0C114.831,0,0,114.831,0,256
	s114.831,256,256,256s256-114.831,256-256S397.169,0,256,0"/>
<g>
</g>
<g>
</g>
<g>
</g>
<g>
</g>
<g>
</g>
<g>
</g>
<g>
</g>
<g>
</g>
<g>
</g>
<g>
</g>
<g>
</g>
<g>
</g>
<g>
</g>
<g>
</g>
<g>
</g>
</svg>
