<?xml version="1.0" encoding="iso-8859-1"?>
<!-- Generator: Adobe Illustrator 19.0.0, SVG Export Plug-In . SVG Version: 6.00 Build 0)  -->
<svg version="1.1" id="Capa_1" xmlns="http://www.w3.org/2000/svg" xmlns:xlink="http://www.w3.org/1999/xlink" x="0px" y="0px"
	 viewBox="0 0 512 512" style="enable-background:new 0 0 512 512;" xml:space="preserve">
<linearGradient id="SVGID_1_" gradientUnits="userSpaceOnUse" x1="-34.1074" y1="646.2129" x2="-34.1074" y2="621.2129" gradientTransform="matrix(20.48 0 0 -20.48 954.52 13234.4395)">
	<stop  offset="0" style="stop-color:#5CEECA"/>
	<stop  offset="1" style="stop-color:#64CCFA"/>
</linearGradient>
<path style="fill:url(#SVGID_1_);" d="M377.078,421.151c10.793,3.83,21.729,8.049,32.215,13.251
	C368.067,469.893,314.532,491.52,256,491.52c-58.552,0-112.067-21.627-153.293-57.119c10.486-5.202,21.402-9.421,32.215-13.251
	c31.642-11.182,57.016-20.132,59.802-56.177c-50.442-5.898-83.825-16.835-85.299-17.326c-3.133-1.044-5.55-3.523-6.554-6.636
	c-0.983-3.133-0.389-6.554,1.556-9.195c0.287-0.389,28.692-39.526,28.692-106.516c0-102.605,45.937-163.84,122.88-163.84
	s122.88,61.235,122.88,163.84c0,66.99,28.406,106.127,28.692,106.516c1.946,2.642,2.519,6.062,1.536,9.195
	c-0.983,3.113-3.42,5.591-6.533,6.636c-1.475,0.492-34.857,11.428-85.299,17.326C320.061,401.019,345.436,409.969,377.078,421.151
	 M256,0C114.831,0,0,114.831,0,256c0,141.148,114.831,256,256,256c141.148,0,256-114.852,256-256C512,114.831,397.148,0,256,0"/>
<g>
</g>
<g>
</g>
<g>
</g>
<g>
</g>
<g>
</g>
<g>
</g>
<g>
</g>
<g>
</g>
<g>
</g>
<g>
</g>
<g>
</g>
<g>
</g>
<g>
</g>
<g>
</g>
<g>
</g>
</svg>
