<?xml version="1.0" encoding="iso-8859-1"?>
<!-- Generator: Adobe Illustrator 19.0.0, SVG Export Plug-In . SVG Version: 6.00 Build 0)  -->
<svg version="1.1" id="Capa_1" xmlns="http://www.w3.org/2000/svg" xmlns:xlink="http://www.w3.org/1999/xlink" x="0px" y="0px"
	 viewBox="0 0 512 512" style="enable-background:new 0 0 512 512;" xml:space="preserve">
<linearGradient id="SVGID_1_" gradientUnits="userSpaceOnUse" x1="-327.3384" y1="260.6315" x2="-327.3384" y2="261.6315" gradientTransform="matrix(430.08 0 0 512 141037.7188 -133443.3125)">
	<stop  offset="0" style="stop-color:#85FC6D"/>
	<stop  offset="1" style="stop-color:#0AD31A"/>
</linearGradient>
<path style="fill:url(#SVGID_1_);" d="M275.948,371.343c-1.372,9.953-9.605,17.777-19.948,17.777s-18.555-7.823-19.927-17.777
	c-6.554-5.632-10.793-13.885-10.793-23.183c0-16.937,13.783-30.72,30.72-30.72c16.957,0,30.72,13.783,30.72,30.72
	C286.72,357.458,282.481,365.711,275.948,371.343 M440.32,204.8h-51.2v-71.68c0-35.267-13.844-68.649-39.076-94.106
	C324.669,13.844,291.267,0,256,0c-73.4,0-133.12,59.72-133.12,133.12c0,5.673,4.588,10.24,10.24,10.24
	c5.673,0,10.24-4.567,10.24-10.24c0-62.116,50.545-112.64,112.64-112.64c29.819,0,58.102,11.756,79.565,33.014
	c21.34,21.524,33.075,49.807,33.075,79.626v71.68H71.68c-16.937,0-30.72,13.783-30.72,30.72v245.76
	c0,16.937,13.783,30.72,30.72,30.72h368.64c16.957,0,30.72-13.783,30.72-30.72V235.52C471.04,218.583,457.277,204.8,440.32,204.8"/>
<g>
</g>
<g>
</g>
<g>
</g>
<g>
</g>
<g>
</g>
<g>
</g>
<g>
</g>
<g>
</g>
<g>
</g>
<g>
</g>
<g>
</g>
<g>
</g>
<g>
</g>
<g>
</g>
<g>
</g>
</svg>
