<?xml version="1.0" encoding="iso-8859-1"?>
<!-- Generator: Adobe Illustrator 19.0.0, SVG Export Plug-In . SVG Version: 6.00 Build 0)  -->
<svg version="1.1" id="Capa_1" xmlns="http://www.w3.org/2000/svg" xmlns:xlink="http://www.w3.org/1999/xlink" x="0px" y="0px"
	 viewBox="0 0 512 512" style="enable-background:new 0 0 512 512;" xml:space="preserve">
<linearGradient id="SVGID_1_" gradientUnits="userSpaceOnUse" x1="-330.6443" y1="265.7272" x2="-330.6443" y2="266.7272" gradientTransform="matrix(512 0 0 389.1282 169545.875 -103339.7969)">
	<stop  offset="0" style="stop-color:#FFDB4A"/>
	<stop  offset="1" style="stop-color:#FFBB01"/>
</linearGradient>
<path style="fill:url(#SVGID_1_);" d="M378.88,430.08c5.652,0,10.24,4.588,10.24,10.24c0,5.652-4.588,10.24-10.24,10.24H133.12
	c-5.652,0-10.24-4.588-10.24-10.24c0-5.652,4.588-10.24,10.24-10.24H378.88z M501.76,61.44c5.652,0,10.24,4.588,10.24,10.24v327.68
	c0,5.673-4.588,10.24-10.24,10.24H10.24C4.588,409.6,0,405.033,0,399.36V71.68c0-5.652,4.588-10.24,10.24-10.24H501.76z
	 M342.999,244.429c3.195-1.843,5.161-5.222,5.161-8.909c0-3.666-1.966-7.045-5.161-8.888l-143.36-81.92
	c-3.174-1.802-7.086-1.802-10.22,0.041c-3.154,1.843-5.1,5.202-5.1,8.847v163.84c0,3.666,1.946,7.025,5.1,8.868
	c1.577,0.922,3.359,1.372,5.14,1.372c1.761,0,3.502-0.43,5.079-1.331L342.999,244.429z M204.8,299.807V171.254l112.476,64.266
	L204.8,299.807z"/>
<g>
</g>
<g>
</g>
<g>
</g>
<g>
</g>
<g>
</g>
<g>
</g>
<g>
</g>
<g>
</g>
<g>
</g>
<g>
</g>
<g>
</g>
<g>
</g>
<g>
</g>
<g>
</g>
<g>
</g>
</svg>
