<?xml version="1.0" encoding="iso-8859-1"?>
<!-- Generator: Adobe Illustrator 19.0.0, SVG Export Plug-In . SVG Version: 6.00 Build 0)  -->
<svg version="1.1" id="Capa_1" xmlns="http://www.w3.org/2000/svg" xmlns:xlink="http://www.w3.org/1999/xlink" x="0px" y="0px"
	 viewBox="0 0 512 512" style="enable-background:new 0 0 512 512;" xml:space="preserve">
<linearGradient id="SVGID_1_" gradientUnits="userSpaceOnUse" x1="-328.2908" y1="260.6515" x2="-328.2908" y2="261.6015" gradientTransform="matrix(430.08 0 0 512 141447.3125 -133443.3125)">
	<stop  offset="0" style="stop-color:#FF9400"/>
	<stop  offset="1" style="stop-color:#FF5F39"/>
</linearGradient>
<path style="fill:url(#SVGID_1_);" d="M327.66,440.996c-0.369,5.407-4.854,9.564-10.199,9.564c-0.246,0-0.471-0.02-0.696-0.02
	c-5.652-0.389-9.933-5.263-9.544-10.895l20.48-307.2c0.389-5.673,5.325-9.687,10.895-9.544c5.652,0.369,9.933,5.263,9.544,10.895
	L327.66,440.996z M266.24,440.32c0,5.652-4.588,10.24-10.24,10.24c-5.652,0-10.24-4.588-10.24-10.24v-307.2
	c0-5.673,4.588-10.24,10.24-10.24c5.652,0,10.24,4.567,10.24,10.24V440.32z M194.54,450.56c-5.345,0-9.83-4.157-10.199-9.564
	l-20.48-307.2c-0.389-5.632,3.891-10.527,9.544-10.895c5.734-0.102,10.506,3.891,10.895,9.544l20.48,307.2
	c0.389,5.632-3.891,10.506-9.544,10.895C194.99,450.54,194.785,450.56,194.54,450.56z M184.32,30.72
	c0-5.652,4.608-10.24,10.24-10.24h122.88c5.632,0,10.24,4.588,10.24,10.24v30.72H184.32V30.72z M419.84,61.44h-71.68V30.72
	C348.16,13.783,334.377,0,317.44,0H194.56c-16.937,0-30.72,13.783-30.72,30.72v30.72H92.16H51.2c-5.652,0-10.24,4.567-10.24,10.24
	c0,5.652,4.588,10.24,10.24,10.24h31.642l36.536,383.734c2.54,26.419,24.453,46.346,50.975,46.346h171.295
	c26.522,0,48.435-19.927,50.975-46.346L429.158,81.92H460.8c5.652,0,10.24-4.588,10.24-10.24c0-5.673-4.588-10.24-10.24-10.24
	H419.84z"/>
<g>
</g>
<g>
</g>
<g>
</g>
<g>
</g>
<g>
</g>
<g>
</g>
<g>
</g>
<g>
</g>
<g>
</g>
<g>
</g>
<g>
</g>
<g>
</g>
<g>
</g>
<g>
</g>
<g>
</g>
</svg>
