<?xml version="1.0" encoding="iso-8859-1"?>
<!-- Generator: Adobe Illustrator 19.0.0, SVG Export Plug-In . SVG Version: 6.00 Build 0)  -->
<svg version="1.1" id="Capa_1" xmlns="http://www.w3.org/2000/svg" xmlns:xlink="http://www.w3.org/1999/xlink" x="0px" y="0px"
	 viewBox="0 0 512 512" style="enable-background:new 0 0 512 512;" xml:space="preserve">
<linearGradient id="SVGID_1_" gradientUnits="userSpaceOnUse" x1="-329.5699" y1="260.6315" x2="-329.5699" y2="261.6315" gradientTransform="matrix(471.04 0 0 512 155496.5938 -133443.3125)">
	<stop  offset="0" style="stop-color:#85FC6D"/>
	<stop  offset="1" style="stop-color:#0AD31A"/>
</linearGradient>
<path style="fill:url(#SVGID_1_);" d="M424.837,112.64c41.185,42.435,66.683,100.188,66.683,163.84
	C491.52,406.364,385.884,512,256,512S20.48,406.364,20.48,276.48c0-126.403,100.188-229.581,225.28-234.988V10.24
	C245.76,4.588,250.348,0,256,0c5.652,0,10.24,4.588,10.24,10.24v31.252c54.661,2.355,104.509,23.286,143.36,56.852V71.68
	c0-4.137,2.478-7.864,6.328-9.462c3.83-1.577,8.233-0.696,11.162,2.232l30.72,30.72c2.908,2.929,3.789,7.332,2.212,11.162
	c-1.577,3.83-5.325,6.308-9.462,6.308H424.837z M266.24,305.316c11.899-4.239,20.48-15.503,20.48-28.836
	c0-13.332-8.581-24.576-20.48-28.815V112.64c0-5.652-4.588-10.24-10.24-10.24c-5.652,0-10.24,4.588-10.24,10.24v135.025
	c-11.899,4.239-20.48,15.483-20.48,28.815c0,13.332,8.581,24.596,20.48,28.836v32.604c0,5.673,4.588,10.24,10.24,10.24
	c5.652,0,10.24-4.567,10.24-10.24V305.316z M256,266.24c5.632,0,10.24,4.588,10.24,10.24c0,5.652-4.608,10.24-10.24,10.24
	c-5.632,0-10.24-4.588-10.24-10.24C245.76,270.828,250.368,266.24,256,266.24z"/>
<g>
</g>
<g>
</g>
<g>
</g>
<g>
</g>
<g>
</g>
<g>
</g>
<g>
</g>
<g>
</g>
<g>
</g>
<g>
</g>
<g>
</g>
<g>
</g>
<g>
</g>
<g>
</g>
<g>
</g>
</svg>
