<?xml version="1.0" encoding="iso-8859-1"?>
<!-- Generator: Adobe Illustrator 19.0.0, SVG Export Plug-In . SVG Version: 6.00 Build 0)  -->
<svg version="1.1" id="Capa_1" xmlns="http://www.w3.org/2000/svg" xmlns:xlink="http://www.w3.org/1999/xlink" x="0px" y="0px"
	 viewBox="0 0 512.01 512.01" style="enable-background:new 0 0 512.01 512.01;" xml:space="preserve">
<linearGradient id="SVGID_1_" gradientUnits="userSpaceOnUse" x1="-330.6469" y1="262.0602" x2="-330.6469" y2="263.0402" gradientTransform="matrix(512.0103 0 0 470.927 169550.6094 -123379.0703)">
	<stop  offset="0" style="stop-color:#C544FC"/>
	<stop  offset="1" style="stop-color:#5B56D7"/>
</linearGradient>
<path style="fill:url(#SVGID_1_);" d="M492.221,356.169c10.565,13.329,12.019,31.962,6.061,46.438
	c-4.177,10.115-12.346,18.96-23.608,22.912c6.491,10.401,8.743,22.502,5.713,34.275c-4.975,19.247-22.789,31.675-45.373,31.675
	H174.141c-3.788,0-7.064-0.553-10.34-1.085V233.728c4.812-4.218,9.275-9.152,12.94-15.582l1.802-3.174
	c13.125-23.034,31.102-54.607,56.614-73.587c22.85-16.994,44.267-35.893,46.438-58.702c1.884-19.758,9.603-44.902,25.614-56.245
	c7.842-5.508,16.831-7.187,26.065-4.914c26.781,6.716,45.475,34.296,45.475,67.035c0,26.577-3.194,56.859-26.986,79.914
	c-15.766,15.295-19.902,29.423-17.813,34.562c0.205,0.573,0.655,1.638,3.87,1.638h113.186c28.501,0,47.236,21.622,50.389,41.994
	c1.679,10.77-0.696,23.342-10.176,32.965c12.51,8.19,20.188,21.13,20.762,36.405C512.553,332.316,504.895,347.119,492.221,356.169
	 M81.9,419.683c0,5.631-4.607,10.238-10.238,10.238c-5.631,0-10.238-4.607-10.238-10.238c0-5.651,4.607-10.238,10.238-10.238
	C77.293,409.445,81.9,414.032,81.9,419.683 M71.663,450.396c-16.933,0-30.713-13.78-30.713-30.713
	c0-16.953,13.78-30.713,30.713-30.713s30.713,13.759,30.713,30.713C102.375,436.616,88.596,450.396,71.663,450.396 M112.613,225.17
	h-81.9C13.78,225.17,0,238.929,0,255.882v204.751c0,16.933,13.78,30.713,30.713,30.713h81.9c16.933,0,30.713-13.78,30.713-30.713
	V255.882C143.326,238.929,129.546,225.17,112.613,225.17"/>
<g>
</g>
<g>
</g>
<g>
</g>
<g>
</g>
<g>
</g>
<g>
</g>
<g>
</g>
<g>
</g>
<g>
</g>
<g>
</g>
<g>
</g>
<g>
</g>
<g>
</g>
<g>
</g>
<g>
</g>
</svg>
