<?xml version="1.0" encoding="iso-8859-1"?>
<!-- Generator: Adobe Illustrator 19.0.0, SVG Export Plug-In . SVG Version: 6.00 Build 0)  -->
<svg version="1.1" id="Capa_1" xmlns="http://www.w3.org/2000/svg" xmlns:xlink="http://www.w3.org/1999/xlink" x="0px" y="0px"
	 viewBox="0 0 512.01 512.01" style="enable-background:new 0 0 512.01 512.01;" xml:space="preserve">
<linearGradient id="SVGID_1_" gradientUnits="userSpaceOnUse" x1="-329.6776" y1="260.9897" x2="-329.6776" y2="261.9698" gradientTransform="matrix(512.0103 0 0 470.927 169054.2969 -122887.4531)">
	<stop  offset="0" style="stop-color:#EE4DB7"/>
	<stop  offset="1" style="stop-color:#C743F9"/>
</linearGradient>
<path style="fill:url(#SVGID_1_);" d="M19.789,155.84c-10.565-13.329-12.019-31.962-6.061-46.437
	c4.177-10.115,12.346-18.96,23.608-22.912c-6.491-10.401-8.743-22.502-5.713-34.275c4.975-19.247,22.789-31.675,45.373-31.675
	h260.873c3.788,0,7.064,0.553,10.34,1.085v256.635c-4.812,4.238-9.275,9.173-12.94,15.602l-1.802,3.174
	c-13.125,23.034-31.102,54.607-56.614,73.587c-22.85,16.994-44.267,35.893-46.438,58.702c-1.884,19.758-9.603,44.902-25.614,56.245
	c-7.842,5.508-16.831,7.187-26.065,4.914c-26.781-6.716-45.475-34.296-45.475-67.035c0-26.577,3.194-56.859,26.986-79.914
	c15.766-15.295,19.902-29.423,17.813-34.562c-0.205-0.573-0.655-1.638-3.87-1.638H61.005c-28.501,0-47.236-21.622-50.389-41.994
	c-1.679-10.77,0.696-23.342,10.176-32.965c-12.51-8.19-20.188-21.13-20.762-36.405C-0.543,179.694,7.114,164.89,19.789,155.84
	 M430.109,92.327c0-5.631,4.607-10.238,10.238-10.238s10.238,4.607,10.238,10.238c0,5.651-4.607,10.238-10.238,10.238
	S430.109,97.978,430.109,92.327 M440.347,61.614c16.933,0,30.713,13.78,30.713,30.713c0,16.953-13.78,30.713-30.713,30.713
	s-30.713-13.759-30.713-30.713C409.634,75.394,423.414,61.614,440.347,61.614 M399.397,286.84h81.9
	c16.933,0,30.713-13.759,30.713-30.713V51.377c0-16.933-13.78-30.713-30.713-30.713h-81.9c-16.933,0-30.713,13.78-30.713,30.713
	v204.751C368.684,273.081,382.464,286.84,399.397,286.84"/>
<g>
</g>
<g>
</g>
<g>
</g>
<g>
</g>
<g>
</g>
<g>
</g>
<g>
</g>
<g>
</g>
<g>
</g>
<g>
</g>
<g>
</g>
<g>
</g>
<g>
</g>
<g>
</g>
<g>
</g>
</svg>
