<?xml version="1.0" encoding="iso-8859-1"?>
<!-- Generator: Adobe Illustrator 19.0.0, SVG Export Plug-In . SVG Version: 6.00 Build 0)  -->
<svg version="1.1" id="Capa_1" xmlns="http://www.w3.org/2000/svg" xmlns:xlink="http://www.w3.org/1999/xlink" x="0px" y="0px"
	 viewBox="0 0 512 512" style="enable-background:new 0 0 512 512;" xml:space="preserve">
<linearGradient id="SVGID_1_" gradientUnits="userSpaceOnUse" x1="-329.6859" y1="260.6615" x2="-329.6859" y2="261.6315" gradientTransform="matrix(511.9959 0 0 512 169053.8281 -133443.3125)">
	<stop  offset="0" style="stop-color:#C544FC"/>
	<stop  offset="1" style="stop-color:#5B56D7"/>
</linearGradient>
<path style="fill:url(#SVGID_1_);" d="M450.557,102.4c0-22.589-18.371-40.96-40.96-40.96c-22.589,0-40.96,18.371-40.96,40.96
	s18.371,40.96,40.96,40.96C432.187,143.36,450.557,124.989,450.557,102.4 M511.997,30.72v196.444c0,8.192-3.195,15.913-8.97,21.729
	L248.891,503.009c-5.796,5.796-13.517,8.991-21.729,8.991s-15.933-3.195-21.729-8.991L8.988,306.565
	c-11.981-11.981-11.981-31.478,0-43.459L263.104,8.991C268.818,3.277,276.744,0,284.833,0h196.424
	C498.214,0,511.997,13.783,511.997,30.72 M430.077,102.4c0,11.284-9.175,20.48-20.48,20.48s-20.48-9.196-20.48-20.48
	s9.175-20.48,20.48-20.48S430.077,91.116,430.077,102.4"/>
<g>
</g>
<g>
</g>
<g>
</g>
<g>
</g>
<g>
</g>
<g>
</g>
<g>
</g>
<g>
</g>
<g>
</g>
<g>
</g>
<g>
</g>
<g>
</g>
<g>
</g>
<g>
</g>
<g>
</g>
</svg>
