<?xml version="1.0" encoding="iso-8859-1"?>
<!-- Generator: Adobe Illustrator 19.0.0, SVG Export Plug-In . SVG Version: 6.00 Build 0)  -->
<svg version="1.1" id="Capa_1" xmlns="http://www.w3.org/2000/svg" xmlns:xlink="http://www.w3.org/1999/xlink" x="0px" y="0px"
	 viewBox="0 0 512 512" style="enable-background:new 0 0 512 512;" xml:space="preserve">
<linearGradient id="SVGID_1_" gradientUnits="userSpaceOnUse" x1="-35.2988" y1="646.7559" x2="-35.2988" y2="623.7559" gradientTransform="matrix(22.2609 0 0 -22.2609 1041.7826 14397.3477)">
	<stop  offset="0" style="stop-color:#1AD6FD"/>
	<stop  offset="1" style="stop-color:#1D67F0"/>
</linearGradient>
<path style="fill:url(#SVGID_1_);" d="M367.304,133.565H11.13c-6.144,0-11.13,4.986-11.13,11.13V500.87
	C0,507.014,4.986,512,11.13,512h356.174c6.144,0,11.13-4.986,11.13-11.13V144.696C378.435,138.552,373.448,133.565,367.304,133.565
	 M512,11.13v356.174c0,6.144-4.986,11.13-11.13,11.13h-89.043c-6.144,0-11.13-4.986-11.13-11.13v-244.87
	c0-6.144-5.009-11.13-11.13-11.13h-244.87c-6.144,0-11.13-4.986-11.13-11.13V11.13c0-6.144,4.986-11.13,11.13-11.13H500.87
	C507.014,0,512,4.986,512,11.13"/>
<g>
</g>
<g>
</g>
<g>
</g>
<g>
</g>
<g>
</g>
<g>
</g>
<g>
</g>
<g>
</g>
<g>
</g>
<g>
</g>
<g>
</g>
<g>
</g>
<g>
</g>
<g>
</g>
<g>
</g>
</svg>
