<?xml version="1.0" encoding="iso-8859-1"?>
<!-- Generator: Adobe Illustrator 19.0.0, SVG Export Plug-In . SVG Version: 6.00 Build 0)  -->
<svg version="1.1" id="Capa_1" xmlns="http://www.w3.org/2000/svg" xmlns:xlink="http://www.w3.org/1999/xlink" x="0px" y="0px"
	 viewBox="0 0 512 512" style="enable-background:new 0 0 512 512;" xml:space="preserve">
<linearGradient id="SVGID_1_" gradientUnits="userSpaceOnUse" x1="-330.6443" y1="262.0342" x2="-330.6443" y2="263.0342" gradientTransform="matrix(512 0 0 471.04 169545.875 -123408.1172)">
	<stop  offset="0.029" style="stop-color:#FF5D3B"/>
	<stop  offset="1" style="stop-color:#FF2D67"/>
</linearGradient>
<path style="fill:url(#SVGID_1_);" d="M419.84,232.878c-23.962,16.712-57.958,16.712-81.92,0c-23.962,16.712-57.958,16.712-81.92,0
	c-23.962,16.712-57.958,16.712-81.92,0c-23.962,16.712-57.958,16.712-81.92,0c-11.981,8.356-26.235,12.882-40.96,12.882
	c-3.482,0-6.861-0.553-10.24-1.106V481.28c0,5.652,4.588,10.24,10.24,10.24h30.72V378.88c0-5.652,4.588-10.24,10.24-10.24h327.68
	c5.652,0,10.24,4.588,10.24,10.24v112.64h30.72c5.652,0,10.24-4.588,10.24-10.24V244.654c-3.379,0.553-6.758,1.106-10.24,1.106
	C446.075,245.76,431.821,241.234,419.84,232.878L419.84,232.878z M102.4,491.52h307.2v-102.4H102.4V491.52z M423.485,71.68H88.515
	C56.975,87.9,0,124.088,0,174.08c0,27.279,23.921,51.2,51.2,51.2c16.712,0,31.621-8.069,40.96-20.521
	c9.339,12.452,24.248,20.521,40.96,20.521s31.621-8.069,40.96-20.521c9.339,12.452,24.248,20.521,40.96,20.521
	s31.621-8.069,40.96-20.521c9.339,12.452,24.248,20.521,40.96,20.521s31.621-8.069,40.96-20.521
	c9.339,12.452,24.248,20.521,40.96,20.521c16.712,0,31.621-8.069,40.96-20.521c9.339,12.452,24.248,20.521,40.96,20.521
	c27.279,0,51.2-23.921,51.2-51.2C512,124.088,455.025,87.9,423.485,71.68L423.485,71.68z M409.6,51.2H102.4
	c0-16.937,13.783-30.72,30.72-30.72h245.76C395.817,20.48,409.6,34.263,409.6,51.2L409.6,51.2z"/>
<g>
</g>
<g>
</g>
<g>
</g>
<g>
</g>
<g>
</g>
<g>
</g>
<g>
</g>
<g>
</g>
<g>
</g>
<g>
</g>
<g>
</g>
<g>
</g>
<g>
</g>
<g>
</g>
<g>
</g>
</svg>
