<?xml version="1.0" encoding="iso-8859-1"?>
<!-- Generator: Adobe Illustrator 19.0.0, SVG Export Plug-In . SVG Version: 6.00 Build 0)  -->
<svg version="1.1" id="Capa_1" xmlns="http://www.w3.org/2000/svg" xmlns:xlink="http://www.w3.org/1999/xlink" x="0px" y="0px"
	 viewBox="0 0 511.997 511.997" style="enable-background:new 0 0 511.997 511.997;" xml:space="preserve">
<linearGradient id="SVGID_1_" gradientUnits="userSpaceOnUse" x1="-330.6521" y1="260.6301" x2="-330.6521" y2="261.6301" gradientTransform="matrix(511.9959 0 0 511.3856 169548.5156 -133283.9063)">
	<stop  offset="0.029" style="stop-color:#FF5D3B"/>
	<stop  offset="1" style="stop-color:#FF2D67"/>
</linearGradient>
<path style="fill:url(#SVGID_1_);" d="M511.439,190.892c-1.413-4.116-5.325-6.881-9.687-6.881H334.677L265.536,6.204
	c-3.031-7.864-16.036-7.864-19.067,0l-69.14,177.807H10.232c-4.362,0-8.253,2.765-9.667,6.881
	c-1.434,4.137-0.082,8.704,3.359,11.407l137.769,108.257l-59.29,187.802c-1.352,4.239,0.205,8.868,3.83,11.428
	c3.625,2.58,8.479,2.54,12.063-0.164l157.696-118.252l157.716,118.252c1.802,1.372,3.973,2.068,6.124,2.068
	c2.089,0,4.137-0.635,5.919-1.905c3.645-2.56,5.181-7.188,3.85-11.428l-59.31-187.802L508.081,202.3
	C511.521,199.596,512.853,195.029,511.439,190.892"/>
<g>
</g>
<g>
</g>
<g>
</g>
<g>
</g>
<g>
</g>
<g>
</g>
<g>
</g>
<g>
</g>
<g>
</g>
<g>
</g>
<g>
</g>
<g>
</g>
<g>
</g>
<g>
</g>
<g>
</g>
</svg>
