<?xml version="1.0" encoding="iso-8859-1"?>
<!-- Generator: Adobe Illustrator 19.0.0, SVG Export Plug-In . SVG Version: 6.00 Build 0)  -->
<svg version="1.1" id="Capa_1" xmlns="http://www.w3.org/2000/svg" xmlns:xlink="http://www.w3.org/1999/xlink" x="0px" y="0px"
	 viewBox="0 0 512 512" style="enable-background:new 0 0 512 512;" xml:space="preserve">
<linearGradient id="SVGID_1_" gradientUnits="userSpaceOnUse" x1="-35.2988" y1="646.7559" x2="-35.2988" y2="623.7559" gradientTransform="matrix(22.2609 0 0 -22.2609 1041.7826 14397.3477)">
	<stop  offset="0" style="stop-color:#5CEECA"/>
	<stop  offset="1" style="stop-color:#64CCFA"/>
</linearGradient>
<path style="fill:url(#SVGID_1_);" d="M100.174,44.522h311.652c6.144,0,11.13-4.986,11.13-11.13V11.13
	c0-6.144-4.986-11.13-11.13-11.13H100.174c-6.144,0-11.13,4.986-11.13,11.13v22.261C89.043,39.535,94.03,44.522,100.174,44.522
	 M55.652,111.304h400.696c6.144,0,11.13-4.986,11.13-11.13V77.913c0-6.144-4.986-11.13-11.13-11.13H55.652
	c-6.144,0-11.13,4.986-11.13,11.13v22.261C44.522,106.318,49.508,111.304,55.652,111.304 M512,144.696V500.87
	c0,6.144-4.986,11.13-11.13,11.13H11.13C4.986,512,0,507.014,0,500.87V144.696c0-6.144,4.986-11.13,11.13-11.13H500.87
	C507.014,133.565,512,138.552,512,144.696"/>
<g>
</g>
<g>
</g>
<g>
</g>
<g>
</g>
<g>
</g>
<g>
</g>
<g>
</g>
<g>
</g>
<g>
</g>
<g>
</g>
<g>
</g>
<g>
</g>
<g>
</g>
<g>
</g>
<g>
</g>
</svg>
