<?xml version="1.0" encoding="iso-8859-1"?>
<!-- Generator: Adobe Illustrator 19.0.0, SVG Export Plug-In . SVG Version: 6.00 Build 0)  -->
<svg version="1.1" id="Capa_1" xmlns="http://www.w3.org/2000/svg" xmlns:xlink="http://www.w3.org/1999/xlink" x="0px" y="0px"
	 viewBox="0 0 512 512" style="enable-background:new 0 0 512 512;" xml:space="preserve">
<linearGradient id="SVGID_1_" gradientUnits="userSpaceOnUse" x1="-327.3384" y1="260.6315" x2="-327.3384" y2="261.6315" gradientTransform="matrix(430.08 0 0 512 141037.7188 -133443.3125)">
	<stop  offset="0" style="stop-color:#85FC6D"/>
	<stop  offset="1" style="stop-color:#0AD31A"/>
</linearGradient>
<path style="fill:url(#SVGID_1_);" d="M225.28,409.6h61.44v92.16c0,5.652-4.588,10.24-10.24,10.24h-40.96
	c-5.652,0-10.24-4.588-10.24-10.24V409.6z M286.72,61.44h-61.44V30.72C225.28,13.783,239.063,0,256,0s30.72,13.783,30.72,30.72
	V61.44z M468.05,146.371c3.994,3.994,3.994,10.486,0,14.479l-61.44,61.44c-1.925,1.925-4.526,2.99-7.25,2.99h-71.68h-40.96h-61.44
	h-40.96H92.16c-5.652,0-10.24-4.588-10.24-10.24V92.16c0-5.673,4.588-10.24,10.24-10.24h92.16h40.96h61.44h40.96h71.68
	c2.724,0,5.325,1.065,7.25,2.99L468.05,146.371z M419.84,245.76c5.652,0,10.24,4.588,10.24,10.24v122.88
	c0,5.652-4.588,10.24-10.24,10.24h-92.16h-40.96h-61.44h-40.96h-71.68c-2.724,0-5.325-1.085-7.25-2.99l-61.44-61.44
	c-3.994-4.014-3.994-10.486,0-14.5l61.44-61.44c1.925-1.905,4.526-2.99,7.25-2.99h71.68h40.96h61.44h40.96H419.84z"/>
<g>
</g>
<g>
</g>
<g>
</g>
<g>
</g>
<g>
</g>
<g>
</g>
<g>
</g>
<g>
</g>
<g>
</g>
<g>
</g>
<g>
</g>
<g>
</g>
<g>
</g>
<g>
</g>
<g>
</g>
</svg>
