<?xml version="1.0" encoding="iso-8859-1"?>
<!-- Generator: Adobe Illustrator 19.0.0, SVG Export Plug-In . SVG Version: 6.00 Build 0)  -->
<svg version="1.1" id="Capa_1" xmlns="http://www.w3.org/2000/svg" xmlns:xlink="http://www.w3.org/1999/xlink" x="0px" y="0px"
	 viewBox="0 0 511.99 511.99" style="enable-background:new 0 0 511.99 511.99;" xml:space="preserve">
<linearGradient id="SVGID_1_" gradientUnits="userSpaceOnUse" x1="-330.6446" y1="263.7282" x2="-330.6446" y2="264.6982" gradientTransform="matrix(511.9959 0 0 430.0861 169544.6563 -113372.3438)">
	<stop  offset="0" style="stop-color:#C544FC"/>
	<stop  offset="1" style="stop-color:#5B56D7"/>
</linearGradient>
<path style="fill:url(#SVGID_1_);" d="M307.2,122.875v81.92h-62.648l-10.24-81.92H307.2z M400.568,122.875l-10.24,81.92H327.68
	v-81.92H400.568z M327.68,286.715v-61.44h60.088l-7.68,61.44H327.68z M408.392,225.275h85.361l-12.288,61.44h-80.753
	L408.392,225.275z M410.952,204.795l10.24-81.92h80.568c3.052,0,5.98,1.372,7.905,3.748c1.946,2.376,2.724,5.489,2.13,8.499
	l-13.947,69.673H410.952z M174.08,348.155c-4.813,0-8.991-3.379-10.015-8.11l-7.025-32.85h320.348l-6.554,32.727
	c-0.963,4.792-5.161,8.233-10.035,8.233H174.08z M307.2,286.715h-52.408l-7.68-61.44H307.2V286.715z M215.04,368.635
	c28.242,0,51.2,22.958,51.2,51.2s-22.958,51.2-51.2,51.2s-51.2-22.958-51.2-51.2S186.798,368.635,215.04,368.635z M419.84,368.635
	c28.242,0,51.2,22.958,51.2,51.2s-22.958,51.2-51.2,51.2s-51.2-22.958-51.2-51.2S391.598,368.635,419.84,368.635z M120.197,135.081
	l-15.831-73.646H10.24C4.567,61.435,0,56.868,0,51.195c0-5.652,4.567-10.24,10.24-10.24h102.4c4.813,0,8.991,3.359,10.015,8.09
	l15.892,73.83h75.121l10.24,81.92h-88.781L120.3,135.491C120.259,135.347,120.238,135.225,120.197,135.081z M152.637,286.715
	l-13.148-61.44h86.979l7.68,61.44H152.637z"/>
<g>
</g>
<g>
</g>
<g>
</g>
<g>
</g>
<g>
</g>
<g>
</g>
<g>
</g>
<g>
</g>
<g>
</g>
<g>
</g>
<g>
</g>
<g>
</g>
<g>
</g>
<g>
</g>
<g>
</g>
</svg>
