<?xml version="1.0" encoding="iso-8859-1"?>
<!-- Generator: Adobe Illustrator 19.0.0, SVG Export Plug-In . SVG Version: 6.00 Build 0)  -->
<svg version="1.1" id="Capa_1" xmlns="http://www.w3.org/2000/svg" xmlns:xlink="http://www.w3.org/1999/xlink" x="0px" y="0px"
	 viewBox="0 0 511.991 511.991" style="enable-background:new 0 0 511.991 511.991;" xml:space="preserve">
<linearGradient id="SVGID_1_" gradientUnits="userSpaceOnUse" x1="-329.691" y1="263.7115" x2="-329.691" y2="264.6915" gradientTransform="matrix(511.9918 0 0 430.0669 169055.125 -113372.6328)">
	<stop  offset="0" style="stop-color:#EE4DB7"/>
	<stop  offset="1" style="stop-color:#C743F9"/>
</linearGradient>
<path style="fill:url(#SVGID_1_);" d="M339.415,389.113h-73.172v81.917h59.431L339.415,389.113z M266.243,307.196v61.438h76.613
	l10.301-61.438H266.243z M360.202,389.113L346.46,471.03h73.377c4.403,0,8.315-2.826,9.707-7.004l24.985-74.913H360.202z
	 M370.339,204.8H266.243v81.917h90.354L370.339,204.8z M245.764,389.113h-73.172l13.721,81.917h59.451V389.113z M151.805,389.113
	H57.458l24.985,74.913c1.413,4.178,5.325,7.004,9.728,7.004h73.377L151.805,389.113z M23.34,286.717h111.284L120.882,204.8h-3.993
	L256.004,65.685L395.119,204.8h-4.014l-13.721,81.917h111.263l22.814-68.441c1.044-3.113,0.532-6.553-1.413-9.216
	c-1.925-2.683-4.997-4.26-8.294-4.26h-77.678L263.233,43.957c-3.993-3.993-10.465-3.993-14.479,0L87.931,204.8H10.253
	c-3.297,0-6.39,1.577-8.315,4.26c-1.925,2.662-2.458,6.103-1.413,9.216L23.34,286.717z M363.642,368.634h97.706l20.479-61.438
	H373.943L363.642,368.634z M138.064,307.196H30.159l20.479,61.438h97.727L138.064,307.196z M245.764,368.634v-61.438H158.85
	l10.301,61.438H245.764z M155.41,286.717L141.668,204.8h104.096v81.917H155.41z"/>
<g>
</g>
<g>
</g>
<g>
</g>
<g>
</g>
<g>
</g>
<g>
</g>
<g>
</g>
<g>
</g>
<g>
</g>
<g>
</g>
<g>
</g>
<g>
</g>
<g>
</g>
<g>
</g>
<g>
</g>
</svg>
