<?xml version="1.0" encoding="iso-8859-1"?>
<!-- Generator: Adobe Illustrator 19.0.0, SVG Export Plug-In . SVG Version: 6.00 Build 0)  -->
<svg version="1.1" id="Capa_1" xmlns="http://www.w3.org/2000/svg" xmlns:xlink="http://www.w3.org/1999/xlink" x="0px" y="0px"
	 viewBox="0 0 512 512" style="enable-background:new 0 0 512 512;" xml:space="preserve">
<linearGradient id="SVGID_1_" gradientUnits="userSpaceOnUse" x1="-327.3392" y1="260.6315" x2="-327.3392" y2="261.6315" gradientTransform="matrix(430.0861 0 0 512 141040.0625 -133443.3125)">
	<stop  offset="0" style="stop-color:#1AD6FD"/>
	<stop  offset="1" style="stop-color:#1D67F0"/>
</linearGradient>
<path style="fill:url(#SVGID_1_);" d="M184.32,92.16c0-39.526,32.154-71.68,71.68-71.68s71.68,32.154,71.68,71.68v30.72h20.48V92.16
	C348.16,41.349,306.811,0,256,0s-92.16,41.349-92.16,92.16v30.72h20.48V92.16z M174.08,225.28c5.632,0,10.24-4.608,10.24-10.24
	s-4.608-10.24-10.24-10.24s-10.24,4.608-10.24,10.24S168.448,225.28,174.08,225.28L174.08,225.28z M430.019,131.973
	c-0.573-5.181-4.956-9.093-10.179-9.093h-71.68v63.324c11.899,4.239,20.48,15.503,20.48,28.836c0,16.937-13.783,30.72-30.72,30.72
	c-16.937,0-30.72-13.783-30.72-30.72c0-13.332,8.581-24.596,20.48-28.836V122.88H184.32v63.324
	c11.899,4.239,20.48,15.503,20.48,28.836c0,16.937-13.783,30.72-30.72,30.72s-30.72-13.783-30.72-30.72
	c0-13.332,8.581-24.596,20.48-28.836V122.88H92.16c-5.222,0-9.605,3.912-10.179,9.093L46.572,450.56h418.857L430.019,131.973z
	 M467.702,471.04H44.298l-3.277,29.573c-0.328,2.908,0.594,5.816,2.54,7.967c1.966,2.171,4.71,3.42,7.639,3.42h409.6
	c2.929,0,5.673-1.249,7.639-3.42c1.946-2.15,2.867-5.059,2.54-7.967L467.702,471.04z M327.68,215.04
	c0-5.632,4.608-10.24,10.24-10.24c5.632,0,10.24,4.608,10.24,10.24s-4.608,10.24-10.24,10.24
	C332.288,225.28,327.68,220.672,327.68,215.04L327.68,215.04z"/>
<g>
</g>
<g>
</g>
<g>
</g>
<g>
</g>
<g>
</g>
<g>
</g>
<g>
</g>
<g>
</g>
<g>
</g>
<g>
</g>
<g>
</g>
<g>
</g>
<g>
</g>
<g>
</g>
<g>
</g>
</svg>
