<?xml version="1.0" encoding="iso-8859-1"?>
<!-- Generator: Adobe Illustrator 19.0.0, SVG Export Plug-In . SVG Version: 6.00 Build 0)  -->
<svg version="1.1" id="Capa_1" xmlns="http://www.w3.org/2000/svg" xmlns:xlink="http://www.w3.org/1999/xlink" x="0px" y="0px"
	 viewBox="0 0 512 512" style="enable-background:new 0 0 512 512;" xml:space="preserve">
<linearGradient id="SVGID_1_" gradientUnits="userSpaceOnUse" x1="-329.5592" y1="259.5908" x2="-329.5592" y2="260.5908" gradientTransform="matrix(471.0212 0 0 512 155485.375 -132910.5)">
	<stop  offset="0" style="stop-color:#FFDB4A"/>
	<stop  offset="1" style="stop-color:#FFBB01"/>
</linearGradient>
<path style="fill:url(#SVGID_1_);" d="M481.271,61.458c5.652,0,10.24,4.567,10.24,10.24v122.875
	C491.511,365.533,300.706,512,256,512c-44.727,0-235.511-146.467-235.511-317.427V71.698c0-5.673,4.587-10.24,10.24-10.24
	c118.431,0,219.004-59.39,220.008-59.984c3.236-1.966,7.291-1.966,10.526,0C262.287,2.068,362.86,61.458,481.271,61.458z
	 M364.294,223.428c3.666-2.56,5.222-7.209,3.871-11.468c-1.331-4.26-5.284-7.147-9.748-7.147h-64.571l-28.241-75.281
	c-3.01-8.007-16.158-8.007-19.169,0l-28.241,75.281h-64.571c-4.464,0-8.417,2.888-9.769,7.147c-1.331,4.26,0.225,8.908,3.891,11.468
	l53.594,37.518l-23.346,73.889c-1.331,4.239,0.205,8.867,3.85,11.448c3.625,2.56,8.478,2.498,12.062-0.164l62.113-46.59
	l62.113,46.59c1.823,1.372,3.973,2.048,6.144,2.048c2.068,0,4.137-0.614,5.918-1.884c3.645-2.58,5.181-7.209,3.83-11.448
	L310.7,260.946L364.294,223.428z M277.155,218.656c1.495,3.993,5.325,6.635,9.584,6.635h39.197l-33.135,23.203
	c-3.666,2.56-5.243,7.209-3.891,11.468l15.994,50.645l-42.74-32.07c-1.823-1.372-3.993-2.048-6.144-2.048
	c-2.171,0-4.321,0.676-6.144,2.048l-42.761,32.07l15.994-50.645c1.372-4.26-0.205-8.908-3.871-11.468l-33.135-23.203h39.197
	c4.26,0,8.069-2.642,9.584-6.635l21.135-56.359L277.155,218.656z"/>
<g>
</g>
<g>
</g>
<g>
</g>
<g>
</g>
<g>
</g>
<g>
</g>
<g>
</g>
<g>
</g>
<g>
</g>
<g>
</g>
<g>
</g>
<g>
</g>
<g>
</g>
<g>
</g>
<g>
</g>
</svg>
