<?xml version="1.0" encoding="iso-8859-1"?>
<!-- Generator: Adobe Illustrator 19.0.0, SVG Export Plug-In . SVG Version: 6.00 Build 0)  -->
<svg version="1.1" id="Capa_1" xmlns="http://www.w3.org/2000/svg" xmlns:xlink="http://www.w3.org/1999/xlink" x="0px" y="0px"
	 viewBox="0 0 511.99 511.99" style="enable-background:new 0 0 511.99 511.99;" xml:space="preserve">
<linearGradient id="SVGID_1_" gradientUnits="userSpaceOnUse" x1="-324.835" y1="261.6913" x2="-324.835" y2="262.6613" gradientTransform="matrix(348.16 0 0 511.9897 113350.5313 -133967.9844)">
	<stop  offset="0" style="stop-color:#C544FC"/>
	<stop  offset="1" style="stop-color:#5B56D7"/>
</linearGradient>
<path style="fill:url(#SVGID_1_);" d="M266.235,34.949l64.43,64.43c2.007,2.007,4.628,3.011,7.25,3.011
	c2.621,0,5.243-1.004,7.25-3.011c3.994-3.994,3.994-10.465,0-14.479L263.245,3c-0.942-0.942-2.089-1.72-3.338-2.232
	c-2.519-1.024-5.304-1.024-7.823,0c-1.249,0.512-2.396,1.29-3.338,2.232l-81.92,81.9c-3.994,4.014-3.994,10.486,0,14.479
	c4.014,4.014,10.486,4.014,14.5,0l64.43-64.43V163.83h20.48V34.949z M430.075,174.07v327.68c0,5.652-4.588,10.24-10.24,10.24H92.155
	c-5.652,0-10.24-4.608-10.24-10.24V174.07c0-5.652,4.588-10.24,10.24-10.24h153.6v194.56c0,5.652,4.588,10.24,10.24,10.24
	c5.652,0,10.24-4.588,10.24-10.24V163.83h153.6C425.487,163.809,430.075,168.417,430.075,174.07L430.075,174.07z"/>
<g>
</g>
<g>
</g>
<g>
</g>
<g>
</g>
<g>
</g>
<g>
</g>
<g>
</g>
<g>
</g>
<g>
</g>
<g>
</g>
<g>
</g>
<g>
</g>
<g>
</g>
<g>
</g>
<g>
</g>
</svg>
