<?xml version="1.0" encoding="iso-8859-1"?>
<!-- Generator: Adobe Illustrator 19.0.0, SVG Export Plug-In . SVG Version: 6.00 Build 0)  -->
<svg version="1.1" id="Capa_1" xmlns="http://www.w3.org/2000/svg" xmlns:xlink="http://www.w3.org/1999/xlink" x="0px" y="0px"
	 viewBox="0 0 512 512" style="enable-background:new 0 0 512 512;" xml:space="preserve">
<linearGradient id="SVGID_1_" gradientUnits="userSpaceOnUse" x1="-34.1074" y1="646.2129" x2="-34.1074" y2="621.2129" gradientTransform="matrix(20.48 0 0 -20.48 954.52 13234.4395)">
	<stop  offset="0.029" style="stop-color:#FF5D3B"/>
	<stop  offset="1" style="stop-color:#FF2D67"/>
</linearGradient>
<path style="fill:url(#SVGID_1_);" d="M194.56,348.16c-84.705,0-153.6-68.895-153.6-153.6s68.895-153.6,153.6-153.6
	s153.6,68.895,153.6,153.6S279.265,348.16,194.56,348.16 M499.999,442.081l-122.88-122.88c-6.861-6.861-15.585-10.609-24.535-11.571
	c22.897-31.908,36.536-70.881,36.536-113.07C389.12,87.286,301.834,0,194.56,0S0,87.286,0,194.56s87.286,194.56,194.56,194.56
	c42.189,0,81.162-13.64,113.07-36.536c0.983,9.236,4.895,17.859,11.571,24.535l122.88,122.88C449.823,507.74,460.104,512,471.04,512
	c10.936,0,21.217-4.26,28.959-12.001C507.74,492.278,512,481.976,512,471.04C512,460.104,507.74,449.802,499.999,442.081"/>
<g>
</g>
<g>
</g>
<g>
</g>
<g>
</g>
<g>
</g>
<g>
</g>
<g>
</g>
<g>
</g>
<g>
</g>
<g>
</g>
<g>
</g>
<g>
</g>
<g>
</g>
<g>
</g>
<g>
</g>
</svg>
