<?xml version="1.0" encoding="iso-8859-1"?>
<!-- Generator: Adobe Illustrator 19.0.0, SVG Export Plug-In . SVG Version: 6.00 Build 0)  -->
<svg version="1.1" id="Capa_1" xmlns="http://www.w3.org/2000/svg" xmlns:xlink="http://www.w3.org/1999/xlink" x="0px" y="0px"
	 viewBox="0 0 512 512" style="enable-background:new 0 0 512 512;" xml:space="preserve">
<linearGradient id="SVGID_1_" gradientUnits="userSpaceOnUse" x1="-330.5745" y1="263.0106" x2="-330.5745" y2="264.0106" gradientTransform="matrix(511.9933 0 0 512 169507.9531 -134661.4375)">
	<stop  offset="0.029" style="stop-color:#FF5D3B"/>
	<stop  offset="1" style="stop-color:#FF2D67"/>
</linearGradient>
<path style="fill:url(#SVGID_1_);" d="M508.753,487.446c2.827,2.827,3.896,6.945,2.849,10.797c-1.069,3.851-4.141,6.856-7.992,7.836
	c-1.202,0.312-14.425,3.562-33.503,3.562c-23.975,0-57.144-5.12-87.218-27.693c-19.078-14.314-51.757-42.518-105.962-89.266
	l-46.347-40.047c-2.337-2.003-3.718-4.897-3.829-7.992c-0.111-3.072,1.069-6.055,3.25-8.237l56.387-56.698
	c2.07-2.115,4.92-3.272,7.88-3.272s5.81,1.158,7.903,3.272L508.753,487.446z M100.177,77.913c12.266,0,22.261,9.973,22.261,22.261
	c0,12.266-9.995,22.261-22.261,22.261c-12.288,0-22.261-9.995-22.261-22.261C77.917,87.886,87.889,77.913,100.177,77.913
	L100.177,77.913z M96.504,234.451c2.115,1.892,4.764,2.827,7.413,2.827c2.671,0,5.32-0.935,7.413-2.827l3.762-3.384
	c21.816-19.612,43.676-38.89,64.979-57.389c2.337-2.026,3.695-4.897,3.829-7.992c0.089-2.738-0.824-5.387-2.538-7.502
	c12.31-16.985,18.989-37.22,18.989-58.012C200.351,44.922,155.407,0,100.177,0C44.926,0,0.003,44.922,0.003,100.174
	c0,26.802,10.552,52.113,29.718,71.302C55.478,197.209,73.064,213.459,96.504,234.451L96.504,234.451z M100.177,389.565
	c12.266,0,22.261,9.973,22.261,22.261c0,12.266-9.995,22.261-22.261,22.261c-12.288,0-22.261-9.995-22.261-22.261
	C77.917,399.538,87.889,389.565,100.177,389.565L100.177,389.565z M508.753,24.531c2.827-2.827,3.896-6.945,2.849-10.797
	c-1.069-3.851-4.141-6.856-7.992-7.836c-2.694-0.668-66.694-16.362-120.721,24.131c-21.437,16.095-84.057,69.432-186.079,158.542
	c-21.86,18.989-44.388,38.823-66.894,59.103l-18.054,16.117c-31.21,27.848-50.065,44.655-82.143,76.711
	c-19.167,19.189-29.718,44.499-29.718,71.324C0.003,467.055,44.926,512,100.177,512c55.229,0,100.174-44.945,100.174-100.174
	c0-20.792-6.678-41.027-18.966-58.012L508.753,24.531z"/>
<g>
</g>
<g>
</g>
<g>
</g>
<g>
</g>
<g>
</g>
<g>
</g>
<g>
</g>
<g>
</g>
<g>
</g>
<g>
</g>
<g>
</g>
<g>
</g>
<g>
</g>
<g>
</g>
<g>
</g>
</svg>
