<?xml version="1.0" encoding="iso-8859-1"?>
<!-- Generator: Adobe Illustrator 19.0.0, SVG Export Plug-In . SVG Version: 6.00 Build 0)  -->
<svg version="1.1" id="Capa_1" xmlns="http://www.w3.org/2000/svg" xmlns:xlink="http://www.w3.org/1999/xlink" x="0px" y="0px"
	 viewBox="0 0 512 512" style="enable-background:new 0 0 512 512;" xml:space="preserve">
<linearGradient id="SVGID_1_" gradientUnits="userSpaceOnUse" x1="-330.6443" y1="264.6847" x2="-330.6443" y2="265.6847" gradientTransform="matrix(512 0 0 389.1343 169545.875 -102934.4609)">
	<stop  offset="0" style="stop-color:#1AD6FD"/>
	<stop  offset="1" style="stop-color:#1D67F0"/>
</linearGradient>
<path style="fill:url(#SVGID_1_);" d="M266.24,185.741V71.688c0-3.891-2.191-7.434-5.652-9.175
	c-3.461-1.741-7.639-1.352-10.732,0.983L4.096,247.816C1.516,249.741,0,252.772,0,256.008c0,3.215,1.516,6.246,4.096,8.192
	l245.76,184.32c3.092,2.335,7.27,2.683,10.732,0.963c3.461-1.741,5.652-5.284,5.652-9.155V328.445
	c117.33,5.386,189.399,42.516,226.365,116.449c1.761,3.543,5.325,5.673,9.155,5.673c0.778,0,1.556-0.102,2.355-0.287
	c4.628-1.085,7.885-5.202,7.885-9.953C512,296.988,415.887,197.947,266.24,185.741"/>
<g>
</g>
<g>
</g>
<g>
</g>
<g>
</g>
<g>
</g>
<g>
</g>
<g>
</g>
<g>
</g>
<g>
</g>
<g>
</g>
<g>
</g>
<g>
</g>
<g>
</g>
<g>
</g>
<g>
</g>
</svg>
