<?xml version="1.0" encoding="iso-8859-1"?>
<!-- Generator: Adobe Illustrator 19.0.0, SVG Export Plug-In . SVG Version: 6.00 Build 0)  -->
<svg version="1.1" id="Capa_1" xmlns="http://www.w3.org/2000/svg" xmlns:xlink="http://www.w3.org/1999/xlink" x="0px" y="0px"
	 viewBox="0 0 512 512" style="enable-background:new 0 0 512 512;" xml:space="preserve">
<linearGradient id="SVGID_1_" gradientUnits="userSpaceOnUse" x1="-328.5433" y1="262.0111" x2="-328.5433" y2="262.9811" gradientTransform="matrix(438.8571 0 0 512 144439.5625 -134136.7188)">
	<stop  offset="0" style="stop-color:#C544FC"/>
	<stop  offset="1" style="stop-color:#5B56D7"/>
</linearGradient>
<path style="fill:url(#SVGID_1_);" d="M454.53,271.673c-11.557,0-20.898,9.362-20.898,20.898
	c0,97.949-79.684,177.633-177.633,177.633S78.367,390.52,78.367,292.571S158.051,114.938,256,114.938h10.449v62.694
	c0,3.866,2.132,7.398,5.517,9.216c1.546,0.815,3.239,1.233,4.932,1.233c2.027,0,4.033-0.585,5.789-1.755l125.388-83.592
	c2.905-1.944,4.66-5.204,4.66-8.694c0-3.49-1.755-6.75-4.66-8.694L282.687,1.755c-3.197-2.132-7.314-2.341-10.721-0.522
	c-3.385,1.818-5.517,5.35-5.517,9.216v62.694H256c-120.999,0-219.429,98.429-219.429,219.429S135.001,512,256,512
	s219.429-98.429,219.429-219.429C475.428,281.035,466.087,271.673,454.53,271.673"/>
<g>
</g>
<g>
</g>
<g>
</g>
<g>
</g>
<g>
</g>
<g>
</g>
<g>
</g>
<g>
</g>
<g>
</g>
<g>
</g>
<g>
</g>
<g>
</g>
<g>
</g>
<g>
</g>
<g>
</g>
</svg>
