<?xml version="1.0" encoding="iso-8859-1"?>
<!-- Generator: Adobe Illustrator 19.0.0, SVG Export Plug-In . SVG Version: 6.00 Build 0)  -->
<svg version="1.1" id="Capa_1" xmlns="http://www.w3.org/2000/svg" xmlns:xlink="http://www.w3.org/1999/xlink" x="0px" y="0px"
	 viewBox="0 0 512 512" style="enable-background:new 0 0 512 512;" xml:space="preserve">
<linearGradient id="SVGID_1_" gradientUnits="userSpaceOnUse" x1="-35.2988" y1="646.2739" x2="-35.2988" y2="624.4839" gradientTransform="matrix(22.2609 0 0 -22.2609 1041.7826 14397.3477)">
	<stop  offset="0" style="stop-color:#FF9400"/>
	<stop  offset="1" style="stop-color:#FF5F39"/>
</linearGradient>
<path style="fill:url(#SVGID_1_);" d="M378.435,133.565h89.043V44.522h-89.043V133.565z M500.87,0H345.043
	c-6.144,0-11.13,4.986-11.13,11.13v155.826c0,6.144,4.986,11.13,11.13,11.13H500.87c6.144,0,11.13-4.986,11.13-11.13V11.13
	C512,4.986,507.014,0,500.87,0L500.87,0z M44.522,467.478h89.043v-89.043H44.522V467.478z M166.957,333.913H11.13
	c-6.144,0-11.13,4.986-11.13,11.13V500.87C0,507.014,4.986,512,11.13,512h155.826c6.144,0,11.13-4.986,11.13-11.13V345.043
	C178.087,338.899,173.101,333.913,166.957,333.913L166.957,333.913z M512,411.826v44.522c0,6.144-4.986,11.13-11.13,11.13
	s-11.13-4.986-11.13-11.13v-11.13h-11.13c-6.144,0-11.13-4.986-11.13-11.13s4.986-11.13,11.13-11.13h11.13v-11.13
	c0-6.144,4.986-11.13,11.13-11.13S512,405.682,512,411.826L512,411.826z M233.739,356.174c6.144,0,11.13,4.986,11.13,11.13
	s-4.986,11.13-11.13,11.13h-22.261c-6.144,0-11.13-4.986-11.13-11.13s4.986-11.13,11.13-11.13H233.739z M356.174,322.783v11.13
	h33.391c6.144,0,11.13,4.986,11.13,11.13v44.522c0,6.144-4.986,11.13-11.13,11.13h-22.261c-6.144,0-11.13-4.986-11.13-11.13
	s4.986-11.13,11.13-11.13h11.13v-22.261h-33.391c-6.144,0-11.13-4.986-11.13-11.13v-11.13h-11.13c-6.144,0-11.13-4.986-11.13-11.13
	c0-6.144,4.986-11.13,11.13-11.13h22.261C351.188,311.652,356.174,316.639,356.174,322.783L356.174,322.783z M378.435,233.739
	v-11.13h-11.13c-6.144,0-11.13-4.986-11.13-11.13c0-6.144,4.986-11.13,11.13-11.13h22.261c6.144,0,11.13,4.986,11.13,11.13v22.261
	c0,6.144-4.986,11.13-11.13,11.13S378.435,239.883,378.435,233.739L378.435,233.739z M0,300.522v-22.261
	c0-6.144,4.986-11.13,11.13-11.13s11.13,4.986,11.13,11.13v22.261c0,6.144-4.986,11.13-11.13,11.13S0,306.666,0,300.522L0,300.522z
	 M0,233.739v-22.261c0-6.144,4.986-11.13,11.13-11.13h44.522c6.144,0,11.13,4.986,11.13,11.13c0,6.144-4.986,11.13-11.13,11.13
	H22.261v11.13c0,6.144-4.986,11.13-11.13,11.13S0,239.883,0,233.739L0,233.739z M89.043,211.478c0-6.144,4.986-11.13,11.13-11.13
	h22.261c6.144,0,11.13,4.986,11.13,11.13c0,6.144-4.986,11.13-11.13,11.13h-22.261C94.03,222.609,89.043,217.622,89.043,211.478
	L89.043,211.478z M166.957,200.348h33.391v-55.652V55.652c0-6.144,4.986-11.13,11.13-11.13c6.144,0,11.13,4.986,11.13,11.13v77.913
	h11.13c6.144,0,11.13,4.986,11.13,11.13c0,6.144-4.986,11.13-11.13,11.13h-11.13v55.652c0,6.144-4.986,11.13-11.13,11.13h-44.522
	c-6.144,0-11.13-4.986-11.13-11.13C155.826,205.334,160.813,200.348,166.957,200.348L166.957,200.348z M200.348,11.13
	c0-6.144,4.986-11.13,11.13-11.13h22.261c6.144,0,11.13,4.986,11.13,11.13s-4.986,11.13-11.13,11.13h-22.261
	C205.334,22.261,200.348,17.274,200.348,11.13L200.348,11.13z M244.87,55.652c0-6.144,4.986-11.13,11.13-11.13h11.13V11.13
	c0-6.144,4.986-11.13,11.13-11.13h22.261c6.144,0,11.13,4.986,11.13,11.13s-4.986,11.13-11.13,11.13h-11.13v33.391
	c0,6.144-4.986,11.13-11.13,11.13h-11.13v22.261h33.391c6.144,0,11.13,4.986,11.13,11.13v66.783c0,6.144-4.986,11.13-11.13,11.13
	c-6.144,0-11.13-4.986-11.13-11.13v-55.652H256c-6.144,0-11.13-4.986-11.13-11.13V55.652z M512,500.87
	c0,6.144-4.986,11.13-11.13,11.13h-22.261c-6.144,0-11.13-4.986-11.13-11.13s4.986-11.13,11.13-11.13h22.261
	C507.014,489.739,512,494.726,512,500.87L512,500.87z M512,300.522v66.783c0,6.144-4.986,11.13-11.13,11.13
	s-11.13-4.986-11.13-11.13v-66.783c0-6.144,4.986-11.13,11.13-11.13S512,294.378,512,300.522L512,300.522z M512,211.478V256
	c0,6.144-4.986,11.13-11.13,11.13s-11.13-4.986-11.13-11.13v-33.391h-11.13c-6.144,0-11.13-4.986-11.13-11.13
	c0-6.144,4.986-11.13,11.13-11.13h22.261C507.014,200.348,512,205.334,512,211.478L512,211.478z M445.217,211.478v33.391h11.13
	c6.144,0,11.13,4.986,11.13,11.13v22.261c0,6.144-4.986,11.13-11.13,11.13s-11.13-4.986-11.13-11.13v-11.13h-11.13
	c-6.144,0-11.13-4.986-11.13-11.13v-44.522c0-6.144,4.986-11.13,11.13-11.13S445.217,205.334,445.217,211.478L445.217,211.478z
	 M467.478,389.565c0,6.144-4.986,11.13-11.13,11.13s-11.13-4.986-11.13-11.13v-33.391h-11.13c-6.144,0-11.13-4.986-11.13-11.13
	v-33.391h-33.391c-6.144,0-11.13-4.986-11.13-11.13v-11.13h-55.652c-6.144,0-11.13-4.986-11.13-11.13
	c0-6.144,4.986-11.13,11.13-11.13h11.13v-33.391c0-6.144,4.986-11.13,11.13-11.13s11.13,4.986,11.13,11.13v33.391h33.391
	c6.144,0,11.13,4.986,11.13,11.13v11.13h33.391c6.144,0,11.13,4.986,11.13,11.13v33.391h11.13c6.144,0,11.13,4.986,11.13,11.13
	V389.565z M244.87,478.609c0,6.144-4.986,11.13-11.13,11.13h-11.13v11.13c0,6.144-4.986,11.13-11.13,11.13
	c-6.144,0-11.13-4.986-11.13-11.13v-89.043c0-6.144,4.986-11.13,11.13-11.13c6.144,0,11.13,4.986,11.13,11.13v55.652h11.13
	C239.883,467.478,244.87,472.465,244.87,478.609L244.87,478.609z M445.217,411.826v89.043c0,6.144-4.986,11.13-11.13,11.13
	s-11.13-4.986-11.13-11.13v-33.391h-11.13c-6.144,0-11.13-4.986-11.13-11.13s4.986-11.13,11.13-11.13h11.13v-33.391
	c0-6.144,4.986-11.13,11.13-11.13S445.217,405.682,445.217,411.826L445.217,411.826z M400.696,500.87
	c0,6.144-4.986,11.13-11.13,11.13H278.261c-6.144,0-11.13-4.986-11.13-11.13s4.986-11.13,11.13-11.13h55.652v-11.13
	c0-6.144,4.986-11.13,11.13-11.13s11.13,4.986,11.13,11.13v11.13h33.391C395.709,489.739,400.696,494.726,400.696,500.87
	L400.696,500.87z M267.13,445.217H256c-6.144,0-11.13-4.986-11.13-11.13v-22.261c0-6.144,4.986-11.13,11.13-11.13
	c6.144,0,11.13,4.986,11.13,11.13v11.13h44.522v-33.391c0-6.144,4.986-11.13,11.13-11.13c6.144,0,11.13,4.986,11.13,11.13v33.391
	h33.391c6.144,0,11.13,4.986,11.13,11.13s-4.986,11.13-11.13,11.13h-77.913v11.13c0,6.144-4.986,11.13-11.13,11.13
	c-6.144,0-11.13-4.986-11.13-11.13V445.217z M267.13,367.304v-33.391H256c-6.144,0-11.13-4.986-11.13-11.13v-11.13h-33.391
	c-6.144,0-11.13-4.986-11.13-11.13V267.13h-44.522v33.391c0,6.144-4.986,11.13-11.13,11.13h-44.522
	c-6.144,0-11.13-4.986-11.13-11.13c0-6.144,4.986-11.13,11.13-11.13h33.391V256c0-6.144,4.986-11.13,11.13-11.13h66.783
	c6.144,0,11.13,4.986,11.13,11.13v33.391H256c6.144,0,11.13,4.986,11.13,11.13v11.13h11.13c6.144,0,11.13,4.986,11.13,11.13v44.522
	c0,6.144-4.986,11.13-11.13,11.13C272.117,378.435,267.13,373.448,267.13,367.304L267.13,367.304z M89.043,256
	c0,6.144-4.986,11.13-11.13,11.13h-11.13v11.13c0,6.144-4.986,11.13-11.13,11.13s-11.13-4.986-11.13-11.13V256
	c0-6.144,4.986-11.13,11.13-11.13h22.261C84.057,244.87,89.043,249.856,89.043,256L89.043,256z M289.391,256
	c0,6.144-4.986,11.13-11.13,11.13c-6.144,0-11.13-4.986-11.13-11.13v-33.391H256c-6.144,0-11.13-4.986-11.13-11.13v-44.522
	c0-6.144,4.986-11.13,11.13-11.13c6.144,0,11.13,4.986,11.13,11.13v33.391h11.13h22.261c6.144,0,11.13,4.986,11.13,11.13
	c0,6.144-4.986,11.13-11.13,11.13h-11.13V256z M44.522,133.565h89.043V44.522H44.522V133.565z M11.13,178.087h155.826
	c6.144,0,11.13-4.986,11.13-11.13V11.13c0-6.144-4.986-11.13-11.13-11.13H11.13C4.986,0,0,4.986,0,11.13v155.826
	C0,173.101,4.986,178.087,11.13,178.087L11.13,178.087z"/>
<g>
</g>
<g>
</g>
<g>
</g>
<g>
</g>
<g>
</g>
<g>
</g>
<g>
</g>
<g>
</g>
<g>
</g>
<g>
</g>
<g>
</g>
<g>
</g>
<g>
</g>
<g>
</g>
<g>
</g>
</svg>
