<?xml version="1.0" encoding="iso-8859-1"?>
<!-- Generator: Adobe Illustrator 19.0.0, SVG Export Plug-In . SVG Version: 6.00 Build 0)  -->
<svg version="1.1" id="Capa_1" xmlns="http://www.w3.org/2000/svg" xmlns:xlink="http://www.w3.org/1999/xlink" x="0px" y="0px"
	 viewBox="0 0 512 512" style="enable-background:new 0 0 512 512;" xml:space="preserve">
<linearGradient id="SVGID_1_" gradientUnits="userSpaceOnUse" x1="-330.643" y1="262.0351" x2="-330.643" y2="263.0351" gradientTransform="matrix(512 0 0 470.9736 169545.2031 -123392.0156)">
	<stop  offset="0.029" style="stop-color:#FF5D3B"/>
	<stop  offset="1" style="stop-color:#FF2D67"/>
</linearGradient>
<path style="fill:url(#SVGID_1_);" d="M493.238,238.928c-9.627-9.258-21.445-14.133-34.431-13.662
	c-7.292,0.287-14.358,2.417-19.52,5.612c-4.486,1.762-8.951,3.892-13.416,6.001c-5.53,2.642-11.02,5.305-16.161,6.862
	l-0.061-110.687c0-5.653-4.588-10.241-10.241-10.241l-131.374,0.369c1.741-5.51,4.404-10.979,7.026-16.509
	c2.13-4.486,4.26-8.971,5.305-11.982c3.912-6.616,6.042-13.682,6.329-20.974c0.451-12.576-4.383-24.784-13.662-34.431
	c-11.511-11.921-28.88-18.762-47.724-18.762s-36.233,6.841-47.724,18.762c-9.279,9.647-14.133,21.855-13.662,34.431
	c0.287,7.292,2.417,14.358,5.612,19.52c1.762,4.465,3.912,8.951,6.022,13.437c2.622,5.53,5.284,10.999,6.821,16.14H10.241
	c-2.724,0-5.325,1.086-7.251,3.011C1.086,127.729,0,130.33,0,133.054l0.061,110.708c0,6.595,3.175,12.822,8.5,16.734
	c5.223,3.81,11.736,4.895,17.758,2.97c6.636-2.069,13.027-5.121,19.192-8.05c4.035-1.925,8.07-3.871,13.6-6.165
	c3.625-2.192,7.456-3.339,11.286-3.482c7.292-0.614,13.887,2.56,19.458,7.947c7.927,7.64,12.494,19.663,12.494,32.956
	c0,13.293-4.568,25.316-12.494,32.956c-5.571,5.387-11.962,8.5-19.458,7.947c-3.83-0.143-7.66-1.29-12.761-4.178
	c-4.056-1.598-8.111-3.543-12.146-5.489c-6.165-2.909-12.535-5.96-19.151-8.029c-6.145-1.946-12.556-0.84-17.799,2.97
	c-5.305,3.912-8.48,10.159-8.48,16.734L0,481.235c0,2.724,1.086,5.325,2.99,7.251c1.925,1.905,4.527,2.99,7.251,2.99h172.135
	c6.595,0,12.842-3.175,16.755-8.5c3.81-5.223,4.895-11.695,2.97-17.779c-2.069-6.616-5.121-12.986-8.029-19.151
	c-1.946-4.035-3.892-8.091-6.186-13.621c-2.192-3.625-3.339-7.456-3.482-11.286c-0.266-6.964,2.56-13.867,7.947-19.458
	c15.28-15.874,50.633-15.874,65.913,0c5.387,5.592,8.213,12.494,7.947,19.458c-0.143,3.83-1.29,7.66-4.178,12.761
	c-1.598,4.056-3.543,8.111-5.489,12.146c-2.909,6.165-5.96,12.535-8.029,19.151c-1.925,6.083-0.84,12.556,2.97,17.779
	c3.912,5.325,10.159,8.5,16.755,8.5h131.17c5.653,0,10.241-4.588,10.241-10.241l-0.328-151.857c5.53,1.741,11.02,4.404,16.55,7.046
	c4.465,2.11,8.93,4.24,11.962,5.305c6.616,3.892,13.682,6.022,20.974,6.309c12.72,0.614,24.804-4.383,34.431-13.662
	C505.159,322.885,512,305.496,512,286.652C512,267.829,505.159,250.439,493.238,238.928"/>
<g>
</g>
<g>
</g>
<g>
</g>
<g>
</g>
<g>
</g>
<g>
</g>
<g>
</g>
<g>
</g>
<g>
</g>
<g>
</g>
<g>
</g>
<g>
</g>
<g>
</g>
<g>
</g>
<g>
</g>
</svg>
