<?xml version="1.0" encoding="iso-8859-1"?>
<!-- Generator: Adobe Illustrator 19.0.0, SVG Export Plug-In . SVG Version: 6.00 Build 0)  -->
<svg version="1.1" id="Capa_1" xmlns="http://www.w3.org/2000/svg" xmlns:xlink="http://www.w3.org/1999/xlink" x="0px" y="0px"
	 viewBox="0 0 512 512" style="enable-background:new 0 0 512 512;" xml:space="preserve">
<linearGradient id="SVGID_1_" gradientUnits="userSpaceOnUse" x1="-36.4902" y1="646.8588" x2="-36.4902" y2="626.9638" gradientTransform="matrix(24.381 0 0 -24.381 1145.6667 15781.7617)">
	<stop  offset="0" style="stop-color:#FF9400"/>
	<stop  offset="1" style="stop-color:#FF5F39"/>
</linearGradient>
<path style="fill:url(#SVGID_1_);" d="M487.619,231.619H280.381V24.381C280.381,10.923,269.483,0,256,0
	c-13.483,0-24.381,10.923-24.381,24.381v207.238H24.381C10.898,231.619,0,242.542,0,256s10.898,24.381,24.381,24.381h207.238
	v207.238C231.619,501.077,242.517,512,256,512c13.483,0,24.381-10.923,24.381-24.381V280.381h207.238
	C501.102,280.381,512,269.458,512,256S501.102,231.619,487.619,231.619"/>
<g>
</g>
<g>
</g>
<g>
</g>
<g>
</g>
<g>
</g>
<g>
</g>
<g>
</g>
<g>
</g>
<g>
</g>
<g>
</g>
<g>
</g>
<g>
</g>
<g>
</g>
<g>
</g>
<g>
</g>
</svg>
