<?xml version="1.0" encoding="iso-8859-1"?>
<!-- Generator: Adobe Illustrator 19.0.0, SVG Export Plug-In . SVG Version: 6.00 Build 0)  -->
<svg version="1.1" id="Capa_1" xmlns="http://www.w3.org/2000/svg" xmlns:xlink="http://www.w3.org/1999/xlink" x="0px" y="0px"
	 viewBox="0 0 512 512" style="enable-background:new 0 0 512 512;" xml:space="preserve">
<linearGradient id="SVGID_1_" gradientUnits="userSpaceOnUse" x1="-326.7425" y1="260.6615" x2="-326.7425" y2="261.6315" gradientTransform="matrix(389.12 0 0 512 127398.0391 -133443.3125)">
	<stop  offset="0" style="stop-color:#C544FC"/>
	<stop  offset="1" style="stop-color:#5B56D7"/>
</linearGradient>
<path style="fill:url(#SVGID_1_);" d="M440.32,143.36c5.652,0,10.24,4.588,10.24,10.24s-4.588,10.24-10.24,10.24h-51.2v153.6
	c0,47.329-35.963,85.955-81.92,91.116v31.764c0,16.937-13.783,30.72-30.72,30.72h-10.24v30.72c0,5.652-4.588,10.24-10.24,10.24
	c-5.652,0-10.24-4.588-10.24-10.24v-30.72h-10.24c-16.937,0-30.72-13.783-30.72-30.72v-31.764
	c-45.957-5.161-81.92-43.786-81.92-91.116v-153.6h-51.2c-5.652,0-10.24-4.588-10.24-10.24s4.588-10.24,10.24-10.24h61.44h245.76
	H440.32z M348.16,30.72v92.16h-61.44V30.72C286.72,13.783,300.503,0,317.44,0S348.16,13.783,348.16,30.72z M225.28,30.72v92.16
	h-61.44V30.72C163.84,13.783,177.623,0,194.56,0S225.28,13.783,225.28,30.72z"/>
<g>
</g>
<g>
</g>
<g>
</g>
<g>
</g>
<g>
</g>
<g>
</g>
<g>
</g>
<g>
</g>
<g>
</g>
<g>
</g>
<g>
</g>
<g>
</g>
<g>
</g>
<g>
</g>
<g>
</g>
</svg>
