<?xml version="1.0" encoding="iso-8859-1"?>
<!-- Generator: Adobe Illustrator 19.0.0, SVG Export Plug-In . SVG Version: 6.00 Build 0)  -->
<svg version="1.1" id="Capa_1" xmlns="http://www.w3.org/2000/svg" xmlns:xlink="http://www.w3.org/1999/xlink" x="0px" y="0px"
	 viewBox="0 0 512 512" style="enable-background:new 0 0 512 512;" xml:space="preserve">
<linearGradient id="SVGID_1_" gradientUnits="userSpaceOnUse" x1="-35.2988" y1="646.7559" x2="-35.2988" y2="623.7559" gradientTransform="matrix(22.2609 0 0 -22.2609 1041.7826 14397.3477)">
	<stop  offset="0" style="stop-color:#85FC6D"/>
	<stop  offset="1" style="stop-color:#0AD31A"/>
</linearGradient>
<path style="fill:url(#SVGID_1_);" d="M115.467,293.576L0,409.066V33.391C0,14.982,14.982,0,33.391,0h445.217
	C497.018,0,512,14.982,512,33.391v329.305L397.446,248.12c-4.363-4.341-11.398-4.341-15.761,0L233.739,396.088L131.228,293.576
	C127.043,289.391,119.652,289.391,115.467,293.576z M178.087,66.783c-36.819,0-66.783,29.963-66.783,66.783
	s29.963,66.783,66.783,66.783s66.783-29.963,66.783-66.783S214.906,66.783,178.087,66.783z M178.087,178.087
	c-24.576,0-44.522-19.968-44.522-44.522s19.946-44.522,44.522-44.522s44.522,19.968,44.522,44.522S202.663,178.087,178.087,178.087z
	 M389.565,271.738L512,394.173v84.435c0,18.41-14.982,33.391-33.391,33.391H33.391C14.982,512,0,497.018,0,478.609v-38.066
	l123.347-123.347l102.511,102.489c4.363,4.363,11.398,4.363,15.761,0L389.565,271.738z"/>
<g>
</g>
<g>
</g>
<g>
</g>
<g>
</g>
<g>
</g>
<g>
</g>
<g>
</g>
<g>
</g>
<g>
</g>
<g>
</g>
<g>
</g>
<g>
</g>
<g>
</g>
<g>
</g>
<g>
</g>
</svg>
