<?xml version="1.0" encoding="iso-8859-1"?>
<!-- Generator: Adobe Illustrator 19.0.0, SVG Export Plug-In . SVG Version: 6.00 Build 0)  -->
<svg version="1.1" id="Capa_1" xmlns="http://www.w3.org/2000/svg" xmlns:xlink="http://www.w3.org/1999/xlink" x="0px" y="0px"
	 viewBox="0 0 511.993 511.993" style="enable-background:new 0 0 511.993 511.993;" xml:space="preserve">
<linearGradient id="SVGID_1_" gradientUnits="userSpaceOnUse" x1="-330.6439" y1="260.6447" x2="-330.6439" y2="261.5947" gradientTransform="matrix(511.9918 0 0 511.9939 169542.9688 -133438.5156)">
	<stop  offset="0" style="stop-color:#FF9400"/>
	<stop  offset="1" style="stop-color:#FF5F39"/>
</linearGradient>
<path style="fill:url(#SVGID_1_);" d="M299.254,194.369c8.602,3.072,15.299,9.789,18.371,18.391
	c1.516,4.178,5.448,6.779,9.646,6.779c1.147,0,2.294-0.184,3.441-0.594c5.345-1.905,8.11-7.762,6.205-13.087
	c-5.14-14.397-16.364-25.62-30.781-30.761c-5.325-1.905-11.162,0.86-13.087,6.185C291.144,186.607,293.909,192.464,299.254,194.369
	 M327.271,117.364c30.986,11.182,56.156,36.372,67.379,67.359c1.495,4.178,5.448,6.758,9.626,6.758c1.167,0,2.335-0.184,3.482-0.594
	c5.325-1.925,8.069-7.803,6.144-13.128c-13.251-36.639-43.049-66.417-79.667-79.667c-5.263-1.925-11.182,0.84-13.128,6.164
	C319.202,109.561,321.946,115.439,327.271,117.364 M355.288,40.339c54.211,19.763,96.604,62.177,116.367,116.367
	c1.516,4.137,5.448,6.717,9.626,6.717c1.147,0,2.335-0.205,3.502-0.614c5.304-1.946,8.049-7.803,6.103-13.128
	C469.074,89.819,422.196,42.94,362.292,21.108c-5.243-1.946-11.182,0.799-13.107,6.103
	C347.239,32.536,349.983,38.393,355.288,40.339 M504.873,444.635c-20.132,24.371-33.403,39.772-39.404,45.773
	c-15.135,15.135-35,21.586-66.417,21.586c-36.639,0-172.913-67.236-250.839-148.541C67.236,285.853,0.001,149.579,0.001,112.92
	c0-31.396,6.451-51.261,21.586-66.396c5.98-5.98,21.361-19.231,45.773-39.404c6.554-5.427,14.868-7.864,23.245-6.922
	c8.458,0.922,15.974,5.161,21.176,11.878l76.247,98.673c12.943,16.712,14.479,39.383,3.932,57.713l-10.527,18.207
	c-6.369,11.08-5.509,24.74,2.212,34.796c11.08,14.397,28.631,35.901,49.377,56.668c20.869,20.849,42.783,38.769,57.508,50.115
	c10.097,7.782,23.798,8.643,34.857,2.273l18.125-10.465c18.309-10.568,40.96-9.052,57.713,3.891l98.693,76.288
	c6.717,5.202,10.936,12.698,11.878,21.135C512.738,429.807,510.28,438.06,504.873,444.635"/>
<g>
</g>
<g>
</g>
<g>
</g>
<g>
</g>
<g>
</g>
<g>
</g>
<g>
</g>
<g>
</g>
<g>
</g>
<g>
</g>
<g>
</g>
<g>
</g>
<g>
</g>
<g>
</g>
<g>
</g>
</svg>
