<?xml version="1.0" encoding="iso-8859-1"?>
<!-- Generator: Adobe Illustrator 19.0.0, SVG Export Plug-In . SVG Version: 6.00 Build 0)  -->
<svg version="1.1" id="Capa_1" xmlns="http://www.w3.org/2000/svg" xmlns:xlink="http://www.w3.org/1999/xlink" x="0px" y="0px"
	 viewBox="0 0 512.009 512.009" style="enable-background:new 0 0 512.009 512.009;" xml:space="preserve">
<linearGradient id="SVGID_1_" gradientUnits="userSpaceOnUse" x1="-329.6122" y1="264.0636" x2="-329.6122" y2="265.0636" gradientTransform="matrix(512.0089 0 0 511.6995 169020.3906 -135118.6875)">
	<stop  offset="0" style="stop-color:#5CEECA"/>
	<stop  offset="1" style="stop-color:#64CCFA"/>
</linearGradient>
<path style="fill:url(#SVGID_1_);" d="M43.175,348.133l120.548,120.57L14.19,511.423c-1.024,0.289-2.048,0.423-3.05,0.423
	c-2.916,0-5.766-1.135-7.881-3.25c-2.872-2.872-3.94-7.057-2.827-10.931L43.175,348.133z M340.66,44.548l126.648,126.648
	L182.512,455.991L55.864,329.344L340.66,44.548z M502.259,89.138c6.3,6.278,9.751,14.648,9.751,23.553s-3.451,17.275-9.751,23.575
	l-19.212,19.212L356.377,28.831l19.234-19.234c12.6-12.578,34.528-12.578,47.106,0L502.259,89.138z"/>
<g>
</g>
<g>
</g>
<g>
</g>
<g>
</g>
<g>
</g>
<g>
</g>
<g>
</g>
<g>
</g>
<g>
</g>
<g>
</g>
<g>
</g>
<g>
</g>
<g>
</g>
<g>
</g>
<g>
</g>
</svg>
