<?xml version="1.0" encoding="iso-8859-1"?>
<!-- Generator: Adobe Illustrator 19.0.0, SVG Export Plug-In . SVG Version: 6.00 Build 0)  -->
<svg version="1.1" id="Capa_1" xmlns="http://www.w3.org/2000/svg" xmlns:xlink="http://www.w3.org/1999/xlink" x="0px" y="0px"
	 viewBox="0 0 512 512" style="enable-background:new 0 0 512 512;" xml:space="preserve">
<linearGradient id="SVGID_1_" gradientUnits="userSpaceOnUse" x1="-329.6843" y1="263.0675" x2="-329.6843" y2="264.0675" gradientTransform="matrix(512 0 0 470.9437 169054.3594 -123871.6719)">
	<stop  offset="0" style="stop-color:#85FC6D"/>
	<stop  offset="1" style="stop-color:#0AD31A"/>
</linearGradient>
<path style="fill:url(#SVGID_1_);" d="M485.868,46.502c-34.775-34.632-91.3-34.652-126.116,0.061L115.671,292.037
	c-11.305,11.264-17.551,26.255-17.531,42.189c0,15.913,6.226,30.904,17.531,42.107c23.306,23.224,61.153,23.183,84.255,0.164
	l168.53-164.475c8.09-7.905,8.253-20.89,0.348-28.959c-7.926-8.11-20.849-8.212-28.959-0.369L171.172,347.333
	c-7.352,7.332-19.272,7.311-26.604-0.02c-3.523-3.482-5.468-8.151-5.468-13.107c0-4.956,1.946-9.626,5.55-13.23L388.731,75.502
	c18.76-18.698,49.377-18.739,68.219,0c9.093,9.052,14.09,21.074,14.09,33.874s-4.997,24.822-14.152,33.956l-283.341,284.57
	c-30.29,30.167-79.585,30.188-109.855,0.02c-14.664-14.602-22.733-33.997-22.733-54.62s8.069-40.018,22.733-54.6l206.07-205.251
	c8.008-8.008,8.049-20.972,0.061-28.979c-8.008-8.008-20.951-8.069-28.979-0.061L34.775,289.682C12.349,312.005,0,341.701,0,373.302
	c0,31.601,12.349,61.297,34.775,83.64c23.122,22.999,53.453,34.529,83.804,34.529c30.392-0.02,60.785-11.551,83.948-34.611
	l283.341-284.59C502.723,155.476,512,133.133,512,109.376S502.723,63.276,485.868,46.502"/>
<g>
</g>
<g>
</g>
<g>
</g>
<g>
</g>
<g>
</g>
<g>
</g>
<g>
</g>
<g>
</g>
<g>
</g>
<g>
</g>
<g>
</g>
<g>
</g>
<g>
</g>
<g>
</g>
<g>
</g>
</svg>
