<?xml version="1.0" encoding="iso-8859-1"?>
<!-- Generator: Adobe Illustrator 19.0.0, SVG Export Plug-In . SVG Version: 6.00 Build 0)  -->
<svg version="1.1" id="Capa_1" xmlns="http://www.w3.org/2000/svg" xmlns:xlink="http://www.w3.org/1999/xlink" x="0px" y="0px"
	 viewBox="0 0 511.996 511.996" style="enable-background:new 0 0 511.996 511.996;" xml:space="preserve">
<linearGradient id="SVGID_1_" gradientUnits="userSpaceOnUse" x1="-330.6401" y1="260.6442" x2="-330.6401" y2="261.6342" gradientTransform="matrix(511.9898 0 0 511.7952 169540.3281 -133392.5313)">
	<stop  offset="0" style="stop-color:#FFDB4A"/>
	<stop  offset="1" style="stop-color:#FFBB01"/>
</linearGradient>
<path style="fill:url(#SVGID_1_);" d="M460.82,61.509c-5.653,0-10.241-4.588-10.241-10.241s4.588-10.241,10.241-10.241
	c5.653,0,10.241,4.588,10.241,10.241S466.473,61.509,460.82,61.509 M501.742,10.346c8.725,8.725,14.829,28.633,5.796,58.393
	c-10.159,33.365-36.293,71.317-77.748,112.731c-34,34.04-68.02,60.073-101.097,77.421l32.013,31.706
	c12.002,12.023,12.33,31.132,0.717,43.523c-6.902,7.373-13.354,14.562-19.683,21.69L156.278,170.348
	c7.148-6.329,14.337-12.76,21.711-19.662c12.35-11.613,31.46-11.326,43.503,0.696l31.89,31.89
	c17.164-32.955,43.196-66.975,77.236-100.974c41.414-41.455,79.366-67.589,112.731-77.748
	C473.15-4.483,493.017,1.641,501.742,10.346z M140.774,183.6l187.53,187.53c-48.132,56.673-76.274,104.088-76.274,130.53
	c0,3.789-2.089,7.251-5.407,9.032c-1.516,0.819-3.175,1.208-4.834,1.208c-1.987,0-3.973-0.573-5.694-1.72
	c-2.519-1.68-59.991-40.267-120.514-99.356l45.776-45.797c3.994-3.994,3.994-10.466,0-14.481c-3.994-3.994-10.487-3.994-14.481,0
	l-45.776,45.797c-9.094-9.278-17.737-18.536-25.786-27.486l65.5-65.48c3.994-4.014,3.994-10.487,0-14.481
	c-3.994-4.014-10.487-4.014-14.481,0l-64.538,64.517c-36.375-42.315-58.823-75.7-60.073-77.605
	c-2.11-3.134-2.294-7.189-0.492-10.528c1.761-3.318,5.223-5.387,9.012-5.387C36.624,259.894,84.039,231.752,140.774,183.6z"/>
<g>
</g>
<g>
</g>
<g>
</g>
<g>
</g>
<g>
</g>
<g>
</g>
<g>
</g>
<g>
</g>
<g>
</g>
<g>
</g>
<g>
</g>
<g>
</g>
<g>
</g>
<g>
</g>
<g>
</g>
</svg>
