<?xml version="1.0" encoding="iso-8859-1"?>
<!-- Generator: Adobe Illustrator 19.0.0, SVG Export Plug-In . SVG Version: 6.00 Build 0)  -->
<svg version="1.1" id="Capa_1" xmlns="http://www.w3.org/2000/svg" xmlns:xlink="http://www.w3.org/1999/xlink" x="0px" y="0px"
	 viewBox="0 0 512 512" style="enable-background:new 0 0 512 512;" xml:space="preserve">
<linearGradient id="SVGID_1_" gradientUnits="userSpaceOnUse" x1="-328.6035" y1="260.6315" x2="-328.6035" y2="261.6115" gradientTransform="matrix(470.6836 0 0 512 154924.2969 -133443.3125)">
	<stop  offset="0" style="stop-color:#EE4DB7"/>
	<stop  offset="1" style="stop-color:#C743F9"/>
</linearGradient>
<path style="fill:url(#SVGID_1_);" d="M481.886,360.96c-26.993-34.038-72.294-100.946-72.294-166.4
	c0-64.901-41.697-123.29-102.4-144.753C306.455,22.2,283.763,0,256.012,0c-27.771,0-50.442,22.2-51.18,49.807
	c-60.723,21.463-102.42,79.852-102.42,144.753c0,65.475-45.281,132.362-72.294,166.4c-9.011,11.366-11.796,26.378-7.434,40.161
	c4.26,13.455,14.868,23.88,28.385,27.853c23.675,6.984,62.484,14.848,121.672,18.862c25.62,1.72,53.166,2.724,83.272,2.724
	c30.085,0,57.631-1.004,83.251-2.724c59.208-4.014,97.997-11.878,121.692-18.862c13.517-3.973,24.105-14.397,28.365-27.853
	C493.683,387.338,490.877,372.326,481.886,360.96 M256.012,471.04c23.02,0,44.36-0.676,64.881-1.679
	C309.772,494.367,285.114,512,256.012,512c-29.102,0-53.76-17.633-64.881-42.639C211.653,470.364,232.993,471.04,256.012,471.04"/>
<g>
</g>
<g>
</g>
<g>
</g>
<g>
</g>
<g>
</g>
<g>
</g>
<g>
</g>
<g>
</g>
<g>
</g>
<g>
</g>
<g>
</g>
<g>
</g>
<g>
</g>
<g>
</g>
<g>
</g>
</svg>
