<?xml version="1.0" encoding="iso-8859-1"?>
<!-- Generator: Adobe Illustrator 19.0.0, SVG Export Plug-In . SVG Version: 6.00 Build 0)  -->
<svg version="1.1" id="Capa_1" xmlns="http://www.w3.org/2000/svg" xmlns:xlink="http://www.w3.org/1999/xlink" x="0px" y="0px"
	 viewBox="0 0 512 512" style="enable-background:new 0 0 512 512;" xml:space="preserve">
<linearGradient id="SVGID_1_" gradientUnits="userSpaceOnUse" x1="-328.2908" y1="260.6615" x2="-328.2908" y2="261.6315" gradientTransform="matrix(430.08 0 0 512 141447.3125 -133443.3125)">
	<stop  offset="0" style="stop-color:#C544FC"/>
	<stop  offset="1" style="stop-color:#5B56D7"/>
</linearGradient>
<path style="fill:url(#SVGID_1_);" d="M440.32,40.96c16.937,0,30.72,13.783,30.72,30.72V409.6h-92.16
	c-5.652,0-10.24,4.588-10.24,10.24V512H71.68c-16.937,0-30.72-13.783-30.72-30.72V71.68c0-16.937,13.783-30.72,30.72-30.72h51.2
	v51.2c0,5.652,4.588,10.24,10.24,10.24s10.24-4.588,10.24-10.24v-51.2h40.96v51.2c0,5.652,4.588,10.24,10.24,10.24
	s10.24-4.588,10.24-10.24v-51.2h40.96v51.2c0,5.652,4.588,10.24,10.24,10.24c5.652,0,10.24-4.588,10.24-10.24v-51.2h40.96v51.2
	c0,5.652,4.588,10.24,10.24,10.24c5.652,0,10.24-4.588,10.24-10.24v-51.2h40.96v51.2c0,5.652,4.588,10.24,10.24,10.24
	c5.652,0,10.24-4.588,10.24-10.24v-51.2H440.32z M389.12,512v-81.92h81.92v51.2c0,16.937-13.783,30.72-30.72,30.72H389.12z
	 M378.88,204.8c5.652,0,10.24-4.588,10.24-10.24s-4.588-10.24-10.24-10.24H133.12c-5.652,0-10.24,4.588-10.24,10.24
	s4.588,10.24,10.24,10.24H378.88z M122.88,235.52c0,5.652,4.588,10.24,10.24,10.24H256c5.652,0,10.24-4.588,10.24-10.24
	s-4.588-10.24-10.24-10.24H133.12C127.468,225.28,122.88,229.868,122.88,235.52z M337.92,286.72c5.652,0,10.24-4.588,10.24-10.24
	c0-5.652-4.588-10.24-10.24-10.24h-204.8c-5.652,0-10.24,4.588-10.24,10.24c0,5.652,4.588,10.24,10.24,10.24H337.92z M122.88,317.44
	c0,5.652,4.588,10.24,10.24,10.24h163.84c5.652,0,10.24-4.588,10.24-10.24c0-5.652-4.587-10.24-10.24-10.24H133.12
	C127.468,307.2,122.88,311.788,122.88,317.44z M337.92,368.64c5.652,0,10.24-4.588,10.24-10.24s-4.588-10.24-10.24-10.24h-204.8
	c-5.652,0-10.24,4.588-10.24,10.24s4.588,10.24,10.24,10.24H337.92z M327.68,10.24v30.72H307.2V10.24
	C307.2,4.588,311.788,0,317.44,0C323.092,0,327.68,4.588,327.68,10.24z M389.12,10.24v30.72h-20.48V10.24
	c0-5.652,4.588-10.24,10.24-10.24C384.532,0,389.12,4.588,389.12,10.24z M143.36,10.24v30.72h-20.48V10.24
	c0-5.652,4.588-10.24,10.24-10.24S143.36,4.588,143.36,10.24z M266.24,10.24v30.72h-20.48V10.24C245.76,4.588,250.348,0,256,0
	C261.652,0,266.24,4.588,266.24,10.24z M204.8,10.24v30.72h-20.48V10.24c0-5.652,4.588-10.24,10.24-10.24S204.8,4.588,204.8,10.24z"
	/>
<g>
</g>
<g>
</g>
<g>
</g>
<g>
</g>
<g>
</g>
<g>
</g>
<g>
</g>
<g>
</g>
<g>
</g>
<g>
</g>
<g>
</g>
<g>
</g>
<g>
</g>
<g>
</g>
<g>
</g>
</svg>
