<?xml version="1.0" encoding="iso-8859-1"?>
<!-- Generator: Adobe Illustrator 19.0.0, SVG Export Plug-In . SVG Version: 6.00 Build 0)  -->
<svg version="1.1" id="Capa_1" xmlns="http://www.w3.org/2000/svg" xmlns:xlink="http://www.w3.org/1999/xlink" x="0px" y="0px"
	 viewBox="0 0 512 512" style="enable-background:new 0 0 512 512;" xml:space="preserve">
<linearGradient id="SVGID_1_" gradientUnits="userSpaceOnUse" x1="-330.6443" y1="263.7042" x2="-330.6443" y2="264.6841" gradientTransform="matrix(512 0 0 430.08 169545.875 -113372.9141)">
	<stop  offset="0" style="stop-color:#EE4DB7"/>
	<stop  offset="1" style="stop-color:#C743F9"/>
</linearGradient>
<path style="fill:url(#SVGID_1_);" d="M481.28,40.96c16.937,0,30.72,13.783,30.72,30.72v368.64c0,16.937-13.783,30.72-30.72,30.72
	H71.68C32.154,471.04,0,438.886,0,399.36V153.6c0-16.937,13.783-30.72,30.72-30.72h10.24v276.48c0,5.632,4.608,10.24,10.24,10.24
	s10.24-4.608,10.24-10.24V122.88v-10.24V71.68c0-16.937,13.783-30.72,30.72-30.72H481.28z M440.32,122.88
	c5.652,0,10.24-4.588,10.24-10.24s-4.588-10.24-10.24-10.24h-61.44c-5.652,0-10.24,4.588-10.24,10.24s4.588,10.24,10.24,10.24
	H440.32z M440.32,163.84c5.652,0,10.24-4.588,10.24-10.24s-4.588-10.24-10.24-10.24h-307.2c-5.652,0-10.24,4.588-10.24,10.24
	s4.588,10.24,10.24,10.24H440.32z M440.32,204.8c5.652,0,10.24-4.588,10.24-10.24s-4.588-10.24-10.24-10.24H296.96
	c-5.652,0-10.24,4.588-10.24,10.24s4.588,10.24,10.24,10.24H440.32z M440.32,245.76c5.652,0,10.24-4.588,10.24-10.24
	s-4.588-10.24-10.24-10.24H296.96c-5.652,0-10.24,4.588-10.24,10.24s4.588,10.24,10.24,10.24H440.32z M440.32,286.72
	c5.652,0,10.24-4.588,10.24-10.24c0-5.652-4.588-10.24-10.24-10.24H296.96c-5.652,0-10.24,4.588-10.24,10.24
	c0,5.652,4.588,10.24,10.24,10.24H440.32z M440.32,327.68c5.652,0,10.24-4.588,10.24-10.24c0-5.652-4.588-10.24-10.24-10.24H296.96
	c-5.652,0-10.24,4.588-10.24,10.24c0,5.652,4.588,10.24,10.24,10.24H440.32z M440.32,368.64c5.652,0,10.24-4.588,10.24-10.24
	s-4.588-10.24-10.24-10.24h-307.2c-5.652,0-10.24,4.588-10.24,10.24s4.588,10.24,10.24,10.24H440.32z M122.88,194.56v122.88
	c0,5.652,4.588,10.24,10.24,10.24h102.4c5.652,0,10.24-4.588,10.24-10.24V194.56c0-5.652-4.588-10.24-10.24-10.24h-102.4
	C127.468,184.32,122.88,188.908,122.88,194.56z M143.36,307.2V204.8h81.92v102.4H143.36z M133.12,102.4
	c-5.652,0-10.24,4.588-10.24,10.24s4.588,10.24,10.24,10.24h184.32c5.652,0,10.24-4.588,10.24-10.24s-4.588-10.24-10.24-10.24
	H133.12z"/>
<g>
</g>
<g>
</g>
<g>
</g>
<g>
</g>
<g>
</g>
<g>
</g>
<g>
</g>
<g>
</g>
<g>
</g>
<g>
</g>
<g>
</g>
<g>
</g>
<g>
</g>
<g>
</g>
<g>
</g>
</svg>
