<?xml version="1.0" encoding="iso-8859-1"?>
<!-- Generator: Adobe Illustrator 19.0.0, SVG Export Plug-In . SVG Version: 6.00 Build 0)  -->
<svg version="1.1" id="Capa_1" xmlns="http://www.w3.org/2000/svg" xmlns:xlink="http://www.w3.org/1999/xlink" x="0px" y="0px"
	 viewBox="0 0 511.996 511.996" style="enable-background:new 0 0 511.996 511.996;" xml:space="preserve">
<linearGradient id="SVGID_1_" gradientUnits="userSpaceOnUse" x1="-326.7247" y1="260.6282" x2="-326.7247" y2="261.6282" gradientTransform="matrix(389.0168 0 0 511.9959 127357.3906 -133440.5625)">
	<stop  offset="0.029" style="stop-color:#FF5D3B"/>
	<stop  offset="1" style="stop-color:#FF2D67"/>
</linearGradient>
<path style="fill:url(#SVGID_1_);" d="M446.574,2.167c-2.499-1.946-5.735-2.622-8.786-1.864l-245.77,61.442
	c-4.547,1.147-7.762,5.243-7.762,9.954v313.07c-5.755-5.202-12.432-9.401-20.01-12.166c-18.187-6.636-39.344-4.772-58.022,4.997
	c-36.046,18.699-53.987,61.914-39.958,96.362c6.636,16.057,19.293,28.182,35.616,34.121c7.189,2.622,14.849,3.912,22.652,3.912
	c11.879,0,24.085-3.011,35.391-8.909c27.219-14.193,44.812-42.129,44.812-71.15V182.091l225.289-56.322v197.558
	c-5.755-5.202-12.432-9.401-20.01-12.166c-18.166-6.636-39.344-4.772-58.022,4.997c-36.046,18.699-53.987,61.914-39.958,96.362
	c6.636,16.057,19.293,28.182,35.616,34.121c7.189,2.622,14.849,3.912,22.652,3.912c11.879,0,24.085-3.011,35.391-8.909
	c27.219-14.193,44.812-42.129,44.812-71.15V10.257C450.506,7.083,449.052,4.113,446.574,2.167"/>
<g>
</g>
<g>
</g>
<g>
</g>
<g>
</g>
<g>
</g>
<g>
</g>
<g>
</g>
<g>
</g>
<g>
</g>
<g>
</g>
<g>
</g>
<g>
</g>
<g>
</g>
<g>
</g>
<g>
</g>
</svg>
