<?xml version="1.0" encoding="iso-8859-1"?>
<!-- Generator: Adobe Illustrator 19.0.0, SVG Export Plug-In . SVG Version: 6.00 Build 0)  -->
<svg version="1.1" id="Capa_1" xmlns="http://www.w3.org/2000/svg" xmlns:xlink="http://www.w3.org/1999/xlink" x="0px" y="0px"
	 viewBox="0 0 512 512" style="enable-background:new 0 0 512 512;" xml:space="preserve">
<linearGradient id="SVGID_1_" gradientUnits="userSpaceOnUse" x1="-330.3091" y1="326.9602" x2="-330.3091" y2="327.9102" gradientTransform="matrix(512 0 0 121.9048 169374.2344 -39660.5234)">
	<stop  offset="0" style="stop-color:#FF9400"/>
	<stop  offset="1" style="stop-color:#FF5F39"/>
</linearGradient>
<path style="fill:url(#SVGID_1_);" d="M256,195.048c-33.621,0-60.952,27.331-60.952,60.952s27.331,60.952,60.952,60.952
	s60.952-27.331,60.952-60.952S289.621,195.048,256,195.048 M451.048,195.048c-33.621,0-60.952,27.331-60.952,60.952
	s27.331,60.952,60.952,60.952S512,289.621,512,256S484.669,195.048,451.048,195.048 M121.905,256
	c0,33.621-27.331,60.952-60.952,60.952S0,289.621,0,256s27.331-60.952,60.952-60.952S121.905,222.379,121.905,256"/>
<g>
</g>
<g>
</g>
<g>
</g>
<g>
</g>
<g>
</g>
<g>
</g>
<g>
</g>
<g>
</g>
<g>
</g>
<g>
</g>
<g>
</g>
<g>
</g>
<g>
</g>
<g>
</g>
<g>
</g>
</svg>
