<?xml version="1.0" encoding="iso-8859-1"?>
<!-- Generator: Adobe Illustrator 19.0.0, SVG Export Plug-In . SVG Version: 6.00 Build 0)  -->
<svg version="1.1" id="Capa_1" xmlns="http://www.w3.org/2000/svg" xmlns:xlink="http://www.w3.org/1999/xlink" x="0px" y="0px"
	 viewBox="0 0 512.001 512.001" style="enable-background:new 0 0 512.001 512.001;" xml:space="preserve">
<linearGradient id="SVGID_1_" gradientUnits="userSpaceOnUse" x1="-329.6829" y1="260.632" x2="-329.6829" y2="261.632" gradientTransform="matrix(512.002 0 0 512 169054.2969 -133443.6094)">
	<stop  offset="0" style="stop-color:#FFDB4A"/>
	<stop  offset="1" style="stop-color:#FFBB01"/>
</linearGradient>
<path style="fill:url(#SVGID_1_);" d="M358.401,266.241c-16.937,0-30.72-13.783-30.72-30.72s13.783-30.72,30.72-30.72
	s30.72,13.783,30.72,30.72S375.338,266.241,358.401,266.241 M256.001,266.241c-16.937,0-30.72-13.783-30.72-30.72
	s13.783-30.72,30.72-30.72s30.72,13.783,30.72,30.72S272.938,266.241,256.001,266.241 M153.601,266.241
	c-16.937,0-30.72-13.783-30.72-30.72s13.783-30.72,30.72-30.72s30.72,13.783,30.72,30.72S170.538,266.241,153.601,266.241
	 M256.001,0.001c-141.169,0-256,105.636-256,235.52c0,38.748,10.588,77.23,30.597,111.309c10.404,17.695,12.022,39.465,4.424,59.74
	L0.656,498.156c-1.434,3.809-0.471,8.09,2.417,10.916c1.946,1.925,4.547,2.929,7.168,2.929c1.29,0,2.58-0.246,3.809-0.717
	l120.709-48.312c14.643-5.857,30.761-6.574,46.756-2.13c24.105,6.758,49.172,10.199,74.486,10.199c141.169,0,256-105.636,256-235.52
	S397.17,0.001,256.001,0.001"/>
<g>
</g>
<g>
</g>
<g>
</g>
<g>
</g>
<g>
</g>
<g>
</g>
<g>
</g>
<g>
</g>
<g>
</g>
<g>
</g>
<g>
</g>
<g>
</g>
<g>
</g>
<g>
</g>
<g>
</g>
</svg>
