<?xml version="1.0" encoding="iso-8859-1"?>
<!-- Generator: Adobe Illustrator 19.0.0, SVG Export Plug-In . SVG Version: 6.00 Build 0)  -->
<svg version="1.1" id="Capa_1" xmlns="http://www.w3.org/2000/svg" xmlns:xlink="http://www.w3.org/1999/xlink" x="0px" y="0px"
	 viewBox="0 0 512 512" style="enable-background:new 0 0 512 512;" xml:space="preserve">
<linearGradient id="SVGID_1_" gradientUnits="userSpaceOnUse" x1="-330.7242" y1="262.0423" x2="-330.7242" y2="263.0423" gradientTransform="matrix(511.9959 0 0 471.0523 169585.4063 -123414.6094)">
	<stop  offset="0" style="stop-color:#5CEECA"/>
	<stop  offset="1" style="stop-color:#64CCFA"/>
</linearGradient>
<path style="fill:url(#SVGID_1_);" d="M290.796,381.754c-2.601,0-5.202-0.983-7.209-2.949c-2.539-2.519-5.018-5.222-7.393-8.131
	c-3.604-4.342-2.99-10.793,1.372-14.397c4.383-3.584,10.813-3.011,14.418,1.393c1.946,2.335,3.953,4.526,6.001,6.554
	c4.014,3.973,4.055,10.465,0.082,14.479C296.059,380.73,293.417,381.754,290.796,381.754z M259.236,343.17
	c-1.475-3.174-2.847-6.451-4.137-9.851c-1.987-5.284,0.676-11.203,5.96-13.21c5.263-1.987,11.203,0.676,13.21,5.96
	c1.126,2.949,2.294,5.775,3.564,8.52c2.355,5.14,0.123,11.223-5.018,13.578c-1.393,0.655-2.847,0.942-4.28,0.942
	C264.663,349.089,260.956,346.897,259.236,343.17z M244.92,292.974c-1.004-5.55,2.724-10.875,8.294-11.878
	c5.673-0.983,10.895,2.724,11.878,8.294l1.679,9.585c1.085,5.55-2.499,10.936-8.049,12.042c-0.676,0.143-1.352,0.205-2.028,0.205
	c-4.772,0-9.052-3.379-10.015-8.253L244.92,292.974z M236.442,255.188c-1.536-5.448,1.638-11.1,7.086-12.636
	c5.407-1.597,11.1,1.618,12.636,7.045c0.901,3.236,1.782,6.533,2.621,9.933c1.352,5.489-1.987,11.039-7.475,12.411
	c-0.819,0.205-1.659,0.307-2.458,0.307c-4.608,0-8.786-3.113-9.953-7.782C238.1,261.291,237.302,258.178,236.442,255.188z
	 M223.396,219.594c-2.499-5.079-0.369-11.203,4.71-13.681c5.079-2.437,11.244-0.348,13.681,4.731
	c1.495,3.072,2.949,6.287,4.342,9.646c2.13,5.222-0.369,11.223-5.591,13.373c-1.27,0.512-2.601,0.758-3.891,0.758
	c-4.014,0-7.844-2.396-9.462-6.328C225.956,225.123,224.686,222.297,223.396,219.594z M202.916,190.553
	c-4.239-3.789-4.588-10.24-0.84-14.479c3.83-4.198,10.322-4.547,14.479-0.799c2.703,2.437,5.325,5.12,7.885,8.069
	c3.686,4.301,3.195,10.772-1.106,14.459c-1.925,1.659-4.301,2.458-6.676,2.458c-2.867,0-5.734-1.208-7.762-3.564
	C206.971,194.424,204.943,192.376,202.916,190.553z M327.68,400.432v88.842l-143.36-35.84V179.699
	c4.485-0.369,8.397-3.604,9.236-8.253c1.004-5.571-2.662-10.895-8.233-11.919c-0.328-0.061-0.676-0.02-1.004-0.082V22.74
	l143.36,35.84v322.273c-0.184-0.061-0.348-0.205-0.573-0.246c-2.683-0.553-5.325-1.331-7.905-2.314
	c-5.325-2.028-11.223,0.594-13.23,5.878c-2.027,5.263,0.594,11.203,5.878,13.23c3.666,1.393,7.373,2.499,11.182,3.256
	c0.676,0.143,1.372,0.225,2.048,0.225C325.98,400.862,326.84,400.657,327.68,400.432z M163.84,170.278v283.156L12.718,491.199
	c-0.819,0.225-1.659,0.328-2.478,0.328c-2.253,0-4.465-0.758-6.287-2.171C1.475,487.411,0,484.421,0,481.287v-409.6
	c0-4.71,3.215-8.806,7.762-9.933L163.84,22.72v144.384c-0.082,0.553-0.307,1.065-0.307,1.638
	C163.533,169.295,163.758,169.766,163.84,170.278z M62.3,258.711c3.666-4.301,3.154-10.772-1.147-14.438
	c-4.239-3.645-10.732-3.154-14.438,1.147l-3.4,4.055c-3.604,4.362-2.99,10.813,1.372,14.418c1.905,1.577,4.219,2.355,6.513,2.355
	c2.949,0,5.857-1.27,7.905-3.727L62.3,258.711z M88.596,229.854c3.994-4.035,3.953-10.506-0.061-14.479
	c-4.014-3.994-10.527-3.953-14.479,0.061c-2.355,2.376-4.71,4.792-7.086,7.311c-3.891,4.116-3.707,10.588,0.389,14.479
	c1.987,1.864,4.526,2.806,7.045,2.806c2.724,0,5.427-1.065,7.434-3.195C84.111,234.442,86.344,232.107,88.596,229.854z
	 M117.207,204.193c4.465-3.482,5.263-9.933,1.782-14.377c-3.482-4.485-9.912-5.243-14.377-1.782
	c-2.642,2.048-5.325,4.219-8.028,6.513c-4.321,3.625-4.874,10.097-1.229,14.418c2.028,2.396,4.915,3.645,7.823,3.645
	c2.355,0,4.69-0.799,6.615-2.417C112.292,208.104,114.77,206.097,117.207,204.193z M148.767,184.798
	c5.202-2.232,7.598-8.253,5.386-13.435c-2.273-5.243-8.294-7.639-13.476-5.386c-3.195,1.372-6.431,2.929-9.708,4.69
	c-4.977,2.642-6.881,8.868-4.219,13.844c1.843,3.461,5.386,5.427,9.032,5.427c1.638,0,3.277-0.389,4.833-1.208
	C143.36,187.276,146.084,185.945,148.767,184.798z M508.068,22.638c-2.499-1.925-5.734-2.642-8.786-1.843L348.16,58.56v322.499
	c0.963-0.758,2.068-1.413,3.318-1.802c2.621-0.799,5.222-1.843,7.823-3.092c5.1-2.417,11.223-0.307,13.66,4.792
	c2.478,5.1,0.328,11.203-4.772,13.66c-3.543,1.7-7.107,3.092-10.65,4.198c-0.983,0.307-2.028,0.471-3.031,0.471
	c-2.376,0-4.547-0.963-6.349-2.417v92.406l156.099-39.035c4.547-1.126,7.741-5.222,7.741-9.912v-409.6
	C512,27.573,510.546,24.583,508.068,22.638L508.068,22.638z M402.289,367.275c-2.396,2.847-4.833,5.468-7.311,7.946
	c-2.007,1.987-4.608,2.97-7.229,2.97c-2.621,0-5.263-1.004-7.25-3.011c-3.994-3.994-3.994-10.486,0.041-14.479
	c2.068-2.068,4.116-4.301,6.144-6.676c3.666-4.321,10.117-4.833,14.438-1.167C405.422,356.503,405.955,362.974,402.289,367.275
	L402.289,367.275z M425.165,331.988c-1.618,3.174-3.236,6.226-4.895,9.155c-1.884,3.338-5.345,5.222-8.929,5.222
	c-1.7,0-3.441-0.41-5.018-1.311c-4.915-2.785-6.676-9.011-3.891-13.947c1.495-2.683,2.99-5.468,4.465-8.376
	c2.56-5.059,8.724-7.066,13.763-4.506C425.718,320.785,427.725,326.929,425.165,331.988L425.165,331.988z M440.709,293.731
	c-1.085,3.318-2.191,6.554-3.318,9.687c-1.516,4.178-5.448,6.779-9.646,6.779c-1.147,0-2.314-0.205-3.482-0.614
	c-5.304-1.925-8.069-7.782-6.144-13.107c1.065-2.949,2.109-6.001,3.154-9.134c1.741-5.366,7.537-8.294,12.923-6.533
	C439.542,282.57,442.491,288.366,440.709,293.731L440.709,293.731z M450.335,258.24l-1.167,5.079
	c-1.106,4.731-5.304,7.946-9.974,7.946c-0.758,0-1.516-0.082-2.294-0.266c-5.509-1.27-8.95-6.779-7.68-12.288l1.106-4.956
	c1.27-5.509,6.84-9.011,12.247-7.741C448.082,247.242,451.564,252.73,450.335,258.24L450.335,258.24z M468.05,207.797
	c3.994,3.994,3.994,10.486,0,14.479c-2.007,2.007-4.628,3.011-7.25,3.011c-2.601,0-5.222-1.004-7.229-3.011l-23.491-23.47
	l-23.47,23.47c-2.007,2.007-4.628,3.011-7.25,3.011c-2.601,0-5.222-1.004-7.229-3.011c-3.994-3.994-3.994-10.486,0-14.479
	l23.47-23.47l-23.47-23.491c-3.994-3.994-3.994-10.486,0-14.479c3.994-3.994,10.486-3.994,14.479,0l23.47,23.47l23.491-23.47
	c3.994-3.994,10.486-3.994,14.479,0c3.994,3.994,3.994,10.486,0,14.479l-23.47,23.491L468.05,207.797z"/>
<g>
</g>
<g>
</g>
<g>
</g>
<g>
</g>
<g>
</g>
<g>
</g>
<g>
</g>
<g>
</g>
<g>
</g>
<g>
</g>
<g>
</g>
<g>
</g>
<g>
</g>
<g>
</g>
<g>
</g>
</svg>
