<?xml version="1.0" encoding="iso-8859-1"?>
<!-- Generator: Adobe Illustrator 19.0.0, SVG Export Plug-In . SVG Version: 6.00 Build 0)  -->
<svg version="1.1" id="Capa_1" xmlns="http://www.w3.org/2000/svg" xmlns:xlink="http://www.w3.org/1999/xlink" x="0px" y="0px"
	 viewBox="0 0 512 512" style="enable-background:new 0 0 512 512;" xml:space="preserve">
<linearGradient id="SVGID_1_" gradientUnits="userSpaceOnUse" x1="-328.2908" y1="260.6315" x2="-328.2908" y2="261.6315" gradientTransform="matrix(430.08 0 0 512 141447.3125 -133443.3125)">
	<stop  offset="0" style="stop-color:#FFDB4A"/>
	<stop  offset="1" style="stop-color:#FFBB01"/>
</linearGradient>
<path style="fill:url(#SVGID_1_);" d="M368.64,204.8H143.36v-71.68c0-62.116,50.545-112.64,112.64-112.64
	c29.819,0,58.102,11.756,79.565,33.014c21.34,21.524,33.075,49.807,33.075,79.626V204.8z M275.948,371.343
	c-1.393,9.953-9.605,17.777-19.948,17.777s-18.555-7.823-19.948-17.777c-6.533-5.652-10.772-13.885-10.772-23.183
	c0-16.937,13.783-30.72,30.72-30.72s30.72,13.783,30.72,30.72C286.72,357.458,282.481,365.691,275.948,371.343L275.948,371.343z
	 M440.32,204.8h-51.2v-71.68c0-35.267-13.865-68.649-39.076-94.106C324.669,13.844,291.267,0,256,0
	c-73.4,0-133.12,59.72-133.12,133.12v71.68h-51.2c-16.937,0-30.72,13.783-30.72,30.72v245.76c0,16.937,13.783,30.72,30.72,30.72
	h368.64c16.937,0,30.72-13.783,30.72-30.72V235.52C471.04,218.583,457.257,204.8,440.32,204.8L440.32,204.8z"/>
<g>
</g>
<g>
</g>
<g>
</g>
<g>
</g>
<g>
</g>
<g>
</g>
<g>
</g>
<g>
</g>
<g>
</g>
<g>
</g>
<g>
</g>
<g>
</g>
<g>
</g>
<g>
</g>
<g>
</g>
</svg>
