<?xml version="1.0" encoding="iso-8859-1"?>
<!-- Generator: Adobe Illustrator 19.0.0, SVG Export Plug-In . SVG Version: 6.00 Build 0)  -->
<svg version="1.1" id="Capa_1" xmlns="http://www.w3.org/2000/svg" xmlns:xlink="http://www.w3.org/1999/xlink" x="0px" y="0px"
	 viewBox="0 0 512 512" style="enable-background:new 0 0 512 512;" xml:space="preserve">
<linearGradient id="SVGID_1_" gradientUnits="userSpaceOnUse" x1="-34.1074" y1="646.0949" x2="-34.1074" y2="621.2929" gradientTransform="matrix(20.48 0 0 -20.48 954.52 13234.4395)">
	<stop  offset="0" style="stop-color:#FFDB4A"/>
	<stop  offset="1" style="stop-color:#FFBB01"/>
</linearGradient>
<path style="fill:url(#SVGID_1_);" d="M367.862,157.532l-102.4,245.76c-1.618,3.871-5.407,6.308-9.462,6.308
	c-0.655,0-1.331-0.061-2.007-0.205c-4.792-0.963-8.233-5.161-8.233-10.035V266.24H112.64c-4.874,0-9.073-3.461-10.035-8.233
	c-0.963-4.792,1.597-9.585,6.103-11.469l245.76-102.4c3.871-1.556,8.233-0.696,11.182,2.212
	C368.579,149.279,369.439,153.702,367.862,157.532 M256,0C114.627,0,0,114.606,0,256c0,141.373,114.627,256,256,256
	s256-114.627,256-256C512,114.606,397.373,0,256,0"/>
<g>
</g>
<g>
</g>
<g>
</g>
<g>
</g>
<g>
</g>
<g>
</g>
<g>
</g>
<g>
</g>
<g>
</g>
<g>
</g>
<g>
</g>
<g>
</g>
<g>
</g>
<g>
</g>
<g>
</g>
</svg>
