<?xml version="1.0" encoding="iso-8859-1"?>
<!-- Generator: Adobe Illustrator 19.0.0, SVG Export Plug-In . SVG Version: 6.00 Build 0)  -->
<svg version="1.1" id="Capa_1" xmlns="http://www.w3.org/2000/svg" xmlns:xlink="http://www.w3.org/1999/xlink" x="0px" y="0px"
	 viewBox="0 0 512 512" style="enable-background:new 0 0 512 512;" xml:space="preserve">
<linearGradient id="SVGID_1_" gradientUnits="userSpaceOnUse" x1="-324.8298" y1="260.6315" x2="-324.8298" y2="261.6315" gradientTransform="matrix(348.16 0 0 512 113348.7578 -133443.3125)">
	<stop  offset="0" style="stop-color:#1AD6FD"/>
	<stop  offset="1" style="stop-color:#1D67F0"/>
</linearGradient>
<path style="fill:url(#SVGID_1_);" d="M256,102.4c39.526,0,71.68,32.154,71.68,71.68s-32.154,71.68-71.68,71.68
	s-71.68-32.154-71.68-71.68S216.474,102.4,256,102.4 M256,0C160.01,0,81.92,78.09,81.92,174.08
	c0,104.53,159.027,324.383,165.806,333.701c1.905,2.642,4.997,4.219,8.274,4.219c3.277,0,6.369-1.577,8.274-4.219
	c6.779-9.318,165.806-229.171,165.806-333.701C430.08,78.09,351.99,0,256,0"/>
<g>
</g>
<g>
</g>
<g>
</g>
<g>
</g>
<g>
</g>
<g>
</g>
<g>
</g>
<g>
</g>
<g>
</g>
<g>
</g>
<g>
</g>
<g>
</g>
<g>
</g>
<g>
</g>
<g>
</g>
</svg>
