<?xml version="1.0" encoding="iso-8859-1"?>
<!-- Generator: Adobe Illustrator 19.0.0, SVG Export Plug-In . SVG Version: 6.00 Build 0)  -->
<svg version="1.1" id="Capa_1" xmlns="http://www.w3.org/2000/svg" xmlns:xlink="http://www.w3.org/1999/xlink" x="0px" y="0px"
	 viewBox="0 0 512 512" style="enable-background:new 0 0 512 512;" xml:space="preserve">
<linearGradient id="SVGID_1_" gradientUnits="userSpaceOnUse" x1="-330.6443" y1="271.3925" x2="-330.6443" y2="272.3825" gradientTransform="matrix(512 0 0 307.2 169545.875 -83267.3203)">
	<stop  offset="0" style="stop-color:#FFDB4A"/>
	<stop  offset="1" style="stop-color:#FFBB01"/>
</linearGradient>
<path style="fill:url(#SVGID_1_);" d="M460.8,102.4c-28.242,0-51.2,22.958-51.2,51.2c0,13.599,5.427,25.907,14.09,35.082
	L337.818,311.48c-6.267-2.724-13.128-4.28-20.378-4.28c-9.032,0-17.408,2.56-24.781,6.676l-57.774-67.666
	c6.717-8.643,10.875-19.374,10.875-31.171c0-28.242-22.958-51.2-51.2-51.2s-51.2,22.958-51.2,51.2c0,5.55,1.126,10.793,2.765,15.811
	l-56.607,32.481c-9.4-10.67-22.999-17.572-38.318-17.572c-28.242,0-51.2,22.958-51.2,51.2s22.958,51.2,51.2,51.2
	s51.2-22.958,51.2-51.2c0-5.55-1.126-10.793-2.765-15.811l56.607-32.481c9.4,10.67,22.999,17.572,38.318,17.572
	c9.032,0,17.408-2.56,24.781-6.676l57.774,67.666c-6.717,8.643-10.875,19.374-10.875,31.171c0,28.242,22.958,51.2,51.2,51.2
	s51.2-22.958,51.2-51.2c0-13.599-5.427-25.907-14.09-35.082l85.873-122.798c6.267,2.724,13.128,4.28,20.378,4.28
	c28.242,0,51.2-22.958,51.2-51.2S489.042,102.4,460.8,102.4"/>
<g>
</g>
<g>
</g>
<g>
</g>
<g>
</g>
<g>
</g>
<g>
</g>
<g>
</g>
<g>
</g>
<g>
</g>
<g>
</g>
<g>
</g>
<g>
</g>
<g>
</g>
<g>
</g>
<g>
</g>
</svg>
