<?xml version="1.0" encoding="iso-8859-1"?>
<!-- Generator: Adobe Illustrator 19.0.0, SVG Export Plug-In . SVG Version: 6.00 Build 0)  -->
<svg version="1.1" id="Capa_1" xmlns="http://www.w3.org/2000/svg" xmlns:xlink="http://www.w3.org/1999/xlink" x="0px" y="0px"
	 viewBox="0 0 512 512" style="enable-background:new 0 0 512 512;" xml:space="preserve">
<linearGradient id="SVGID_1_" gradientUnits="userSpaceOnUse" x1="-322.4035" y1="260.6515" x2="-322.4035" y2="261.6015" gradientTransform="matrix(307.2143 0 0 512 99302.9766 -133443.3125)">
	<stop  offset="0" style="stop-color:#FF9400"/>
	<stop  offset="1" style="stop-color:#FF5F39"/>
</linearGradient>
<path style="fill:url(#SVGID_1_);" d="M408.623,149.217c-1.7-3.584-5.304-5.857-9.257-5.857H284.473l42.68-129.925
	c1.044-3.113,0.512-6.533-1.413-9.196C323.794,1.577,320.722,0,317.446,0h-122.88c-4.403,0-8.315,2.826-9.728,7.004l-81.92,245.76
	c-1.044,3.113-0.512,6.554,1.434,9.216c1.905,2.683,4.997,4.26,8.294,4.26h67.707l-77.435,232.284
	c-1.556,4.669,0.451,9.81,4.772,12.186c1.556,0.86,3.256,1.29,4.956,1.29c2.97,0,5.898-1.311,7.905-3.748l286.72-348.16
	C409.79,157.061,410.322,152.822,408.623,149.217"/>
<g>
</g>
<g>
</g>
<g>
</g>
<g>
</g>
<g>
</g>
<g>
</g>
<g>
</g>
<g>
</g>
<g>
</g>
<g>
</g>
<g>
</g>
<g>
</g>
<g>
</g>
<g>
</g>
<g>
</g>
</svg>
