<?xml version="1.0" encoding="iso-8859-1"?>
<!-- Generator: Adobe Illustrator 19.0.0, SVG Export Plug-In . SVG Version: 6.00 Build 0)  -->
<svg version="1.1" id="Capa_1" xmlns="http://www.w3.org/2000/svg" xmlns:xlink="http://www.w3.org/1999/xlink" x="0px" y="0px"
	 viewBox="0 0 512 512" style="enable-background:new 0 0 512 512;" xml:space="preserve">
<linearGradient id="SVGID_1_" gradientUnits="userSpaceOnUse" x1="-329.5699" y1="260.6315" x2="-329.5699" y2="261.6315" gradientTransform="matrix(471.04 0 0 512 155496.5938 -133443.3125)">
	<stop  offset="0" style="stop-color:#5CEECA"/>
	<stop  offset="1" style="stop-color:#64CCFA"/>
</linearGradient>
<path style="fill:url(#SVGID_1_);" d="M481.28,225.28h-40.96c-5.652,0-10.24,4.588-10.24,10.24s4.588,10.24,10.24,10.24h40.96
	c5.652,0,10.24-4.588,10.24-10.24S486.932,225.28,481.28,225.28 M408.064,68.977l-28.959,28.959c-4.014,4.014-4.014,10.486,0,14.479
	c1.987,2.007,4.608,3.011,7.229,3.011c2.621,0,5.243-1.004,7.25-3.011l28.959-28.959c3.994-3.994,3.994-10.486,0-14.479
	C418.55,64.983,412.058,64.983,408.064,68.977 M71.68,225.28H30.72c-5.652,0-10.24,4.588-10.24,10.24s4.588,10.24,10.24,10.24h40.96
	c5.652,0,10.24-4.588,10.24-10.24S77.332,225.28,71.68,225.28 M125.665,115.425c2.621,0,5.243-1.004,7.229-3.011
	c4.014-3.994,4.014-10.465,0-14.479l-28.959-28.959c-3.994-3.994-10.486-3.994-14.479,0c-3.994,3.994-3.994,10.486,0,14.479
	l28.959,28.959C120.422,114.422,123.044,115.425,125.665,115.425 M256,61.44c5.652,0,10.24-4.588,10.24-10.24V10.24
	C266.24,4.588,261.652,0,256,0c-5.652,0-10.24,4.588-10.24,10.24V51.2C245.76,56.852,250.348,61.44,256,61.44 M276.48,491.52h-40.96
	c-5.652,0-10.24,4.588-10.24,10.24S229.868,512,235.52,512h40.96c5.652,0,10.24-4.588,10.24-10.24S282.132,491.52,276.48,491.52
	 M296.96,450.56h-81.92c-5.652,0-10.24,4.588-10.24,10.24s4.588,10.24,10.24,10.24h81.92c5.652,0,10.24-4.588,10.24-10.24
	S302.612,450.56,296.96,450.56 M409.6,235.52c0,63.058-37.847,119.009-96.379,142.5c-2.929,1.188-6.021,3.891-6.021,8.028v33.792
	c0,5.652-4.587,10.24-10.24,10.24h-81.92c-5.652,0-10.24-4.588-10.24-10.24v-33.055c0-3.891-2.601-7.373-6.779-9.073
	c-68.28-27.832-106.476-98.386-92.877-171.602C116.429,145.408,164.68,96.707,225.239,84.91c46.019-8.929,92.815,2.683,128.41,32.01
	C389.202,146.248,409.6,189.46,409.6,235.52"/>
<g>
</g>
<g>
</g>
<g>
</g>
<g>
</g>
<g>
</g>
<g>
</g>
<g>
</g>
<g>
</g>
<g>
</g>
<g>
</g>
<g>
</g>
<g>
</g>
<g>
</g>
<g>
</g>
<g>
</g>
</svg>
