<?xml version="1.0" encoding="iso-8859-1"?>
<!-- Generator: Adobe Illustrator 19.0.0, SVG Export Plug-In . SVG Version: 6.00 Build 0)  -->
<svg version="1.1" id="Capa_1" xmlns="http://www.w3.org/2000/svg" xmlns:xlink="http://www.w3.org/1999/xlink" x="0px" y="0px"
	 viewBox="0 0 512 512" style="enable-background:new 0 0 512 512;" xml:space="preserve">
<linearGradient id="SVGID_1_" gradientUnits="userSpaceOnUse" x1="-34.1074" y1="645.6879" x2="-34.1074" y2="622.0029" gradientTransform="matrix(20.48 0 0 -20.48 954.52 13234.4395)">
	<stop  offset="0" style="stop-color:#FF9400"/>
	<stop  offset="1" style="stop-color:#FF5F39"/>
</linearGradient>
<path style="fill:url(#SVGID_1_);" d="M430.08,122.88c0-22.589-18.371-40.96-40.96-40.96s-40.96,18.371-40.96,40.96
	s18.371,40.96,40.96,40.96S430.08,145.469,430.08,122.88 M512,163.84c0,90.337-73.503,163.84-163.84,163.84
	c-19.722,0-38.912-3.441-57.18-10.26l-68.69,68.71c-1.925,1.905-4.526,2.99-7.25,2.99h-51.2v51.2c0,5.652-4.588,10.24-10.24,10.24
	h-51.2v51.2c0,5.652-4.588,10.24-10.24,10.24H10.24C4.588,512,0,507.412,0,501.76v-81.92c0-2.888,1.229-5.632,3.359-7.578
	l196.567-178.688c-10.22-21.729-15.606-45.67-15.606-69.734C184.32,73.503,257.823,0,348.16,0S512,73.503,512,163.84 M409.6,122.88
	c0,11.284-9.175,20.48-20.48,20.48s-20.48-9.196-20.48-20.48s9.175-20.48,20.48-20.48S409.6,111.596,409.6,122.88"/>
<g>
</g>
<g>
</g>
<g>
</g>
<g>
</g>
<g>
</g>
<g>
</g>
<g>
</g>
<g>
</g>
<g>
</g>
<g>
</g>
<g>
</g>
<g>
</g>
<g>
</g>
<g>
</g>
<g>
</g>
</svg>
