<?xml version="1.0" encoding="iso-8859-1"?>
<!-- Generator: Adobe Illustrator 19.0.0, SVG Export Plug-In . SVG Version: 6.00 Build 0)  -->
<svg version="1.1" id="Capa_1" xmlns="http://www.w3.org/2000/svg" xmlns:xlink="http://www.w3.org/1999/xlink" x="0px" y="0px"
	 viewBox="0 0 512 512" style="enable-background:new 0 0 512 512;" xml:space="preserve">
<linearGradient id="SVGID_1_" gradientUnits="userSpaceOnUse" x1="-322.4072" y1="260.6315" x2="-322.4072" y2="261.6315" gradientTransform="matrix(307.2 0 0 512 99299.4766 -133443.3125)">
	<stop  offset="0" style="stop-color:#FFDB4A"/>
	<stop  offset="1" style="stop-color:#FFBB01"/>
</linearGradient>
<path style="fill:url(#SVGID_1_);" d="M235.52,40.96c-5.652,0-10.24,4.588-10.24,10.24s4.588,10.24,10.24,10.24h40.96
	c5.652,0,10.24-4.588,10.24-10.24s-4.588-10.24-10.24-10.24H235.52z M409.6,81.92H102.4V51.2c0-28.242,22.958-51.2,51.2-51.2h204.8
	c28.242,0,51.2,22.958,51.2,51.2V81.92z M102.4,430.08h307.2v30.72c0,28.242-22.958,51.2-51.2,51.2H153.6
	c-28.242,0-51.2-22.958-51.2-51.2V430.08z M102.4,409.6V102.4h307.2v307.2H102.4z M256,471.04c5.652,0,10.24-4.588,10.24-10.24
	s-4.588-10.24-10.24-10.24c-5.652,0-10.24,4.588-10.24,10.24S250.348,471.04,256,471.04z"/>
<g>
</g>
<g>
</g>
<g>
</g>
<g>
</g>
<g>
</g>
<g>
</g>
<g>
</g>
<g>
</g>
<g>
</g>
<g>
</g>
<g>
</g>
<g>
</g>
<g>
</g>
<g>
</g>
<g>
</g>
</svg>
