<?xml version="1.0" encoding="iso-8859-1"?>
<!-- Generator: Adobe Illustrator 19.0.0, SVG Export Plug-In . SVG Version: 6.00 Build 0)  -->
<svg version="1.1" id="Capa_1" xmlns="http://www.w3.org/2000/svg" xmlns:xlink="http://www.w3.org/1999/xlink" x="0px" y="0px"
	 viewBox="0 0 512 512" style="enable-background:new 0 0 512 512;" xml:space="preserve">
<linearGradient id="SVGID_1_" gradientUnits="userSpaceOnUse" x1="-326.7425" y1="260.6315" x2="-326.7425" y2="261.6315" gradientTransform="matrix(389.12 0 0 512 127398.0391 -133443.3125)">
	<stop  offset="0" style="stop-color:#85FC6D"/>
	<stop  offset="1" style="stop-color:#0AD31A"/>
</linearGradient>
<path style="fill:url(#SVGID_1_);" d="M61.44,409.6V102.42h389.12V409.6H61.44z M450.56,81.92H61.44V51.2
	c0-28.242,22.958-51.2,51.2-51.2h286.72c28.242,0,51.2,22.958,51.2,51.2V81.92z M61.44,430.08h389.12v30.72
	c0,28.242-22.958,51.2-51.2,51.2H112.64c-28.242,0-51.2-22.958-51.2-51.2V430.08z M256,471.04c5.652,0,10.24-4.588,10.24-10.24
	s-4.588-10.24-10.24-10.24c-5.652,0-10.24,4.588-10.24,10.24S250.348,471.04,256,471.04z M235.52,40.96
	c-5.652,0-10.24,4.588-10.24,10.24s4.588,10.24,10.24,10.24h40.96c5.652,0,10.24-4.588,10.24-10.24s-4.588-10.24-10.24-10.24H235.52
	z"/>
<g>
</g>
<g>
</g>
<g>
</g>
<g>
</g>
<g>
</g>
<g>
</g>
<g>
</g>
<g>
</g>
<g>
</g>
<g>
</g>
<g>
</g>
<g>
</g>
<g>
</g>
<g>
</g>
<g>
</g>
</svg>
