<?xml version="1.0" encoding="iso-8859-1"?>
<!-- Generator: Adobe Illustrator 19.0.0, SVG Export Plug-In . SVG Version: 6.00 Build 0)  -->
<svg version="1.1" id="Capa_1" xmlns="http://www.w3.org/2000/svg" xmlns:xlink="http://www.w3.org/1999/xlink" x="0px" y="0px"
	 viewBox="0 0 512 512" style="enable-background:new 0 0 512 512;" xml:space="preserve">
<linearGradient id="SVGID_1_" gradientUnits="userSpaceOnUse" x1="-34.1074" y1="645.6909" x2="-34.1074" y2="622.0029" gradientTransform="matrix(20.48 0 0 -20.48 954.52 13234.4395)">
	<stop  offset="0" style="stop-color:#FF9400"/>
	<stop  offset="1" style="stop-color:#FF5F39"/>
</linearGradient>
<path style="fill:url(#SVGID_1_);" d="M296.182,382.792c-1.577,3.83-5.325,6.328-9.462,6.328h-20.48h-20.48h-20.48
	c-4.137,0-7.885-2.499-9.462-6.328c-1.577-3.83-0.696-8.233,2.232-11.162l17.469-17.469V239.759l-17.469-17.49
	c-2.929-2.929-3.809-7.332-2.232-11.162c1.577-3.83,5.325-6.308,9.462-6.308h20.48H256h10.24c5.652,0,10.24,4.567,10.24,10.24
	v139.121l17.49,17.469C296.878,374.559,297.759,378.962,296.182,382.792 M256,122.88c16.937,0,30.72,13.763,30.72,30.72
	c0,16.937-13.783,30.72-30.72,30.72s-30.72-13.783-30.72-30.72C225.28,136.643,239.063,122.88,256,122.88 M256,0
	C114.852,0,0,114.831,0,256c0,141.148,114.852,256,256,256c141.169,0,256-114.852,256-256C512,114.831,397.169,0,256,0"/>
<g>
</g>
<g>
</g>
<g>
</g>
<g>
</g>
<g>
</g>
<g>
</g>
<g>
</g>
<g>
</g>
<g>
</g>
<g>
</g>
<g>
</g>
<g>
</g>
<g>
</g>
<g>
</g>
<g>
</g>
</svg>
