<?xml version="1.0" encoding="iso-8859-1"?>
<!-- Generator: Adobe Illustrator 19.0.0, SVG Export Plug-In . SVG Version: 6.00 Build 0)  -->
<svg version="1.1" id="Capa_1" xmlns="http://www.w3.org/2000/svg" xmlns:xlink="http://www.w3.org/1999/xlink" x="0px" y="0px"
	 viewBox="0 0 512 512" style="enable-background:new 0 0 512 512;" xml:space="preserve">
<linearGradient id="SVGID_1_" gradientUnits="userSpaceOnUse" x1="-329.6843" y1="265.7272" x2="-329.6843" y2="266.7272" gradientTransform="matrix(512 0 0 389.12 169054.3594 -103337.7188)">
	<stop  offset="0" style="stop-color:#5CEECA"/>
	<stop  offset="1" style="stop-color:#64CCFA"/>
</linearGradient>
<path style="fill:url(#SVGID_1_);" d="M347.607,245.76c-5.12,46.019-44.237,81.92-91.607,81.92c-47.35,0-86.467-35.901-91.587-81.92
	H0v174.08c0,16.937,13.783,30.72,30.72,30.72h450.56c16.937,0,30.72-13.783,30.72-30.72V245.76H347.607z M174.08,225.28H5.12
	L118.784,73.748c5.755-7.7,14.971-12.308,24.576-12.308h225.28c9.626,0,18.821,4.608,24.596,12.308L506.88,225.28H337.92
	c-5.652,0-10.24,4.588-10.24,10.24c0,39.526-32.154,71.68-71.68,71.68c-39.506,0-71.68-32.154-71.68-71.68
	C184.32,229.868,179.753,225.28,174.08,225.28L174.08,225.28z"/>
<g>
</g>
<g>
</g>
<g>
</g>
<g>
</g>
<g>
</g>
<g>
</g>
<g>
</g>
<g>
</g>
<g>
</g>
<g>
</g>
<g>
</g>
<g>
</g>
<g>
</g>
<g>
</g>
<g>
</g>
</svg>
