<?xml version="1.0" encoding="iso-8859-1"?>
<!-- Generator: Adobe Illustrator 19.0.0, SVG Export Plug-In . SVG Version: 6.00 Build 0)  -->
<svg version="1.1" id="Capa_1" xmlns="http://www.w3.org/2000/svg" xmlns:xlink="http://www.w3.org/1999/xlink" x="0px" y="0px"
	 viewBox="0 0 512 512" style="enable-background:new 0 0 512 512;" xml:space="preserve">
<linearGradient id="SVGID_1_" gradientUnits="userSpaceOnUse" x1="-330.6443" y1="262.0342" x2="-330.6443" y2="263.0342" gradientTransform="matrix(512 0 0 471.04 169545.875 -123408.1172)">
	<stop  offset="0.029" style="stop-color:#FF5D3B"/>
	<stop  offset="1" style="stop-color:#FF2D67"/>
</linearGradient>
<path style="fill:url(#SVGID_1_);" d="M256,368.64c5.652,0,10.24,4.588,10.24,10.24c0,5.652-4.588,10.24-10.24,10.24
	c-5.652,0-10.24-4.588-10.24-10.24C245.76,373.228,250.348,368.64,256,368.64L256,368.64z M0,399.36v-51.2h512v51.2
	c0,16.937-13.783,30.72-30.72,30.72H30.72C13.783,430.08,0,416.297,0,399.36z M481.28,20.48c16.937,0,30.72,13.783,30.72,30.72
	v276.48H0V51.2c0-16.937,13.783-30.72,30.72-30.72H481.28z M358.4,471.04c5.652,0,10.24,4.588,10.24,10.24s-4.588,10.24-10.24,10.24
	h-20.48H174.08H153.6c-5.652,0-10.24-4.588-10.24-10.24s4.588-10.24,10.24-10.24h17.797c4.178-2.478,14.561-9.482,22.692-20.48
	h123.822c8.131,10.998,18.514,18.002,22.692,20.48H358.4z"/>
<g>
</g>
<g>
</g>
<g>
</g>
<g>
</g>
<g>
</g>
<g>
</g>
<g>
</g>
<g>
</g>
<g>
</g>
<g>
</g>
<g>
</g>
<g>
</g>
<g>
</g>
<g>
</g>
<g>
</g>
</svg>
