<?xml version="1.0" encoding="iso-8859-1"?>
<!-- Generator: Adobe Illustrator 19.0.0, SVG Export Plug-In . SVG Version: 6.00 Build 0)  -->
<svg version="1.1" id="Capa_1" xmlns="http://www.w3.org/2000/svg" xmlns:xlink="http://www.w3.org/1999/xlink" x="0px" y="0px"
	 viewBox="0 0 512.005 512.005" style="enable-background:new 0 0 512.005 512.005;" xml:space="preserve">
<linearGradient id="SVGID_1_" gradientUnits="userSpaceOnUse" x1="-330.6512" y1="260.6357" x2="-330.6512" y2="261.6357" gradientTransform="matrix(511.9897 0 0 512.0041 169546.0156 -133446.5781)">
	<stop  offset="0" style="stop-color:#5CEECA"/>
	<stop  offset="1" style="stop-color:#64CCFA"/>
</linearGradient>
<path style="fill:url(#SVGID_1_);" d="M204.792,512.005v-204.8h102.4v204.8H204.792z M430.072,51.205v89.969l-81.92-81.92v-8.049
	c0-5.652,4.588-10.24,10.24-10.24h61.44C425.485,40.965,430.072,45.553,430.072,51.205z M509.002,248.755
	c3.994,3.994,3.994,10.486,0,14.479c-2.007,2.007-4.628,3.011-7.25,3.011c-2.601,0-5.222-1.004-7.229-3.011l-43.971-43.95v282.481
	c0,5.652-4.567,10.24-10.24,10.24h-112.64v-215.04c0-5.673-4.567-10.24-10.24-10.24h-122.88c-5.652,0-10.24,4.567-10.24,10.24
	v215.04H71.672c-5.652,0-10.24-4.588-10.24-10.24V219.284l-43.95,43.95c-3.994,3.994-10.486,3.994-14.479,0s-3.994-10.486,0-14.479
	l61.44-61.44l184.32-184.32c3.994-3.994,10.486-3.994,14.479,0l184.32,184.32L509.002,248.755z"/>
<g>
</g>
<g>
</g>
<g>
</g>
<g>
</g>
<g>
</g>
<g>
</g>
<g>
</g>
<g>
</g>
<g>
</g>
<g>
</g>
<g>
</g>
<g>
</g>
<g>
</g>
<g>
</g>
<g>
</g>
</svg>
