<?xml version="1.0" encoding="iso-8859-1"?>
<!-- Generator: Adobe Illustrator 19.0.0, SVG Export Plug-In . SVG Version: 6.00 Build 0)  -->
<svg version="1.1" id="Capa_1" xmlns="http://www.w3.org/2000/svg" xmlns:xlink="http://www.w3.org/1999/xlink" x="0px" y="0px"
	 viewBox="0 0 512 512" style="enable-background:new 0 0 512 512;" xml:space="preserve">
<linearGradient id="SVGID_1_" gradientUnits="userSpaceOnUse" x1="-329.6847" y1="260.6413" x2="-329.6847" y2="261.6413" gradientTransform="matrix(512 0 0 511.9795 169054.5469 -133443.0156)">
	<stop  offset="0.029" style="stop-color:#FF5D3B"/>
	<stop  offset="1" style="stop-color:#FF2D67"/>
</linearGradient>
<path style="fill:url(#SVGID_1_);" d="M290.559,257.372c-15.216,8.396-24.309,22.527-24.309,37.805v22.261
	c0,5.652-4.587,10.24-10.24,10.24c-5.673,0-10.26-4.587-10.26-10.24v-20.479c0-24.657,13.066-45.484,34.937-57.526
	c19.496-10.752,29.572-32.05,25.681-54.249c-3.604-20.52-20.479-37.395-40.999-40.999c-15.462-2.703-30.473,1.229-42.269,11.141
	c-11.632,9.769-18.288,24.063-18.288,39.238c0,5.652-4.587,10.24-10.24,10.24c-5.673,0-10.24-4.587-10.24-10.24
	c0-21.237,9.339-41.266,25.578-54.925c16.26-13.66,37.723-19.332,59.001-15.626c28.876,5.079,52.57,28.773,57.628,57.628
	C331.886,212.134,317.427,242.545,290.559,257.372 M256.01,389.115c-11.305,0-20.5-9.195-20.5-20.479
	c0-11.305,9.195-20.479,20.5-20.479c11.284,0,20.479,9.175,20.479,20.479C276.489,379.92,267.294,389.115,256.01,389.115
	 M256.01,0.01C114.847,0.01,0,114.837,0,256c0,141.143,114.847,255.99,256.01,255.99C397.153,511.99,512,397.143,512,256
	C512,114.837,397.153,0.01,256.01,0.01"/>
<g>
</g>
<g>
</g>
<g>
</g>
<g>
</g>
<g>
</g>
<g>
</g>
<g>
</g>
<g>
</g>
<g>
</g>
<g>
</g>
<g>
</g>
<g>
</g>
<g>
</g>
<g>
</g>
<g>
</g>
</svg>
