<?xml version="1.0" encoding="iso-8859-1"?>
<!-- Generator: Adobe Illustrator 19.0.0, SVG Export Plug-In . SVG Version: 6.00 Build 0)  -->
<svg version="1.1" id="Capa_1" xmlns="http://www.w3.org/2000/svg" xmlns:xlink="http://www.w3.org/1999/xlink" x="0px" y="0px"
	 viewBox="0 0 512 512" style="enable-background:new 0 0 512 512;" xml:space="preserve">
<linearGradient id="SVGID_1_" gradientUnits="userSpaceOnUse" x1="-330.6443" y1="262.0342" x2="-330.6443" y2="263.0142" gradientTransform="matrix(512 0 0 471.04 169545.875 -123408.1172)">
	<stop  offset="0" style="stop-color:#EE4DB7"/>
	<stop  offset="1" style="stop-color:#C743F9"/>
</linearGradient>
<path style="fill:url(#SVGID_1_);" d="M512,163.84c0-79.053-64.328-143.36-143.36-143.36c-44.442,0-85.565,20.255-112.64,54.866
	C228.925,40.735,187.802,20.48,143.36,20.48C64.328,20.48,0,84.787,0,163.84c0,2.601,0.123,5.181,0.328,7.741
	C0.123,172.38,0,173.22,0,174.08c0,191.181,234.414,317.44,256,317.44s256-126.259,256-317.44c0-0.84-0.123-1.638-0.328-2.417
	C511.857,169.083,512,166.482,512,163.84"/>
<g>
</g>
<g>
</g>
<g>
</g>
<g>
</g>
<g>
</g>
<g>
</g>
<g>
</g>
<g>
</g>
<g>
</g>
<g>
</g>
<g>
</g>
<g>
</g>
<g>
</g>
<g>
</g>
<g>
</g>
</svg>
