<?xml version="1.0" encoding="iso-8859-1"?>
<!-- Generator: Adobe Illustrator 19.0.0, SVG Export Plug-In . SVG Version: 6.00 Build 0)  -->
<svg version="1.1" id="Capa_1" xmlns="http://www.w3.org/2000/svg" xmlns:xlink="http://www.w3.org/1999/xlink" x="0px" y="0px"
	 viewBox="0 0 512 512" style="enable-background:new 0 0 512 512;" xml:space="preserve">
<linearGradient id="SVGID_1_" gradientUnits="userSpaceOnUse" x1="-330.6443" y1="265.7272" x2="-330.6443" y2="266.7272" gradientTransform="matrix(512 0 0 389.12 169545.875 -103337.7188)">
	<stop  offset="0" style="stop-color:#5CEECA"/>
	<stop  offset="1" style="stop-color:#64CCFA"/>
</linearGradient>
<path style="fill:url(#SVGID_1_);" d="M409.6,296.96c0-5.632,4.608-10.24,10.24-10.24s10.24,4.608,10.24,10.24v122.88
	c0,5.632-4.608,10.24-10.24,10.24s-10.24-4.608-10.24-10.24V296.96z M102.4,419.84c0,5.632-4.608,10.24-10.24,10.24
	c-5.632,0-10.24-4.608-10.24-10.24V296.96c0-5.632,4.608-10.24,10.24-10.24c5.632,0,10.24,4.608,10.24,10.24V419.84z
	 M430.08,267.284C476.037,272.445,512,311.071,512,358.4c0,48.701-38.072,88.289-85.975,91.546
	c-2.089,0.143-4.055,0.614-6.185,0.614c-16.937,0-30.72-13.783-30.72-30.72V296.96c0-13.332,8.581-24.596,20.48-28.836V235.52
	c0-84.705-68.895-153.6-153.6-153.6s-153.6,68.895-153.6,153.6v32.604c11.899,4.239,20.48,15.503,20.48,28.836v122.88
	c0,16.937-13.783,30.72-30.72,30.72c-2.13,0-4.096-0.471-6.185-0.614C38.072,446.689,0,407.101,0,358.4
	c0-47.329,35.963-85.955,81.92-91.116V235.52c0-95.99,78.09-174.08,174.08-174.08s174.08,78.09,174.08,174.08V267.284z
	 M324.69,310.19l20.48,20.48c3.994,3.994,3.994,10.486,0,14.479s-10.486,3.994-14.479,0l-11.633-11.633l-34.038,51.036
	c-1.72,2.56-4.465,4.198-7.537,4.526c-2.847,0.143-6.083-0.799-8.233-2.97l-32.113-32.113L203.1,405.033
	c-1.72,2.56-4.465,4.198-7.537,4.526c-0.328,0.041-0.655,0.041-1.004,0.041c-2.683,0-5.304-1.065-7.229-3.011l-20.48-20.48
	c-3.994-3.994-3.994-10.486,0-14.479c3.994-3.994,10.486-3.994,14.479,0l11.633,11.633L227,332.227
	c1.7-2.56,4.465-4.198,7.537-4.526c2.806-0.164,6.083,0.799,8.233,2.97l32.113,32.113l34.038-51.036
	c1.7-2.56,4.465-4.198,7.537-4.526C319.324,307.098,322.519,308.019,324.69,310.19z"/>
<g>
</g>
<g>
</g>
<g>
</g>
<g>
</g>
<g>
</g>
<g>
</g>
<g>
</g>
<g>
</g>
<g>
</g>
<g>
</g>
<g>
</g>
<g>
</g>
<g>
</g>
<g>
</g>
<g>
</g>
</svg>
