<?xml version="1.0" encoding="iso-8859-1"?>
<!-- Generator: Adobe Illustrator 19.0.0, SVG Export Plug-In . SVG Version: 6.00 Build 0)  -->
<svg version="1.1" id="Capa_1" xmlns="http://www.w3.org/2000/svg" xmlns:xlink="http://www.w3.org/1999/xlink" x="0px" y="0px"
	 viewBox="0 0 512 512" style="enable-background:new 0 0 512 512;" xml:space="preserve">
<linearGradient id="SVGID_1_" gradientUnits="userSpaceOnUse" x1="-329.6631" y1="260.7023" x2="-329.6631" y2="261.6723" gradientTransform="matrix(511.9918 0 0 510.4899 169040.7813 -133068.0625)">
	<stop  offset="0" style="stop-color:#FF5D3B"/>
	<stop  offset="1" style="stop-color:#FF2D67"/>
</linearGradient>
<path style="fill:url(#SVGID_1_);" d="M266.248,389.616c29.114,0.636,57.078,3.837,82.786,9.294
	c-18.67,61.797-48.83,104.985-82.786,112.33L266.248,389.616L266.248,389.616z M368.607,266.248
	c-0.739,40.336-5.704,78.641-14.075,112.494c-27.226-5.745-56.976-9.027-88.264-9.643V266.248H368.607L368.607,266.248z
	 M266.248,0.759c33.956,7.345,64.115,50.533,82.786,112.33c-25.708,5.457-53.672,8.658-82.786,9.294L266.248,0.759L266.248,0.759z
	 M245.731,511.241c-33.956-7.345-64.115-50.533-82.786-112.33c25.708-5.458,53.672-8.658,82.786-9.294V511.241z M354.533,133.237
	c8.35,33.832,13.315,72.158,14.075,112.494H266.248V142.88C297.557,142.264,327.307,138.982,354.533,133.237z M245.731,122.383
	c-29.114-0.636-57.078-3.837-82.786-9.294c18.67-61.797,48.83-104.985,82.786-112.33V122.383z M143.393,245.731
	c0.739-40.336,5.704-78.641,14.075-112.494c27.226,5.745,56.976,9.027,88.264,9.643v102.851H143.393z M157.447,378.743
	c-8.35-33.832-13.315-72.158-14.075-112.494h102.359V369.1C214.422,369.715,184.693,372.998,157.447,378.743z M374.721,128.374
	c31.206-8.289,58.494-19.819,80.385-33.75c34.776,42.819,54.678,95.65,56.873,151.107H389.104
	C388.385,203.261,383.338,163.54,374.721,128.374z M137.258,383.605c-31.206,8.289-58.494,19.819-80.385,33.75
	C22.097,374.537,2.195,321.705,0,266.248h122.876C123.594,308.718,128.641,348.439,137.258,383.605z M389.124,266.248H512
	c-2.195,55.457-22.097,108.288-56.873,151.107c-21.912-13.931-49.2-25.461-80.385-33.75
	C383.359,348.419,388.406,308.698,389.124,266.248z M122.876,245.731H0c2.195-55.457,22.097-108.288,56.873-151.107
	c21.912,13.931,49.2,25.462,80.385,33.75C128.641,163.561,123.594,203.282,122.876,245.731z M314.832,6.606
	c47.866,11.305,91.772,36.233,126.2,72.179c-19.655,11.9-44.07,21.994-71.809,29.462C356.153,64.464,337.36,29.175,314.832,6.606z
	 M197.147,505.373c-47.866-11.305-91.772-36.233-126.2-72.179c19.655-11.9,44.07-21.994,71.809-29.462
	C155.826,447.536,174.62,482.784,197.147,505.373z M197.147,6.606c-22.528,22.589-41.321,57.858-54.39,101.641
	c-27.739-7.468-52.154-17.562-71.809-29.462C105.375,42.839,149.281,17.911,197.147,6.606z M314.832,505.373
	c22.528-22.569,41.321-57.858,54.39-101.641c27.739,7.468,52.154,17.563,71.809,29.462
	C406.605,469.161,362.698,494.089,314.832,505.373z"/>
<g>
</g>
<g>
</g>
<g>
</g>
<g>
</g>
<g>
</g>
<g>
</g>
<g>
</g>
<g>
</g>
<g>
</g>
<g>
</g>
<g>
</g>
<g>
</g>
<g>
</g>
<g>
</g>
<g>
</g>
</svg>
