<?xml version="1.0" encoding="iso-8859-1"?>
<!-- Generator: Adobe Illustrator 19.0.0, SVG Export Plug-In . SVG Version: 6.00 Build 0)  -->
<svg version="1.1" id="Capa_1" xmlns="http://www.w3.org/2000/svg" xmlns:xlink="http://www.w3.org/1999/xlink" x="0px" y="0px"
	 viewBox="0 0 512 512" style="enable-background:new 0 0 512 512;" xml:space="preserve">
<linearGradient id="SVGID_1_" gradientUnits="userSpaceOnUse" x1="-330.6443" y1="263.7232" x2="-330.6443" y2="264.6732" gradientTransform="matrix(512 0 0 430.08 169545.875 -113372.9141)">
	<stop  offset="0" style="stop-color:#FF9400"/>
	<stop  offset="1" style="stop-color:#FF5F39"/>
</linearGradient>
<path style="fill:url(#SVGID_1_);" d="M409.6,348.16c-11.325,0-20.48-9.155-20.48-20.48s9.155-20.48,20.48-20.48
	c11.325,0,20.48,9.155,20.48,20.48S420.925,348.16,409.6,348.16L409.6,348.16z M368.64,389.12c-11.325,0-20.48-9.155-20.48-20.48
	c0-11.325,9.155-20.48,20.48-20.48c11.325,0,20.48,9.155,20.48,20.48C389.12,379.965,379.965,389.12,368.64,389.12L368.64,389.12z
	 M184.32,358.4c0,5.652-4.588,10.24-10.24,10.24h-30.72v30.72c0,5.652-4.588,10.24-10.24,10.24h-20.48
	c-5.652,0-10.24-4.588-10.24-10.24v-30.72H71.68c-5.652,0-10.24-4.588-10.24-10.24v-20.48c0-5.652,4.588-10.24,10.24-10.24h30.72
	v-30.72c0-5.652,4.588-10.24,10.24-10.24h20.48c5.652,0,10.24,4.588,10.24,10.24v30.72h30.72c5.652,0,10.24,4.588,10.24,10.24V358.4
	z M403.558,226.181c-1.27-0.573-2.703-0.901-4.198-0.901H266.875c3.195-46.203,27.238-58.819,55.153-72.765
	c31.457-15.708,67.092-33.546,67.092-101.315c0-5.652-4.588-10.24-10.24-10.24c-5.652,0-10.24,4.588-10.24,10.24
	c0,55.112-25.846,68.035-55.788,83.005c-29.798,14.889-63.283,31.764-66.744,91.075H112.64c-1.393,0-2.744,0.328-3.953,0.881
	C46.51,233.267,0,285.204,0,348.16c0,67.768,55.112,122.88,122.88,122.88c35.164,0,68.26-14.868,91.587-40.96h83.067
	c23.327,26.092,56.422,40.96,91.587,40.96c67.768,0,122.88-55.112,122.88-122.88C512,285.286,465.613,233.39,403.558,226.181
	L403.558,226.181z"/>
<g>
</g>
<g>
</g>
<g>
</g>
<g>
</g>
<g>
</g>
<g>
</g>
<g>
</g>
<g>
</g>
<g>
</g>
<g>
</g>
<g>
</g>
<g>
</g>
<g>
</g>
<g>
</g>
<g>
</g>
</svg>
