<?xml version="1.0" encoding="iso-8859-1"?>
<!-- Generator: Adobe Illustrator 19.0.0, SVG Export Plug-In . SVG Version: 6.00 Build 0)  -->
<svg version="1.1" id="Capa_1" xmlns="http://www.w3.org/2000/svg" xmlns:xlink="http://www.w3.org/1999/xlink" x="0px" y="0px"
	 viewBox="0 0 512 512" style="enable-background:new 0 0 512 512;" xml:space="preserve">
<linearGradient id="SVGID_1_" gradientUnits="userSpaceOnUse" x1="-327.3384" y1="260.6315" x2="-327.3384" y2="261.6315" gradientTransform="matrix(430.08 0 0 512 141037.7188 -133443.3125)">
	<stop  offset="0" style="stop-color:#1AD6FD"/>
	<stop  offset="1" style="stop-color:#1D67F0"/>
</linearGradient>
<path style="fill:url(#SVGID_1_);" d="M466.186,22.016c-3.011-1.864-6.779-2.048-9.953-0.451
	C455.844,21.77,416.748,40.96,358.4,40.96c-36.844,0-60.969-8.806-86.508-18.145C242.627,12.124,209.469,0,153.6,0
	C69.98,0,46.449,21.033,43.991,23.47c-1.864,1.864-3.031,4.424-3.031,7.25v471.04c0,5.673,4.588,10.24,10.24,10.24
	c5.673,0,10.24-4.567,10.24-10.24V322.785c8.11-4.69,33.239-15.585,92.16-15.585c52.244,0,82.248,10.957,111.268,21.586
	c27.279,9.953,53.064,19.374,93.532,19.374c63.14,0,105.226-20.664,106.987-21.545c3.461-1.741,5.652-5.284,5.652-9.175V30.72
	C471.04,27.177,469.197,23.88,466.186,22.016"/>
<g>
</g>
<g>
</g>
<g>
</g>
<g>
</g>
<g>
</g>
<g>
</g>
<g>
</g>
<g>
</g>
<g>
</g>
<g>
</g>
<g>
</g>
<g>
</g>
<g>
</g>
<g>
</g>
<g>
</g>
</svg>
