<?xml version="1.0" encoding="iso-8859-1"?>
<!-- Generator: Adobe Illustrator 19.0.0, SVG Export Plug-In . SVG Version: 6.00 Build 0)  -->
<svg version="1.1" id="Capa_1" xmlns="http://www.w3.org/2000/svg" xmlns:xlink="http://www.w3.org/1999/xlink" x="0px" y="0px"
	 viewBox="0 0 512 512" style="enable-background:new 0 0 512 512;" xml:space="preserve">
<linearGradient id="SVGID_1_" gradientUnits="userSpaceOnUse" x1="-34.1074" y1="646.2129" x2="-34.1074" y2="621.8089" gradientTransform="matrix(20.48 0 0 -20.48 954.52 13234.4395)">
	<stop  offset="0" style="stop-color:#EE4DB7"/>
	<stop  offset="1" style="stop-color:#C743F9"/>
</linearGradient>
<path style="fill:url(#SVGID_1_);" d="M11.776,120.32c30.188,67.953,112.148,139.878,165.274,181.453
	c17.654,13.804,27.75,34.447,27.75,56.627v143.36c0,3.154,1.454,6.144,3.932,8.09c1.823,1.413,4.035,2.15,6.308,2.15
	c0.819,0,1.659-0.082,2.478-0.307l81.92-20.48c4.567-1.126,7.762-5.222,7.762-9.933V358.4c0-22.18,10.097-42.824,27.73-56.627
	c53.146-41.574,135.107-113.5,165.294-181.453C435.22,161.198,291.41,163.84,256,163.84C220.57,163.84,76.78,161.198,11.776,120.32
	 M0,71.68C0,24.637,128.778,0,256,0s256,24.637,256,71.68c0,47.063-128.778,71.68-256,71.68S0,118.743,0,71.68"/>
<g>
</g>
<g>
</g>
<g>
</g>
<g>
</g>
<g>
</g>
<g>
</g>
<g>
</g>
<g>
</g>
<g>
</g>
<g>
</g>
<g>
</g>
<g>
</g>
<g>
</g>
<g>
</g>
<g>
</g>
</svg>
