<?xml version="1.0" encoding="iso-8859-1"?>
<!-- Generator: Adobe Illustrator 19.0.0, SVG Export Plug-In . SVG Version: 6.00 Build 0)  -->
<svg version="1.1" id="Capa_1" xmlns="http://www.w3.org/2000/svg" xmlns:xlink="http://www.w3.org/1999/xlink" x="0px" y="0px"
	 viewBox="0 0 512.005 512.005" style="enable-background:new 0 0 512.005 512.005;" xml:space="preserve">
<linearGradient id="SVGID_1_" gradientUnits="userSpaceOnUse" x1="-330.6339" y1="260.6374" x2="-330.6339" y2="261.6374" gradientTransform="matrix(511.9857 0 0 512 169535.8438 -133446.3281)">
	<stop  offset="0" style="stop-color:#85FC6D"/>
	<stop  offset="1" style="stop-color:#0AD31A"/>
</linearGradient>
<path style="fill:url(#SVGID_1_);" d="M184.33,276.485c0-2.724,1.085-5.325,2.99-7.25l228.291-228.27l55.439,55.439L242.78,324.695
	c-1.925,1.905-4.526,2.99-7.25,2.99h-40.96c-5.652,0-10.24-4.588-10.24-10.24V276.485z M403.282,202.061
	c3.83,1.577,6.328,5.325,6.328,9.462v290.243c0,5.652-4.588,10.24-10.24,10.24H10.25c-5.673,0-10.24-4.588-10.24-10.24v-389.12
	c0-5.673,4.567-10.24,10.24-10.24h290.222c4.157,0,7.885,2.478,9.462,6.308c1.597,3.83,0.717,8.233-2.212,11.162L163.85,263.747
	v74.179c0,5.652,4.588,10.24,10.24,10.24h74.158L392.12,204.273C395.069,201.344,399.473,200.463,403.282,202.061z M509,43.955
	c3.994,3.994,3.994,10.486,0,14.479l-23.47,23.491l-55.46-55.46l23.491-23.47c3.994-3.994,10.486-3.994,14.479,0L509,43.955z"/>
<g>
</g>
<g>
</g>
<g>
</g>
<g>
</g>
<g>
</g>
<g>
</g>
<g>
</g>
<g>
</g>
<g>
</g>
<g>
</g>
<g>
</g>
<g>
</g>
<g>
</g>
<g>
</g>
<g>
</g>
</svg>
