<?xml version="1.0" encoding="iso-8859-1"?>
<!-- Generator: Adobe Illustrator 19.0.0, SVG Export Plug-In . SVG Version: 6.00 Build 0)  -->
<svg version="1.1" id="Capa_1" xmlns="http://www.w3.org/2000/svg" xmlns:xlink="http://www.w3.org/1999/xlink" x="0px" y="0px"
	 viewBox="0 0 512 512" style="enable-background:new 0 0 512 512;" xml:space="preserve">
<linearGradient id="SVGID_1_" gradientUnits="userSpaceOnUse" x1="-324.8298" y1="260.6315" x2="-324.8298" y2="261.6315" gradientTransform="matrix(348.16 0 0 512 113348.7578 -133443.3125)">
	<stop  offset="0" style="stop-color:#1AD6FD"/>
	<stop  offset="1" style="stop-color:#1D67F0"/>
</linearGradient>
<path style="fill:url(#SVGID_1_);" d="M266.24,10.24C266.24,4.588,261.652,0,256,0c-5.652,0-10.24,4.588-10.24,10.24v153.6h20.48
	V10.24z M430.08,174.08v327.68c0,5.652-4.588,10.24-10.24,10.24H92.16c-5.652,0-10.24-4.588-10.24-10.24V174.08
	c0-5.652,4.588-10.24,10.24-10.24h153.6v169.841l-64.43-64.451c-4.014-3.994-10.486-3.994-14.5,0c-3.994,4.014-3.994,10.486,0,14.5
	l81.92,81.9c0.942,0.942,2.089,1.72,3.338,2.232c1.249,0.492,2.58,0.778,3.912,0.778c1.331,0,2.662-0.287,3.912-0.778
	c1.249-0.512,2.396-1.29,3.338-2.232l81.92-81.9c3.994-4.014,3.994-10.486,0-14.5c-4.014-3.994-10.486-3.994-14.5,0l-64.43,64.451
	V163.84h153.6C425.492,163.84,430.08,168.428,430.08,174.08L430.08,174.08z"/>
<g>
</g>
<g>
</g>
<g>
</g>
<g>
</g>
<g>
</g>
<g>
</g>
<g>
</g>
<g>
</g>
<g>
</g>
<g>
</g>
<g>
</g>
<g>
</g>
<g>
</g>
<g>
</g>
<g>
</g>
</svg>
