<?xml version="1.0" encoding="iso-8859-1"?>
<!-- Generator: Adobe Illustrator 19.0.0, SVG Export Plug-In . SVG Version: 6.00 Build 0)  -->
<svg version="1.1" id="Capa_1" xmlns="http://www.w3.org/2000/svg" xmlns:xlink="http://www.w3.org/1999/xlink" x="0px" y="0px"
	 viewBox="0 0 512 512" style="enable-background:new 0 0 512 512;" xml:space="preserve">
<linearGradient id="SVGID_1_" gradientUnits="userSpaceOnUse" x1="-326.7425" y1="260.6315" x2="-326.7425" y2="261.6315" gradientTransform="matrix(389.12 0 0 512 127398.0391 -133443.3125)">
	<stop  offset="0.029" style="stop-color:#FF5D3B"/>
	<stop  offset="1" style="stop-color:#FF2D67"/>
</linearGradient>
<path style="fill:url(#SVGID_1_);" d="M296.96,163.84c-5.652,0-10.24-4.588-10.24-10.24V1.618C283.013,0.594,279.552,0,276.48,0
	H71.68c-5.652,0-10.24,4.588-10.24,10.24v491.52c0,5.652,4.588,10.24,10.24,10.24h368.64c5.652,0,10.24-4.588,10.24-10.24V174.08
	c0-3.072-0.594-6.533-1.618-10.24H296.96z M440.013,143.36H307.2V10.547C352.031,35.226,415.334,98.529,440.013,143.36
	L440.013,143.36z"/>
<g>
</g>
<g>
</g>
<g>
</g>
<g>
</g>
<g>
</g>
<g>
</g>
<g>
</g>
<g>
</g>
<g>
</g>
<g>
</g>
<g>
</g>
<g>
</g>
<g>
</g>
<g>
</g>
<g>
</g>
</svg>
