<?xml version="1.0" encoding="iso-8859-1"?>
<!-- Generator: Adobe Illustrator 19.0.0, SVG Export Plug-In . SVG Version: 6.00 Build 0)  -->
<svg version="1.1" id="Capa_1" xmlns="http://www.w3.org/2000/svg" xmlns:xlink="http://www.w3.org/1999/xlink" x="0px" y="0px"
	 viewBox="0 0 512 512" style="enable-background:new 0 0 512 512;" xml:space="preserve">
<linearGradient id="SVGID_1_" gradientUnits="userSpaceOnUse" x1="-329.6843" y1="265.7272" x2="-329.6843" y2="266.7272" gradientTransform="matrix(512 0 0 389.12 169054.3594 -103337.7188)">
	<stop  offset="0.029" style="stop-color:#FF5D3B"/>
	<stop  offset="1" style="stop-color:#FF2D67"/>
</linearGradient>
<path style="fill:url(#SVGID_1_);" d="M406.61,330.67c3.994,3.994,3.994,10.486,0,14.479c-2.007,2.007-4.628,3.011-7.25,3.011
	c-2.601,0-5.222-1.004-7.229-3.011l-74.691-74.67l-74.67,74.67c-2.007,2.007-4.628,3.011-7.25,3.011
	c-2.601,0-5.222-1.004-7.229-3.011c-3.994-3.994-3.994-10.486,0-14.479l74.67-74.67l-74.67-74.691
	c-3.994-3.994-3.994-10.486,0-14.479c3.994-3.994,10.486-3.994,14.479,0l74.67,74.67l74.691-74.67
	c3.994-3.994,10.486-3.994,14.479,0c3.994,3.994,3.994,10.486,0,14.479L331.94,256L406.61,330.67z M481.28,61.44H183.296
	c-8.765,0-17.121,3.748-22.979,10.301L2.58,249.18c-3.441,3.891-3.441,9.728,0,13.619l157.757,177.459
	c5.837,6.533,14.193,10.301,22.958,10.301H481.28c16.957,0,30.72-13.783,30.72-30.72V92.16C512,75.203,498.237,61.44,481.28,61.44
	L481.28,61.44z"/>
<g>
</g>
<g>
</g>
<g>
</g>
<g>
</g>
<g>
</g>
<g>
</g>
<g>
</g>
<g>
</g>
<g>
</g>
<g>
</g>
<g>
</g>
<g>
</g>
<g>
</g>
<g>
</g>
<g>
</g>
</svg>
