<?xml version="1.0" encoding="iso-8859-1"?>
<!-- Generator: Adobe Illustrator 19.0.0, SVG Export Plug-In . SVG Version: 6.00 Build 0)  -->
<svg version="1.1" id="Capa_1" xmlns="http://www.w3.org/2000/svg" xmlns:xlink="http://www.w3.org/1999/xlink" x="0px" y="0px"
	 viewBox="0 0 512 512" style="enable-background:new 0 0 512 512;" xml:space="preserve">
<linearGradient id="SVGID_1_" gradientUnits="userSpaceOnUse" x1="-330.6443" y1="268.2192" x2="-330.6443" y2="269.2192" gradientTransform="matrix(512 0 0 348.16 169545.875 -93302.5156)">
	<stop  offset="0" style="stop-color:#5CEECA"/>
	<stop  offset="1" style="stop-color:#64CCFA"/>
</linearGradient>
<path style="fill:url(#SVGID_1_);" d="M512,163.84H0v-51.2c0-16.937,13.783-30.72,30.72-30.72h450.56
	c16.937,0,30.72,13.783,30.72,30.72V163.84z M0,225.28h512v174.08c0,16.937-13.783,30.72-30.72,30.72H30.72
	C13.783,430.08,0,416.297,0,399.36V225.28z M194.56,348.16c5.652,0,10.24-4.588,10.24-10.24s-4.588-10.24-10.24-10.24H92.16
	c-5.652,0-10.24,4.588-10.24,10.24s4.588,10.24,10.24,10.24H194.56z M276.48,307.2c5.652,0,10.24-4.587,10.24-10.24
	c0-5.652-4.588-10.24-10.24-10.24H92.16c-5.652,0-10.24,4.588-10.24,10.24c0,5.652,4.588,10.24,10.24,10.24H276.48z"/>
<g>
</g>
<g>
</g>
<g>
</g>
<g>
</g>
<g>
</g>
<g>
</g>
<g>
</g>
<g>
</g>
<g>
</g>
<g>
</g>
<g>
</g>
<g>
</g>
<g>
</g>
<g>
</g>
<g>
</g>
</svg>
