<?xml version="1.0" encoding="iso-8859-1"?>
<!-- Generator: Adobe Illustrator 19.0.0, SVG Export Plug-In . SVG Version: 6.00 Build 0)  -->
<svg version="1.1" id="Capa_1" xmlns="http://www.w3.org/2000/svg" xmlns:xlink="http://www.w3.org/1999/xlink" x="0px" y="0px"
	 viewBox="0 0 512 512" style="enable-background:new 0 0 512 512;" xml:space="preserve">
<linearGradient id="SVGID_1_" gradientUnits="userSpaceOnUse" x1="-330.6443" y1="268.2192" x2="-330.6443" y2="269.1992" gradientTransform="matrix(512 0 0 348.16 169545.875 -93302.5156)">
	<stop  offset="0" style="stop-color:#EE4DB7"/>
	<stop  offset="1" style="stop-color:#C743F9"/>
</linearGradient>
<path style="fill:url(#SVGID_1_);" d="M450.232,234.107c0.205-2.929,0.328-5.857,0.328-8.827c0-79.053-64.328-143.36-143.36-143.36
	c-57.057,0-108.442,34.017-131.154,85.709c-7.332-2.519-14.848-3.789-22.446-3.789c-36.598,0-66.888,27.566-71.086,63.836
	C34.918,237.036,0,278.589,0,327.68c0,56.463,45.937,102.4,102.4,102.4h307.2c56.443,0,102.4-45.937,102.4-102.4
	C512,286.884,487.485,250.225,450.232,234.107"/>
<g>
</g>
<g>
</g>
<g>
</g>
<g>
</g>
<g>
</g>
<g>
</g>
<g>
</g>
<g>
</g>
<g>
</g>
<g>
</g>
<g>
</g>
<g>
</g>
<g>
</g>
<g>
</g>
<g>
</g>
</svg>
