<?xml version="1.0" encoding="iso-8859-1"?>
<!-- Generator: Adobe Illustrator 19.0.0, SVG Export Plug-In . SVG Version: 6.00 Build 0)  -->
<svg version="1.1" id="Capa_1" xmlns="http://www.w3.org/2000/svg" xmlns:xlink="http://www.w3.org/1999/xlink" x="0px" y="0px"
	 viewBox="0 0 512 512" style="enable-background:new 0 0 512 512;" xml:space="preserve">
<linearGradient id="SVGID_1_" gradientUnits="userSpaceOnUse" x1="-34.1074" y1="645.6879" x2="-34.1074" y2="622.0029" gradientTransform="matrix(20.48 0 0 -20.48 954.52 13234.4395)">
	<stop  offset="0" style="stop-color:#FF9400"/>
	<stop  offset="1" style="stop-color:#FF5F39"/>
</linearGradient>
<path style="fill:url(#SVGID_1_);" d="M245.76,501.76c0,5.652,4.588,10.24,10.24,10.24c5.652,0,10.24-4.588,10.24-10.24v-153.6
	h-20.48V501.76z M512,245.76c0,56.463-45.937,102.4-102.4,102.4H266.24V219.279l64.43,64.451c2.007,1.987,4.628,2.99,7.25,2.99
	c2.621,0,5.243-1.004,7.25-2.99c3.994-4.014,3.994-10.486,0-14.5l-81.92-81.9c-0.942-0.942-2.089-1.7-3.338-2.212
	c-2.519-1.044-5.304-1.044-7.823,0c-1.249,0.512-2.396,1.27-3.338,2.212l-81.92,81.9c-3.994,4.014-3.994,10.486,0,14.5
	c4.014,3.994,10.486,3.994,14.5,0l64.43-64.451V348.16H102.4C45.937,348.16,0,302.223,0,245.76
	c0-49.07,34.918-90.644,82.514-100.004c4.198-36.27,34.488-63.836,71.086-63.836c7.598,0,15.114,1.27,22.467,3.809
	C198.758,34.038,250.163,0,307.2,0c79.032,0,143.36,64.307,143.36,143.36c0,2.97-0.123,5.919-0.328,8.827
	C487.506,168.305,512,204.964,512,245.76L512,245.76z"/>
<g>
</g>
<g>
</g>
<g>
</g>
<g>
</g>
<g>
</g>
<g>
</g>
<g>
</g>
<g>
</g>
<g>
</g>
<g>
</g>
<g>
</g>
<g>
</g>
<g>
</g>
<g>
</g>
<g>
</g>
</svg>
