<?xml version="1.0" encoding="iso-8859-1"?>
<!-- Generator: Adobe Illustrator 19.0.0, SVG Export Plug-In . SVG Version: 6.00 Build 0)  -->
<svg version="1.1" id="Capa_1" xmlns="http://www.w3.org/2000/svg" xmlns:xlink="http://www.w3.org/1999/xlink" x="0px" y="0px"
	 viewBox="0 0 512 512" style="enable-background:new 0 0 512 512;" xml:space="preserve">
<linearGradient id="SVGID_1_" gradientUnits="userSpaceOnUse" x1="-34.1074" y1="646.2129" x2="-34.1074" y2="621.2129" gradientTransform="matrix(20.48 0 0 -20.48 954.52 13234.4395)">
	<stop  offset="0.029" style="stop-color:#FF5D3B"/>
	<stop  offset="1" style="stop-color:#FF2D67"/>
</linearGradient>
<path style="fill:url(#SVGID_1_);" d="M245.76,477.041l-64.43-64.43c-4.014-4.014-10.486-4.014-14.5,0
	c-3.994,3.994-3.994,10.465,0,14.479l81.92,81.9c0.942,0.942,2.089,1.7,3.338,2.212c1.249,0.532,2.58,0.799,3.912,0.799
	c1.331,0,2.662-0.266,3.912-0.799c1.249-0.512,2.396-1.27,3.338-2.212l81.92-81.9c3.994-4.014,3.994-10.486,0-14.479
	c-4.014-4.014-10.486-4.014-14.5,0l-64.43,64.43V348.16h-20.48V477.041z M512,245.76c0,56.463-45.937,102.4-102.4,102.4H266.24
	v-153.6c0-5.652-4.588-10.24-10.24-10.24c-5.652,0-10.24,4.588-10.24,10.24v153.6H102.4C45.937,348.16,0,302.223,0,245.76
	c0-49.07,34.918-90.644,82.514-100.004c4.198-36.27,34.488-63.836,71.086-63.836c7.598,0,15.114,1.27,22.467,3.809
	C198.758,34.038,250.163,0,307.2,0c79.032,0,143.36,64.307,143.36,143.36c0,2.97-0.123,5.919-0.328,8.827
	C487.506,168.305,512,204.964,512,245.76L512,245.76z"/>
<g>
</g>
<g>
</g>
<g>
</g>
<g>
</g>
<g>
</g>
<g>
</g>
<g>
</g>
<g>
</g>
<g>
</g>
<g>
</g>
<g>
</g>
<g>
</g>
<g>
</g>
<g>
</g>
<g>
</g>
</svg>
