<?xml version="1.0" encoding="iso-8859-1"?>
<!-- Generator: Adobe Illustrator 19.0.0, SVG Export Plug-In . SVG Version: 6.00 Build 0)  -->
<svg version="1.1" id="Capa_1" xmlns="http://www.w3.org/2000/svg" xmlns:xlink="http://www.w3.org/1999/xlink" x="0px" y="0px"
	 viewBox="0 0 512 512" style="enable-background:new 0 0 512 512;" xml:space="preserve">
<linearGradient id="SVGID_1_" gradientUnits="userSpaceOnUse" x1="-329.6846" y1="263.7132" x2="-329.6846" y2="264.7032" gradientTransform="matrix(512.0082 0 0 430.08 169057.2188 -113372.9141)">
	<stop  offset="0" style="stop-color:#FFDB4A"/>
	<stop  offset="1" style="stop-color:#FFBB01"/>
</linearGradient>
<path style="fill:url(#SVGID_1_);" d="M126.607,245.76H0v-71.68c0-28.221,22.958-51.2,51.2-51.2h18.76
	c35.369,0,50.053-16.118,67.072-34.775C157.184,66.007,180.019,40.96,237.24,40.96h37.519c57.221,0,80.056,25.047,100.209,47.145
	c17.019,18.657,31.703,34.775,67.072,34.775h18.76c28.242,0,51.2,22.979,51.2,51.2v71.68H385.393
	c-13.906-58.614-66.58-102.4-129.393-102.4S140.513,187.146,126.607,245.76z M388.608,266.24H512v153.6
	c0,28.221-22.958,51.2-51.2,51.2H51.2c-28.242,0-51.2-22.979-51.2-51.2v-153.6h123.412c-0.266,3.4-0.532,6.779-0.532,10.24
	c0,73.4,59.72,133.12,133.12,133.12s133.12-59.72,133.12-133.12C389.12,273.019,388.874,269.64,388.608,266.24z M256,163.84
	c62.116,0,112.64,50.524,112.64,112.64S318.116,389.12,256,389.12s-112.64-50.524-112.64-112.64S193.884,163.84,256,163.84z
	 M256,368.64c50.811,0,92.16-41.349,92.16-92.16s-41.349-92.16-92.16-92.16s-92.16,41.349-92.16,92.16S205.189,368.64,256,368.64z
	 M256,204.8c39.526,0,71.68,32.154,71.68,71.68s-32.154,71.68-71.68,71.68s-71.68-32.154-71.68-71.68S216.474,204.8,256,204.8z
	 M409.6,163.84c-11.284,0-20.48,9.196-20.48,20.48s9.195,20.48,20.48,20.48c11.285,0,20.48-9.196,20.48-20.48
	S420.884,163.84,409.6,163.84z"/>
<g>
</g>
<g>
</g>
<g>
</g>
<g>
</g>
<g>
</g>
<g>
</g>
<g>
</g>
<g>
</g>
<g>
</g>
<g>
</g>
<g>
</g>
<g>
</g>
<g>
</g>
<g>
</g>
<g>
</g>
</svg>
