<?xml version="1.0" encoding="iso-8859-1"?>
<!-- Generator: Adobe Illustrator 19.0.0, SVG Export Plug-In . SVG Version: 6.00 Build 0)  -->
<svg version="1.1" id="Capa_1" xmlns="http://www.w3.org/2000/svg" xmlns:xlink="http://www.w3.org/1999/xlink" x="0px" y="0px"
	 viewBox="0 0 512 512" style="enable-background:new 0 0 512 512;" xml:space="preserve">
<linearGradient id="SVGID_1_" gradientUnits="userSpaceOnUse" x1="-35.2988" y1="646.2739" x2="-35.2988" y2="624.4839" gradientTransform="matrix(22.2609 0 0 -22.2609 1041.7826 14397.3477)">
	<stop  offset="0" style="stop-color:#FF9400"/>
	<stop  offset="1" style="stop-color:#FF5F39"/>
</linearGradient>
<path style="fill:url(#SVGID_1_);" d="M111.304,11.13c0-6.144-4.986-11.13-11.13-11.13c-6.144,0-11.13,4.986-11.13,11.13v33.391
	h22.261V11.13z M422.957,11.13c0-6.144-4.986-11.13-11.13-11.13c-6.144,0-11.13,4.986-11.13,11.13v33.391h22.261V11.13z
	 M111.304,422.957h22.261v-22.261h-22.261V422.957z M378.435,333.913h22.261v-22.261h-22.261V333.913z M378.435,244.87h22.261
	v-22.261h-22.261V244.87z M89.043,434.087c0,6.144,4.986,11.13,11.13,11.13h44.522c6.144,0,11.13-4.986,11.13-11.13v-44.522
	c0-6.144-4.986-11.13-11.13-11.13h-44.522c-6.144,0-11.13,4.986-11.13,11.13V434.087z M89.043,345.043
	c0,6.144,4.986,11.13,11.13,11.13h44.522c6.144,0,11.13-4.986,11.13-11.13v-44.522c0-6.144-4.986-11.13-11.13-11.13h-44.522
	c-6.144,0-11.13,4.986-11.13,11.13V345.043z M178.087,434.087c0,6.144,4.986,11.13,11.13,11.13h44.522
	c6.144,0,11.13-4.986,11.13-11.13v-44.522c0-6.144-4.986-11.13-11.13-11.13h-44.522c-6.144,0-11.13,4.986-11.13,11.13V434.087z
	 M178.087,345.043c0,6.144,4.986,11.13,11.13,11.13h44.522c6.144,0,11.13-4.986,11.13-11.13v-44.522
	c0-6.144-4.986-11.13-11.13-11.13h-44.522c-6.144,0-11.13,4.986-11.13,11.13V345.043z M178.087,256c0,6.144,4.986,11.13,11.13,11.13
	h44.522c6.144,0,11.13-4.986,11.13-11.13v-44.522c0-6.144-4.986-11.13-11.13-11.13h-44.522c-6.144,0-11.13,4.986-11.13,11.13V256z
	 M267.13,345.043c0,6.144,4.986,11.13,11.13,11.13h44.522c6.144,0,11.13-4.986,11.13-11.13v-44.522c0-6.144-4.986-11.13-11.13-11.13
	h-44.522c-6.144,0-11.13,4.986-11.13,11.13V345.043z M267.13,256c0,6.144,4.986,11.13,11.13,11.13h44.522
	c6.144,0,11.13-4.986,11.13-11.13v-44.522c0-6.144-4.986-11.13-11.13-11.13h-44.522c-6.144,0-11.13,4.986-11.13,11.13V256z
	 M356.174,345.043c0,6.144,4.986,11.13,11.13,11.13h44.522c6.144,0,11.13-4.986,11.13-11.13v-44.522
	c0-6.144-4.986-11.13-11.13-11.13h-44.522c-6.144,0-11.13,4.986-11.13,11.13V345.043z M356.174,256c0,6.144,4.986,11.13,11.13,11.13
	h44.522c6.144,0,11.13-4.986,11.13-11.13v-44.522c0-6.144-4.986-11.13-11.13-11.13h-44.522c-6.144,0-11.13,4.986-11.13,11.13V256z
	 M0,155.826h512V500.87c0,6.144-4.986,11.13-11.13,11.13H11.13C4.986,512,0,507.014,0,500.87V155.826z M500.87,44.522h-77.913
	v55.652c0,6.144-4.986,11.13-11.13,11.13c-6.144,0-11.13-4.986-11.13-11.13V44.522H111.304v55.652c0,6.144-4.986,11.13-11.13,11.13
	c-6.144,0-11.13-4.986-11.13-11.13V44.522H11.13C4.986,44.522,0,49.508,0,55.652v77.913h512V55.652
	C512,49.508,507.014,44.522,500.87,44.522L500.87,44.522z M200.348,333.913h22.261v-22.261h-22.261V333.913z M289.391,244.87h22.261
	v-22.261h-22.261V244.87z M200.348,422.957h22.261v-22.261h-22.261V422.957z M200.348,244.87h22.261v-22.261h-22.261V244.87z
	 M111.304,333.913h22.261v-22.261h-22.261V333.913z M289.391,333.913h22.261v-22.261h-22.261V333.913z"/>
<g>
</g>
<g>
</g>
<g>
</g>
<g>
</g>
<g>
</g>
<g>
</g>
<g>
</g>
<g>
</g>
<g>
</g>
<g>
</g>
<g>
</g>
<g>
</g>
<g>
</g>
<g>
</g>
<g>
</g>
</svg>
