<?xml version="1.0" encoding="iso-8859-1"?>
<!-- Generator: Adobe Illustrator 19.0.0, SVG Export Plug-In . SVG Version: 6.00 Build 0)  -->
<svg version="1.1" id="Capa_1" xmlns="http://www.w3.org/2000/svg" xmlns:xlink="http://www.w3.org/1999/xlink" x="0px" y="0px"
	 viewBox="0 0 512 512" style="enable-background:new 0 0 512 512;" xml:space="preserve">
<linearGradient id="SVGID_1_" gradientUnits="userSpaceOnUse" x1="-330.6443" y1="262.1599" x2="-330.6443" y2="263.1299" gradientTransform="matrix(512 0 0 463.4214 169545.875 -121451.5391)">
	<stop  offset="0" style="stop-color:#C544FC"/>
	<stop  offset="1" style="stop-color:#5B56D7"/>
</linearGradient>
<path style="fill:url(#SVGID_1_);" d="M511.816,95.068c-0.061-0.696-0.205-1.331-0.43-2.028c-0.184-0.655-0.43-1.29-0.758-1.884
	c-0.143-0.287-0.164-0.594-0.348-0.86c-1.802-2.703-44.995-66.007-131.4-66.007c-54.866,0-92.017,33.137-112.64,58.696v404.726
	c6.431-11.53,44.667-74.301,112.64-74.301c75.162,0,112.804,54.579,114.381,56.914c0.184,0.246,0.451,0.389,0.655,0.635
	c0.451,0.573,0.963,1.085,1.536,1.536c0.492,0.389,0.963,0.717,1.495,1.004c0.614,0.328,1.208,0.573,1.884,0.778
	c0.614,0.184,1.249,0.307,1.905,0.369c0.348,0.041,0.655,0.205,1.024,0.205c0.348,0,0.655-0.164,1.004-0.184
	c0.614-0.061,1.208-0.205,1.823-0.369c0.758-0.225,1.413-0.492,2.068-0.86c0.266-0.143,0.553-0.164,0.799-0.328
	c0.266-0.164,0.389-0.451,0.614-0.635c0.614-0.471,1.106-0.983,1.577-1.556c0.389-0.492,0.717-0.963,1.004-1.495
	c0.307-0.594,0.553-1.188,0.737-1.843c0.205-0.655,0.348-1.311,0.41-2.007c0.041-0.328,0.205-0.614,0.205-0.963V95.969
	C512,95.662,511.836,95.396,511.816,95.068L511.816,95.068z M245.76,487.711c-6.451-11.53-44.687-74.301-112.64-74.301
	c-75.571,0-113.992,56.32-114.36,56.893c-0.184,0.266-0.492,0.41-0.676,0.655c-0.471,0.573-0.963,1.065-1.556,1.536
	c-0.471,0.389-0.942,0.717-1.495,1.004c-0.594,0.328-1.188,0.573-1.884,0.778c-0.635,0.184-1.249,0.307-1.925,0.389
	c-0.348,0.041-0.635,0.184-0.983,0.184s-0.614-0.143-0.942-0.184c-0.676-0.061-1.331-0.205-1.987-0.389
	c-0.676-0.225-1.29-0.451-1.905-0.778c-0.266-0.164-0.594-0.184-0.86-0.369c-0.266-0.184-0.41-0.471-0.676-0.676
	c-0.553-0.451-1.044-0.942-1.495-1.495c-0.41-0.492-0.737-1.004-1.044-1.556c-0.307-0.573-0.532-1.167-0.737-1.802
	c-0.205-0.655-0.348-1.331-0.389-2.028C0.164,465.244,0,464.957,0,464.609V95.969c0-0.307,0.164-0.594,0.184-0.901
	c0.061-0.696,0.184-1.331,0.389-2.007c0.225-0.676,0.471-1.311,0.799-1.905c0.143-0.287,0.164-0.594,0.348-0.86
	c1.802-2.703,44.995-66.007,131.4-66.007c54.845,0,92.017,33.137,112.64,58.696V487.711z"/>
<g>
</g>
<g>
</g>
<g>
</g>
<g>
</g>
<g>
</g>
<g>
</g>
<g>
</g>
<g>
</g>
<g>
</g>
<g>
</g>
<g>
</g>
<g>
</g>
<g>
</g>
<g>
</g>
<g>
</g>
</svg>
