<?xml version="1.0" encoding="iso-8859-1"?>
<!-- Generator: Adobe Illustrator 19.0.0, SVG Export Plug-In . SVG Version: 6.00 Build 0)  -->
<svg version="1.1" id="Capa_1" xmlns="http://www.w3.org/2000/svg" xmlns:xlink="http://www.w3.org/1999/xlink" x="0px" y="0px"
	 viewBox="0 0 512 512" style="enable-background:new 0 0 512 512;" xml:space="preserve">
<linearGradient id="SVGID_1_" gradientUnits="userSpaceOnUse" x1="-34.1074" y1="646.2129" x2="-34.1074" y2="621.8079" gradientTransform="matrix(20.48 0 0 -20.48 954.52 13234.4395)">
	<stop  offset="0" style="stop-color:#EE4DB7"/>
	<stop  offset="1" style="stop-color:#C743F9"/>
</linearGradient>
<path style="fill:url(#SVGID_1_);" d="M143.421,81.92h225.28v71.68c0,4.649,0.881,9.38,2.13,14.172
	c-65.516-9.441-96.727,2.97-125.071,14.418c-27.587,11.162-52.408,20.992-111.391,3.83c5.673-11.284,9.052-22.057,9.052-32.42V81.92
	z M133.181,61.44c-16.957,0-30.72-13.763-30.72-30.72S116.224,0,133.181,0h245.76c16.957,0,30.72,13.763,30.72,30.72
	s-13.763,30.72-30.72,30.72H133.181z M506.737,388.854c9.994,28.938,5.612,59.781-12.083,84.582
	C477.225,497.93,449.925,512,419.779,512H92.221c-30.147,0-57.426-14.07-74.875-38.564c-17.695-24.801-22.077-55.644-12.083-84.582
	c19.927-57.651,54.764-101.786,85.524-140.739c12.268-15.544,23.654-30.085,32.788-43.93c27.853,8.499,49.254,11.735,66.888,11.735
	c26.501,0,44.483-7.291,62.915-14.746c27.443-11.1,57.61-23.265,126.464-11.244c9.748,17.981,24.842,37.233,41.39,58.184
	C451.973,287.068,486.83,331.203,506.737,388.854z M358.38,450.56c16.937,0,30.72-13.783,30.72-30.72s-13.783-30.72-30.72-30.72
	s-30.72,13.783-30.72,30.72S341.443,450.56,358.38,450.56z M153.62,409.6c16.937,0,30.72-13.783,30.72-30.72
	c0-16.937-13.783-30.72-30.72-30.72s-30.72,13.783-30.72,30.72C122.9,395.817,136.684,409.6,153.62,409.6z M358.461,409.6
	c5.632,0,10.24,4.608,10.24,10.24s-4.608,10.24-10.24,10.24s-10.24-4.608-10.24-10.24S352.829,409.6,358.461,409.6z M286.72,327.68
	c22.589,0,40.96-18.371,40.96-40.96c0-22.589-18.371-40.96-40.96-40.96c-22.589,0-40.96,18.371-40.96,40.96
	C245.76,309.309,264.131,327.68,286.72,327.68z M286.781,266.24c11.305,0,20.48,9.175,20.48,20.48s-9.175,20.48-20.48,20.48
	s-20.48-9.175-20.48-20.48S275.476,266.24,286.781,266.24z M153.661,368.64c5.632,0,10.24,4.608,10.24,10.24
	c0,5.632-4.608,10.24-10.24,10.24c-5.632,0-10.24-4.608-10.24-10.24C143.421,373.248,148.029,368.64,153.661,368.64z"/>
<g>
</g>
<g>
</g>
<g>
</g>
<g>
</g>
<g>
</g>
<g>
</g>
<g>
</g>
<g>
</g>
<g>
</g>
<g>
</g>
<g>
</g>
<g>
</g>
<g>
</g>
<g>
</g>
<g>
</g>
</svg>
