<?xml version="1.0" encoding="iso-8859-1"?>
<!-- Generator: Adobe Illustrator 19.0.0, SVG Export Plug-In . SVG Version: 6.00 Build 0)  -->
<svg version="1.1" id="Capa_1" xmlns="http://www.w3.org/2000/svg" xmlns:xlink="http://www.w3.org/1999/xlink" x="0px" y="0px"
	 viewBox="0 0 512 512" style="enable-background:new 0 0 512 512;" xml:space="preserve">
<linearGradient id="SVGID_1_" gradientUnits="userSpaceOnUse" x1="-330.6443" y1="275.5221" x2="-330.6443" y2="276.5021" gradientTransform="matrix(512 0 0 266.24 169545.875 -73232.1172)">
	<stop  offset="0" style="stop-color:#EE4DB7"/>
	<stop  offset="1" style="stop-color:#C743F9"/>
</linearGradient>
<path style="fill:url(#SVGID_1_);" d="M245.76,348.16h81.92V163.84h-81.92V348.16z M143.36,348.16h81.92V163.84h-81.92V348.16z
	 M40.96,348.16h81.92V163.84H40.96V348.16z M481.28,184.32h-10.24V153.6c0-16.937-13.783-30.72-30.72-30.72H30.72
	C13.783,122.88,0,136.663,0,153.6v204.8c0,16.937,13.783,30.72,30.72,30.72h409.6c16.937,0,30.72-13.783,30.72-30.72v-30.72h10.24
	c16.937,0,30.72-13.783,30.72-30.72v-81.92C512,198.103,498.217,184.32,481.28,184.32L481.28,184.32z"/>
<g>
</g>
<g>
</g>
<g>
</g>
<g>
</g>
<g>
</g>
<g>
</g>
<g>
</g>
<g>
</g>
<g>
</g>
<g>
</g>
<g>
</g>
<g>
</g>
<g>
</g>
<g>
</g>
<g>
</g>
</svg>
