<?xml version="1.0" encoding="iso-8859-1"?>
<!-- Generator: Adobe Illustrator 19.0.0, SVG Export Plug-In . SVG Version: 6.00 Build 0)  -->
<svg version="1.1" id="Capa_1" xmlns="http://www.w3.org/2000/svg" xmlns:xlink="http://www.w3.org/1999/xlink" x="0px" y="0px"
	 viewBox="0 0 512 512" style="enable-background:new 0 0 512 512;" xml:space="preserve">
<linearGradient id="SVGID_1_" gradientUnits="userSpaceOnUse" x1="-330.5782" y1="266.6986" x2="-330.5782" y2="267.6986" gradientTransform="matrix(512 0 0 422.9565 169512.0469 -112756.7422)">
	<stop  offset="0" style="stop-color:#85FC6D"/>
	<stop  offset="1" style="stop-color:#0AD31A"/>
</linearGradient>
<path style="fill:url(#SVGID_1_);" d="M500.87,44.522h-89.043c-6.144,0-11.13,4.986-11.13,11.13v400.696
	c0,6.144,4.986,11.13,11.13,11.13h89.043c6.144,0,11.13-4.986,11.13-11.13V55.652C512,49.508,507.014,44.522,500.87,44.522
	 M367.304,178.087h-89.043c-6.144,0-11.13,4.986-11.13,11.13v267.13c0,6.144,4.986,11.13,11.13,11.13h89.043
	c6.144,0,11.13-4.986,11.13-11.13v-267.13C378.435,183.073,373.448,178.087,367.304,178.087 M233.739,89.043h-89.043
	c-6.144,0-11.13,4.986-11.13,11.13v356.174c0,6.144,4.986,11.13,11.13,11.13h89.043c6.144,0,11.13-4.986,11.13-11.13V100.174
	C244.87,94.03,239.883,89.043,233.739,89.043 M111.304,278.261v178.087c0,6.144-4.986,11.13-11.13,11.13H11.13
	c-6.144,0-11.13-4.986-11.13-11.13V278.261c0-6.144,4.986-11.13,11.13-11.13h89.043C106.318,267.13,111.304,272.117,111.304,278.261
	"/>
<g>
</g>
<g>
</g>
<g>
</g>
<g>
</g>
<g>
</g>
<g>
</g>
<g>
</g>
<g>
</g>
<g>
</g>
<g>
</g>
<g>
</g>
<g>
</g>
<g>
</g>
<g>
</g>
<g>
</g>
</svg>
