<?xml version="1.0" encoding="iso-8859-1"?>
<!-- Generator: Adobe Illustrator 19.0.0, SVG Export Plug-In . SVG Version: 6.00 Build 0)  -->
<svg version="1.1" id="Capa_1" xmlns="http://www.w3.org/2000/svg" xmlns:xlink="http://www.w3.org/1999/xlink" x="0px" y="0px"
	 viewBox="0 0 512 512" style="enable-background:new 0 0 512 512;" xml:space="preserve">
<linearGradient id="SVGID_1_" gradientUnits="userSpaceOnUse" x1="-34.1074" y1="646.2129" x2="-34.1074" y2="621.2129" gradientTransform="matrix(20.48 0 0 -20.48 954.52 13234.4395)">
	<stop  offset="0" style="stop-color:#85FC6D"/>
	<stop  offset="1" style="stop-color:#0AD31A"/>
</linearGradient>
<path style="fill:url(#SVGID_1_);" d="M307.2,297.759c0,39.854-36.782,50.504-58.511,50.504c-19.907,0-84.849-6.656-84.849-92.447
	c0-33.976,11.08-59.105,32.932-74.65c16.118-11.469,37.54-17.244,61.809-17.244c15.299,0,31.744,2.294,48.62,6.963V297.759z
	 M334.377,136.438c-61.276-21.217-121.61-16.978-161.362,11.366c-22.856,16.282-50.135,48.23-50.135,108.012
	c0,92.16,63.181,133.407,125.809,133.407c33.69,0,67.645-14.643,85.873-42.967c18.719,26.276,45.384,42.865,75.039,42.865
	C466.063,389.12,512,329.4,512,256C512,114.831,397.169,0,256,0S0,114.831,0,256s114.831,256,256,256
	c57.242,0,111.022-18.289,155.525-52.838c8.929-6.943,10.547-19.825,3.625-28.733c-6.943-8.929-19.784-10.588-28.754-3.625
	C349.143,455.741,304.067,471.04,256,471.04c-118.579,0-215.04-96.461-215.04-215.04S137.421,40.96,256,40.96
	S471.04,137.421,471.04,256c0,49.951-28.14,92.16-61.44,92.16s-61.44-42.209-61.44-92.16V155.791
	C348.16,147.087,342.61,139.305,334.377,136.438L334.377,136.438z"/>
<g>
</g>
<g>
</g>
<g>
</g>
<g>
</g>
<g>
</g>
<g>
</g>
<g>
</g>
<g>
</g>
<g>
</g>
<g>
</g>
<g>
</g>
<g>
</g>
<g>
</g>
<g>
</g>
<g>
</g>
</svg>
