<?xml version="1.0" encoding="iso-8859-1"?>
<!-- Generator: Adobe Illustrator 19.0.0, SVG Export Plug-In . SVG Version: 6.00 Build 0)  -->
<svg version="1.1" id="Capa_1" xmlns="http://www.w3.org/2000/svg" xmlns:xlink="http://www.w3.org/1999/xlink" x="0px" y="0px"
	 viewBox="0 0 512 512" style="enable-background:new 0 0 512 512;" xml:space="preserve">
<linearGradient id="SVGID_1_" gradientUnits="userSpaceOnUse" x1="-330.5782" y1="264.6873" x2="-330.5782" y2="265.6773" gradientTransform="matrix(512 0 0 467.4783 169512.0469 -123709.0859)">
	<stop  offset="0" style="stop-color:#FFDB4A"/>
	<stop  offset="1" style="stop-color:#FFBB01"/>
</linearGradient>
<path style="fill:url(#SVGID_1_);" d="M22.261,478.609V178.087h467.478v300.522c0,6.144-4.986,11.13-11.13,11.13H33.391
	C27.247,489.739,22.261,484.753,22.261,478.609z M178.087,222.609c-18.41,0-33.391,14.982-33.391,33.391
	s14.982,33.391,33.391,33.391h155.826c18.41,0,33.391-14.982,33.391-33.391s-14.982-33.391-33.391-33.391H178.087z M178.087,267.13
	c-6.122,0-11.13-4.986-11.13-11.13c0-6.144,5.009-11.13,11.13-11.13h155.826c6.122,0,11.13,4.986,11.13,11.13
	c0,6.144-5.009,11.13-11.13,11.13H178.087z M500.87,22.261c6.144,0,11.13,4.986,11.13,11.13v111.304
	c0,6.144-4.986,11.13-11.13,11.13H11.13c-6.144,0-11.13-4.986-11.13-11.13V33.391c0-6.144,4.986-11.13,11.13-11.13H500.87z"/>
<g>
</g>
<g>
</g>
<g>
</g>
<g>
</g>
<g>
</g>
<g>
</g>
<g>
</g>
<g>
</g>
<g>
</g>
<g>
</g>
<g>
</g>
<g>
</g>
<g>
</g>
<g>
</g>
<g>
</g>
</svg>
