<?xml version="1.0" encoding="iso-8859-1"?>
<!-- Generator: Adobe Illustrator 19.0.0, SVG Export Plug-In . SVG Version: 6.00 Build 0)  -->
<svg version="1.1" id="Capa_1" xmlns="http://www.w3.org/2000/svg" xmlns:xlink="http://www.w3.org/1999/xlink" x="0px" y="0px"
	 viewBox="0 0 512 512" style="enable-background:new 0 0 512 512;" xml:space="preserve">
<linearGradient id="SVGID_1_" gradientUnits="userSpaceOnUse" x1="-34.1074" y1="646.0949" x2="-34.1074" y2="621.2929" gradientTransform="matrix(20.48 0 0 -20.48 954.52 13234.4395)">
	<stop  offset="0" style="stop-color:#FFDB4A"/>
	<stop  offset="1" style="stop-color:#FFBB01"/>
</linearGradient>
<path style="fill:url(#SVGID_1_);" d="M266.24,112.64c0-5.652-4.588-10.24-10.24-10.24c-5.652,0-10.24,4.588-10.24,10.24v153.6
	H153.6c-5.652,0-10.24,4.588-10.24,10.24c0,5.652,4.588,10.24,10.24,10.24H256c5.652,0,10.24-4.588,10.24-10.24V112.64z
	 M419.328,445.809l48.722,48.701c3.994,4.014,3.994,10.486,0,14.5c-2.007,1.987-4.628,2.99-7.25,2.99
	c-2.621,0-5.243-1.004-7.25-2.99l-49.541-49.562C363.52,492.257,312.033,512,256,512s-107.52-19.743-148.009-52.552L58.45,509.01
	c-2.007,1.987-4.628,2.99-7.25,2.99c-2.621,0-5.243-1.004-7.25-2.99c-3.994-4.014-3.994-10.486,0-14.5l48.722-48.701
	C48.251,402.944,20.48,342.938,20.48,276.48C20.48,146.616,126.116,40.96,256,40.96s235.52,105.656,235.52,235.52
	C491.52,342.938,463.749,402.944,419.328,445.809L419.328,445.809z M409.6,0c-22.528,0-43.868,7.168-61.706,20.726
	c-2.929,2.232-4.424,5.878-3.932,9.544c0.492,3.666,2.929,6.758,6.349,8.131c55.235,21.914,101.478,62.71,130.212,114.811
	c1.782,3.256,5.161,5.284,8.868,5.304h0.082c3.666,0,7.045-1.946,8.888-5.12C507.29,137.871,512,120.238,512,102.4
	C512,45.937,466.063,0,409.6,0L409.6,0z M22.528,158.515c-3.666,0-7.045-1.946-8.888-5.12C4.71,137.871,0,120.238,0,102.4
	C0,45.937,45.937,0,102.4,0c22.528,0,43.868,7.168,61.706,20.726c2.929,2.232,4.424,5.878,3.932,9.544
	c-0.492,3.666-2.908,6.758-6.349,8.131C106.455,60.314,60.211,101.11,31.478,153.211c-1.782,3.256-5.161,5.284-8.868,5.304H22.528z"
	/>
<g>
</g>
<g>
</g>
<g>
</g>
<g>
</g>
<g>
</g>
<g>
</g>
<g>
</g>
<g>
</g>
<g>
</g>
<g>
</g>
<g>
</g>
<g>
</g>
<g>
</g>
<g>
</g>
<g>
</g>
</svg>
