<?xml version="1.0" encoding="iso-8859-1"?>
<!-- Generator: Adobe Illustrator 19.0.0, SVG Export Plug-In . SVG Version: 6.00 Build 0)  -->
<svg version="1.1" id="Capa_1" xmlns="http://www.w3.org/2000/svg" xmlns:xlink="http://www.w3.org/1999/xlink" x="0px" y="0px"
	 viewBox="0 0 512 512" style="enable-background:new 0 0 512 512;" xml:space="preserve">
<linearGradient id="SVGID_1_" gradientUnits="userSpaceOnUse" x1="-330.6443" y1="263.7332" x2="-330.6443" y2="264.7032" gradientTransform="matrix(512 0 0 430.08 169545.875 -113372.9141)">
	<stop  offset="0" style="stop-color:#C544FC"/>
	<stop  offset="1" style="stop-color:#5B56D7"/>
</linearGradient>
<path style="fill:url(#SVGID_1_);" d="M114.954,450.56L256,291.881L397.025,450.56H114.954z M263.639,269.681l163.84,184.32
	c2.683,3.011,3.359,7.311,1.7,10.998c-1.659,3.666-5.304,6.042-9.339,6.042H92.16c-4.055,0-7.68-2.376-9.339-6.042
	c-1.659-3.686-0.983-7.987,1.7-10.998l163.84-184.32C252.232,265.298,259.748,265.298,263.639,269.681z M481.28,40.96
	c16.937,0,30.72,13.783,30.72,30.72V358.4c0,16.937-13.783,30.72-30.72,30.72h-79.462c-2.929,0-5.693-1.249-7.66-3.441
	L263.659,238.858c-3.932-4.424-11.387-4.444-15.319,0L117.842,385.679c-1.966,2.191-4.731,3.441-7.659,3.441H30.72
	C13.783,389.12,0,375.337,0,358.4V71.68c0-16.937,13.783-30.72,30.72-30.72H481.28z"/>
<g>
</g>
<g>
</g>
<g>
</g>
<g>
</g>
<g>
</g>
<g>
</g>
<g>
</g>
<g>
</g>
<g>
</g>
<g>
</g>
<g>
</g>
<g>
</g>
<g>
</g>
<g>
</g>
<g>
</g>
</svg>
