<?xml version="1.0" encoding="iso-8859-1"?>
<!-- Generator: Adobe Illustrator 19.0.0, SVG Export Plug-In . SVG Version: 6.00 Build 0)  -->
<svg version="1.1" id="Capa_1" xmlns="http://www.w3.org/2000/svg" xmlns:xlink="http://www.w3.org/1999/xlink" x="0px" y="0px"
	 viewBox="0 0 511.997 511.997" style="enable-background:new 0 0 511.997 511.997;" xml:space="preserve">
<linearGradient id="SVGID_1_" gradientUnits="userSpaceOnUse" x1="-329.6877" y1="260.6538" x2="-329.6877" y2="261.6238" gradientTransform="matrix(511.9959 0 0 511.4142 169054.75 -133288.3594)">
	<stop  offset="0" style="stop-color:#C544FC"/>
	<stop  offset="1" style="stop-color:#5B56D7"/>
</linearGradient>
<path style="fill:url(#SVGID_1_);" d="M511.997,61.698c0-16.63-6.431-32.195-18.125-43.889c-23.347-23.388-64.389-23.327-87.757,0
	L303.838,120.066L55.825,80.908c-3.236-0.553-6.513,0.532-8.847,2.867l-29.327,29.327c-2.417,2.417-3.482,5.878-2.785,9.236
	c0.676,3.359,2.97,6.164,6.124,7.475l193.475,79.647l-86.876,86.876c-1.393,1.372-2.662,2.826-3.871,4.321H39.564
	c-2.724,0-5.325,1.085-7.25,2.99L2.987,332.976c-2.56,2.56-3.564,6.267-2.662,9.769s3.543,6.267,7.025,7.291l119.255,35.082
	l35.062,119.235c1.004,3.461,3.768,6.144,7.27,7.025c0.84,0.225,1.7,0.328,2.54,0.328c2.683,0,5.304-1.065,7.25-3.011l29.307-29.307
	c1.925-1.925,3.011-4.526,3.011-7.25v-84.152c1.495-1.208,2.949-2.499,4.342-3.891l86.856-86.856l79.647,193.454
	c1.311,3.174,4.116,5.468,7.475,6.144c3.359,0.655,6.84-0.369,9.236-2.806l29.327-29.307c2.314-2.335,3.379-5.612,2.867-8.847
	l-39.178-248.033l102.257-102.257C505.566,93.913,511.997,78.328,511.997,61.698"/>
<g>
</g>
<g>
</g>
<g>
</g>
<g>
</g>
<g>
</g>
<g>
</g>
<g>
</g>
<g>
</g>
<g>
</g>
<g>
</g>
<g>
</g>
<g>
</g>
<g>
</g>
<g>
</g>
<g>
</g>
</svg>
