<?xml version="1.0" encoding="iso-8859-1"?>
<!-- Generator: Adobe Illustrator 19.0.0, SVG Export Plug-In . SVG Version: 6.00 Build 0)  -->
<svg version="1.1" id="Capa_1" xmlns="http://www.w3.org/2000/svg" xmlns:xlink="http://www.w3.org/1999/xlink" x="0px" y="0px"
	 viewBox="0 0 512 512" style="enable-background:new 0 0 512 512;" xml:space="preserve">
<linearGradient id="SVGID_1_" gradientUnits="userSpaceOnUse" x1="-330.645" y1="262.6517" x2="-330.645" y2="263.6517" gradientTransform="matrix(512 0 0 430.0812 169546.25 -112922.1016)">
	<stop  offset="0" style="stop-color:#1AD6FD"/>
	<stop  offset="1" style="stop-color:#1D67F0"/>
</linearGradient>
<path style="fill:url(#SVGID_1_);" d="M265.533,41.141c132.848,4.854,241.02,112.717,246.262,245.586
	c2.335,59.39-15.318,115.933-51.075,163.506c-9.789,13.045-25.251,20.807-41.347,20.807H92.607c-16.117,0-31.62-7.844-41.491-20.991
	C17.694,405.466,0,352.527,0,296.967c0-70.121,27.831-135.593,78.333-184.292C128.773,63.996,195.003,38.54,265.533,41.141z
	 M428.138,230.287c-5.386,1.741-8.335,7.516-6.594,12.881c1.741,5.386,7.516,8.335,12.902,6.594
	c5.386-1.741,8.315-7.516,6.574-12.902C439.278,231.475,433.503,228.546,428.138,230.287z M366.639,149.21
	c-3.645,4.342-3.092,10.793,1.249,14.417s10.793,3.072,14.417-1.27c3.645-4.321,3.092-10.772-1.249-14.417
	S370.264,144.868,366.639,149.21z M321.605,124.43c-2.294,5.181,0.02,11.223,5.181,13.516c5.161,2.314,11.223-0.02,13.516-5.181
	c2.314-5.161-0.02-11.223-5.161-13.516C329.961,116.935,323.919,119.269,321.605,124.43z M283.084,104.319
	c-5.611-0.799-10.793,3.113-11.571,8.704c-0.799,5.591,3.092,10.772,8.704,11.571c5.591,0.799,10.772-3.113,11.571-8.704
	C292.566,110.279,288.675,105.098,283.084,104.319z M228.916,104.319c-5.591,0.778-9.502,5.959-8.724,11.571
	c0.799,5.591,5.98,9.502,11.591,8.704c5.591-0.799,9.502-5.98,8.683-11.571C239.688,107.432,234.507,103.521,228.916,104.319z
	 M70.96,236.861c-1.741,5.386,1.208,11.161,6.574,12.902c5.386,1.741,11.161-1.208,12.902-6.594
	c1.741-5.366-1.188-11.141-6.574-12.881C78.476,228.546,72.722,231.475,70.96,236.861z M61.56,290.168
	c-0.205,5.673,4.219,10.403,9.891,10.608c5.632,0.205,10.383-4.219,10.567-9.871c0.205-5.652-4.219-10.403-9.85-10.588
	C66.496,280.113,61.765,284.536,61.56,290.168z M79.644,351.503c5.488-1.372,8.827-6.922,7.434-12.41
	c-1.352-5.488-6.922-8.847-12.39-7.454c-5.488,1.352-8.847,6.922-7.454,12.39C68.585,349.537,74.135,352.875,79.644,351.503z
	 M101.495,397.991c4.915-2.826,6.594-9.072,3.748-13.987c-2.826-4.895-9.072-6.574-13.987-3.727
	c-4.895,2.826-6.574,9.072-3.748,13.967C90.334,399.158,96.6,400.838,101.495,397.991z M111.673,199.65
	c3.174-4.71,1.925-11.079-2.744-14.233c-4.69-3.154-11.059-1.925-14.233,2.765c-3.154,4.69-1.905,11.059,2.765,14.213
	C102.171,205.569,108.519,204.319,111.673,199.65z M144.092,163.627c4.342-3.625,4.915-10.076,1.27-14.417
	s-10.076-4.915-14.417-1.27s-4.895,10.096-1.27,14.417C133.319,166.699,139.75,167.252,144.092,163.627z M185.193,137.946
	c5.161-2.294,7.475-8.335,5.181-13.516c-2.294-5.161-8.335-7.495-13.516-5.181c-5.161,2.294-7.475,8.356-5.181,13.516
	S180.032,140.26,185.193,137.946z M255.99,409.603c28.241,0,51.198-22.957,51.198-51.198c0-10.567-3.215-20.397-8.724-28.568
	l117.878-129.039c3.83-4.157,3.522-10.629-0.655-14.458c-4.178-3.809-10.629-3.522-14.458,0.655L283.801,315.542
	c-8.007-5.222-17.551-8.335-27.811-8.335c-28.241,0-51.198,22.978-51.198,51.198C204.792,386.645,227.749,409.603,255.99,409.603z
	 M424.492,394.243c2.826-4.895,1.126-11.141-3.768-13.967c-4.895-2.847-11.161-1.167-13.967,3.727
	c-2.847,4.915-1.167,11.161,3.727,13.987C415.379,400.838,421.646,399.158,424.492,394.243z M444.767,344.028
	c1.372-5.468-1.986-11.038-7.454-12.39c-5.488-1.393-11.038,1.966-12.41,7.454c-1.372,5.488,1.966,11.038,7.454,12.41
	C437.845,352.875,443.415,349.537,444.767,344.028z M440.548,300.776c5.652-0.205,10.076-4.935,9.871-10.608
	c-0.184-5.632-4.935-10.055-10.588-9.85c-5.652,0.184-10.055,4.935-9.871,10.588C430.145,296.558,434.916,300.981,440.548,300.776z
	 M277.964,337.065c0.041,0.041,0.082,0.041,0.123,0.082c5.304,5.509,8.622,12.984,8.622,21.237
	c0,16.936-13.782,30.719-30.719,30.719c-16.936,0-30.719-13.783-30.719-30.719c0-16.936,13.783-30.719,30.719-30.719
	c8.437,0,16.097,3.44,21.646,8.97C277.78,336.758,277.821,336.942,277.964,337.065z"/>
<g>
</g>
<g>
</g>
<g>
</g>
<g>
</g>
<g>
</g>
<g>
</g>
<g>
</g>
<g>
</g>
<g>
</g>
<g>
</g>
<g>
</g>
<g>
</g>
<g>
</g>
<g>
</g>
<g>
</g>
</svg>
