<?xml version="1.0" encoding="iso-8859-1"?>
<!-- Generator: Adobe Illustrator 19.0.0, SVG Export Plug-In . SVG Version: 6.00 Build 0)  -->
<svg version="1.1" id="Capa_1" xmlns="http://www.w3.org/2000/svg" xmlns:xlink="http://www.w3.org/1999/xlink" x="0px" y="0px"
	 viewBox="0 0 512 512" style="enable-background:new 0 0 512 512;" xml:space="preserve">
<linearGradient id="SVGID_1_" gradientUnits="userSpaceOnUse" x1="-35.2988" y1="646.7559" x2="-35.2988" y2="623.7559" gradientTransform="matrix(22.2609 0 0 -22.2609 1041.7826 14397.3477)">
	<stop  offset="0" style="stop-color:#5CEECA"/>
	<stop  offset="1" style="stop-color:#64CCFA"/>
</linearGradient>
<path style="fill:url(#SVGID_1_);" d="M144.696,378.435c-6.144,0-11.13,4.986-11.13,11.13s4.986,11.13,11.13,11.13h178.087
	c6.144,0,11.13-4.986,11.13-11.13s-4.986-11.13-11.13-11.13H144.696z M144.696,333.913c-6.144,0-11.13,4.986-11.13,11.13
	s4.986,11.13,11.13,11.13h89.043c6.144,0,11.13-4.986,11.13-11.13s-4.986-11.13-11.13-11.13H144.696z M89.043,512V289.391h333.913
	V512H89.043z M502.228,63.533C508.438,69.743,512,78.358,512,87.129v391.48c0,18.41-14.982,33.391-33.391,33.391h-33.391V278.261
	c0-6.144-4.986-11.13-11.13-11.13H77.913c-6.144,0-11.13,4.986-11.13,11.13V512H33.391C14.982,512,0,497.018,0,478.609V33.391
	C0,14.982,14.982,0,33.391,0h391.48c8.771,0,17.386,3.562,23.597,9.773L502.228,63.533z M378.435,211.478V77.913
	c0-6.144-4.986-11.13-11.13-11.13H144.696c-6.144,0-11.13,4.986-11.13,11.13v133.565c0,6.144,4.986,11.13,11.13,11.13h222.609
	C373.448,222.609,378.435,217.622,378.435,211.478z M155.826,200.348V89.043h200.348v111.304H155.826z M289.391,178.087h44.522
	v-66.783h-44.522V178.087z"/>
<g>
</g>
<g>
</g>
<g>
</g>
<g>
</g>
<g>
</g>
<g>
</g>
<g>
</g>
<g>
</g>
<g>
</g>
<g>
</g>
<g>
</g>
<g>
</g>
<g>
</g>
<g>
</g>
<g>
</g>
</svg>
