<?xml version="1.0" encoding="iso-8859-1"?>
<!-- Generator: Adobe Illustrator 19.0.0, SVG Export Plug-In . SVG Version: 6.00 Build 0)  -->
<svg version="1.1" id="Capa_1" xmlns="http://www.w3.org/2000/svg" xmlns:xlink="http://www.w3.org/1999/xlink" x="0px" y="0px"
	 viewBox="0 0 512 512" style="enable-background:new 0 0 512 512;" xml:space="preserve">
<linearGradient id="SVGID_1_" gradientUnits="userSpaceOnUse" x1="-326.7425" y1="260.6515" x2="-326.7425" y2="261.6015" gradientTransform="matrix(389.12 0 0 512 127398.0391 -133443.3125)">
	<stop  offset="0" style="stop-color:#FF9400"/>
	<stop  offset="1" style="stop-color:#FF5F39"/>
</linearGradient>
<path style="fill:url(#SVGID_1_);" d="M419.84,0c-15.032,0-27.668,10.998-29.921,25.702C385.638,47.022,348.16,234.516,348.16,256
	c0,24.719,17.613,45.425,40.96,50.176V481.28c0,16.937,13.783,30.72,30.72,30.72s30.72-13.783,30.72-30.72V30.72
	C450.56,13.783,436.777,0,419.84,0 M286.72,30.72v143.36c0,46.817-29.471,89.231-73.359,105.574
	c-4.526,1.679-7.311,6.062-6.799,10.67l18.166,162.734c2.867,25.887-12.82,50.381-36.577,56.975
	c-4.628,1.311-9.38,1.946-14.049,1.946c-10.179,0-20.173-2.99-28.713-8.765c-12.452-8.397-20.541-21.729-22.2-36.598
	c-0.389-3.666-0.41-7.516,0-11.203l18.412-165.089c0.512-4.608-2.273-8.991-6.799-10.67C90.911,263.311,61.44,220.897,61.44,174.08
	V30.72C61.44,13.783,75.223,0,92.16,0s30.72,13.783,30.72,30.72V153.6c0,5.632,4.608,10.24,10.24,10.24
	c5.632,0,10.24-4.608,10.24-10.24V30.72C143.36,13.783,157.143,0,174.08,0s30.72,13.783,30.72,30.72V153.6
	c0,5.632,4.608,10.24,10.24,10.24s10.24-4.608,10.24-10.24V30.72C225.28,13.783,239.063,0,256,0S286.72,13.783,286.72,30.72"/>
<g>
</g>
<g>
</g>
<g>
</g>
<g>
</g>
<g>
</g>
<g>
</g>
<g>
</g>
<g>
</g>
<g>
</g>
<g>
</g>
<g>
</g>
<g>
</g>
<g>
</g>
<g>
</g>
<g>
</g>
</svg>
