<?xml version="1.0" encoding="iso-8859-1"?>
<!-- Generator: Adobe Illustrator 19.0.0, SVG Export Plug-In . SVG Version: 6.00 Build 0)  -->
<svg version="1.1" id="Capa_1" xmlns="http://www.w3.org/2000/svg" xmlns:xlink="http://www.w3.org/1999/xlink" x="0px" y="0px"
	 viewBox="0 0 512 512" style="enable-background:new 0 0 512 512;" xml:space="preserve">
<linearGradient id="SVGID_1_" gradientUnits="userSpaceOnUse" x1="-330.6443" y1="265.7272" x2="-330.6443" y2="266.7272" gradientTransform="matrix(512 0 0 389.12 169545.875 -103337.7188)">
	<stop  offset="0" style="stop-color:#85FC6D"/>
	<stop  offset="1" style="stop-color:#0AD31A"/>
</linearGradient>
<path style="fill:url(#SVGID_1_);" d="M199.782,262.328c14.725,15.831,34.652,24.556,56.218,24.556s41.492-8.724,56.197-24.515
	L496.251,65.516c-4.444-2.519-9.503-4.076-14.971-4.076H30.72c-5.448,0-10.527,1.577-14.95,4.076L199.782,262.328z M494.449,447.488
	c-4.014,1.925-8.438,3.072-13.169,3.072H30.72c-4.71,0-9.155-1.147-13.148-3.072L140.37,324.69c3.994-3.994,3.994-10.486,0-14.479
	c-4.014-3.994-10.486-3.994-14.479,0L3.092,433.009C1.167,429.015,0,424.571,0,419.84V92.16c0-3.953,0.819-7.721,2.191-11.182
	l182.62,195.318c18.33,19.743,44.278,31.068,71.188,31.068c26.931,0,52.859-11.325,71.188-31.027L509.829,80.998
	C511.181,84.439,512,88.207,512,92.16v327.68c0,4.731-1.167,9.175-3.072,13.169L386.13,310.211c-4.014-3.994-10.486-3.994-14.479,0
	c-4.014,3.994-4.014,10.486,0,14.479L494.449,447.488z"/>
<g>
</g>
<g>
</g>
<g>
</g>
<g>
</g>
<g>
</g>
<g>
</g>
<g>
</g>
<g>
</g>
<g>
</g>
<g>
</g>
<g>
</g>
<g>
</g>
<g>
</g>
<g>
</g>
<g>
</g>
</svg>
