<?xml version="1.0" encoding="iso-8859-1"?>
<!-- Generator: Adobe Illustrator 19.0.0, SVG Export Plug-In . SVG Version: 6.00 Build 0)  -->
<svg version="1.1" id="Capa_1" xmlns="http://www.w3.org/2000/svg" xmlns:xlink="http://www.w3.org/1999/xlink" x="0px" y="0px"
	 viewBox="0 0 511.998 511.998" style="enable-background:new 0 0 511.998 511.998;" xml:space="preserve">
<linearGradient id="SVGID_1_" gradientUnits="userSpaceOnUse" x1="-330.6353" y1="262.0443" x2="-330.6353" y2="263.0443" gradientTransform="matrix(511.998 0 0 471.0212 169540.625 -123407.3047)">
	<stop  offset="0" style="stop-color:#85FC6D"/>
	<stop  offset="1" style="stop-color:#0AD31A"/>
</linearGradient>
<path style="fill:url(#SVGID_1_);" d="M286.718,399.353c0-16.936-13.783-30.719-30.719-30.719s-30.719,13.783-30.719,30.719
	s13.782,30.719,30.719,30.719S286.718,416.289,286.718,399.353 M225.71,219.73l20.192,119.947c0.696,4.157,3.973,7.598,8.417,8.335
	c0.553,0.102,1.147,0.143,1.7,0.143c4.895,0,9.236-3.522,10.076-8.478l20.192-119.947c0.532-3.195,0.594-6.635,0-10.014
	c-2.498-14.847-15.503-25.394-30.248-25.394c-1.679,0-3.379,0.143-5.099,0.43C234.23,187.496,222.905,203.163,225.71,219.73
	 M507.545,475.822c-5.796,9.83-16.097,15.687-27.544,15.687H31.998c-11.448,0-21.749-5.857-27.544-15.687
	c-5.755-9.707-5.939-21.421-0.512-31.354L227.963,37.015c5.693-10.342,16.179-16.527,28.036-16.527
	c11.857,0,22.343,6.185,28.036,16.527l224.022,407.454C513.484,454.401,513.299,466.115,507.545,475.822"/>
<g>
</g>
<g>
</g>
<g>
</g>
<g>
</g>
<g>
</g>
<g>
</g>
<g>
</g>
<g>
</g>
<g>
</g>
<g>
</g>
<g>
</g>
<g>
</g>
<g>
</g>
<g>
</g>
<g>
</g>
</svg>
